/* XPM */
static char * maxfcs_xpm[] = {
"22 22 144 2",
"  	c None",
". 	c #5A5A55",
"+ 	c #585752",
"@ 	c #54534F",
"# 	c #4F4E49",
"$ 	c #181716",
"% 	c #191817",
"& 	c #1D1C1A",
"* 	c #201F1D",
"= 	c #22211F",
"- 	c #242321",
"; 	c #232220",
"> 	c #23221F",
", 	c #232320",
"' 	c #262524",
") 	c #2C2A28",
"! 	c #2E2D2B",
"~ 	c #31302E",
"{ 	c #2F2E2C",
"] 	c #555352",
"^ 	c #989694",
"/ 	c #BDBDBA",
"( 	c #DDDDDA",
"_ 	c #272625",
": 	c #454342",
"< 	c #949391",
"[ 	c #E6E5E3",
"} 	c #F8F7F4",
"| 	c #FAF9F6",
"1 	c #FCFBF8",
"2 	c #2A2927",
"3 	c #282825",
"4 	c #292826",
"5 	c #494946",
"6 	c #ADACAA",
"7 	c #F9F9F7",
"8 	c #FCFAF8",
"9 	c #302F2D",
"0 	c #2F2F2C",
"a 	c #383735",
"b 	c #9E9C9A",
"c 	c #F1EFEC",
"d 	c #FBF9F6",
"e 	c #F8F6F3",
"f 	c #363533",
"g 	c #353432",
"h 	c #747270",
"i 	c #D3D0CD",
"j 	c #FDFAF7",
"k 	c #FBF8F4",
"l 	c #F8F5F2",
"m 	c #E7E5E3",
"n 	c #BBB9B8",
"o 	c #BCBAB8",
"p 	c #3C3B39",
"q 	c #3B3A37",
"r 	c #3C3B3A",
"s 	c #979593",
"t 	c #E7E4E0",
"u 	c #F5F1EE",
"v 	c #F9F6F2",
"w 	c #F5F2EE",
"x 	c #DCDAD6",
"y 	c #A6A5A3",
"z 	c #898888",
"A 	c #42413F",
"B 	c #3F3F3D",
"C 	c #B3B0AD",
"D 	c #F1EDE9",
"E 	c #CDCBC8",
"F 	c #999897",
"G 	c #929191",
"H 	c #BFBDBB",
"I 	c #484745",
"J 	c #464643",
"K 	c #474744",
"L 	c #B3B0AB",
"M 	c #F1EEE7",
"N 	c #F5F1EB",
"O 	c #C8C6C1",
"P 	c #939290",
"Q 	c #9A9997",
"R 	c #CDCAC6",
"S 	c #EFEBE5",
"T 	c #4E4D4B",
"U 	c #4C4C4A",
"V 	c #4B4B49",
"W 	c #9A9893",
"X 	c #E0DCD4",
"Y 	c #F2EEE5",
"Z 	c #C9C7C0",
"` 	c #B6B3AE",
" .	c #D8D5CD",
"..	c #EEEAE2",
"+.	c #F0ECE3",
"@.	c #545451",
"#.	c #535350",
"$.	c #51504F",
"%.	c #807D7A",
"&.	c #CDC8C0",
"*.	c #F0EBE1",
"=.	c #EBE6DC",
"-.	c #EAE5DB",
";.	c #ECE7DD",
">.	c #EDE8DE",
",.	c #5A5A57",
"'.	c #595856",
").	c #585755",
"!.	c #A29F99",
"~.	c #E2DDD2",
"{.	c #EBE5DA",
"].	c #EAE4D9",
"^.	c #60605D",
"/.	c #5F5F5C",
"(.	c #5B5B58",
"_.	c #6A6A66",
":.	c #AEAAA2",
"<.	c #E6E0D3",
"[.	c #E7E0D4",
"}.	c #666663",
"|.	c #656562",
"1.	c #5E5E5C",
"2.	c #6A6965",
"3.	c #9D9A91",
"4.	c #D5CEC1",
"5.	c #E1DACC",
"6.	c #E2DBCD",
"7.	c #E4DDCF",
"8.	c #6C6C69",
"9.	c #6B6B68",
"0.	c #666664",
"a.	c #61615E",
"b.	c #73706C",
"c.	c #9E9990",
"d.	c #B7B2A6",
"e.	c #CCC6B8",
"f.	c #72726F",
"g.	c #70706D",
"h.	c #666662",
"i.	c #62625F",
"j.	c #605F5D",
"k.	c #787875",
"l.	c #777774",
"m.	c #767673",
". . . . . . . . . . . . . . . . . . . . . . ",
"+ + + + + + + + + + + + + + + + + + + + + + ",
"@ @ @ @ @ @ @ @ @ @ @ @ @ @ @ @ @ @ @ @ @ @ ",
"# # # # # # # # # # # # # # # # # # # # # # ",
"$ $ $ $ $ $ % & * = - - = * & % $ $ $ $ $ $ ",
"; ; ; ; ; > , ' ) ! ~ ~ ! ) ' , > ; ; ; ; ; ",
"- - - - - ' { ] ^ / ( ( / ^ ] { ' - - - - - ",
"- - - - _ : < [ } | 1 1 | } [ < : _ - - - - ",
"2 2 3 4 5 6 7 8 1 1 1 1 1 1 8 7 6 5 4 3 2 2 ",
"9 0 { a b c 8 d d d e e d d d 8 c b a { 0 9 ",
"f g f h i j k k l m n o m l k k j i h f g f ",
"p q r s t u v w x y z z y x w v u t s r q p ",
"A B A C u u D E F G H H G F E D u u C A B A ",
"I J K L M N O P Q R S S R Q P O N M L K J I ",
"T U V W X Y Z `  ...+.+... .` Z Y X W V U T ",
"@.#.$.%.&.*.=.-.;.>.>.>.>.;.-.=.*.&.%.$.#.@.",
",.,.'.).!.~.{.].].].].].].].].{.~.!.).'.,.,.",
"^.^./.(._.:.<.[.[.[.[.[.[.[.[.<.:._.(./.^.^.",
"}.}.}.|.1.2.3.4.5.6.7.7.6.5.4.3.2.1.|.}.}.}.",
"8.8.8.8.9.0.a.b.c.d.e.e.d.c.b.a.0.9.8.8.8.8.",
"f.f.f.f.f.f.g.9.h.i.j.j.i.h.9.g.f.f.f.f.f.f.",
"k.k.k.k.k.k.k.l.m.m.m.m.m.m.l.k.k.k.k.k.k.k."};
