/* XPM */
static char * maxpr_xpm[] = {
"22 22 139 2",
"  	c None",
". 	c #5A5A55",
"+ 	c #585752",
"@ 	c #54534F",
"# 	c #4F4E49",
"$ 	c #181716",
"% 	c #191816",
"& 	c #1B1A18",
"* 	c #1E1C1B",
"= 	c #1F1E1C",
"- 	c #21201E",
"; 	c #232220",
"> 	c #252422",
", 	c #292826",
"' 	c #2A2927",
") 	c #2D2C2A",
"! 	c #242321",
"~ 	c #2B2A28",
"{ 	c #454443",
"] 	c #757471",
"^ 	c #8F8E8C",
"/ 	c #A5A5A2",
"( 	c #262524",
"_ 	c #3B3938",
": 	c #72716F",
"< 	c #ABAAA8",
"[ 	c #B8B7B5",
"} 	c #B9B8B6",
"| 	c #BAB9B7",
"1 	c #3F3F3C",
"2 	c #858482",
"3 	c #BBBAB8",
"4 	c #BCBBB9",
"5 	c #302F2D",
"6 	c #2F2F2C",
"7 	c #2F2E2C",
"8 	c #363533",
"9 	c #7C7B79",
"0 	c #B6B5B2",
"a 	c #BEBDBA",
"b 	c #BDBCB9",
"c 	c #BBBAB7",
"d 	c #353432",
"e 	c #61605E",
"f 	c #A3A19F",
"g 	c #C1BEBC",
"h 	c #BFBCBA",
"i 	c #BDBBB9",
"j 	c #B1B0AD",
"k 	c #93918F",
"l 	c #939290",
"m 	c #3C3B39",
"n 	c #3B3A38",
"o 	c #7C7A77",
"p 	c #B3B0AD",
"q 	c #BDBAB7",
"r 	c #C0BDBA",
"s 	c #ABA9A7",
"t 	c #868583",
"u 	c #71706F",
"v 	c #42413F",
"w 	c #40403E",
"x 	c #918E8C",
"y 	c #BFBCB9",
"z 	c #BCB9B6",
"A 	c #7F7E7D",
"B 	c #7A7978",
"C 	c #999895",
"D 	c #484745",
"E 	c #474644",
"F 	c #474744",
"G 	c #92918C",
"H 	c #BEBBB6",
"I 	c #C1BEB9",
"J 	c #A19F9B",
"K 	c #81807E",
"L 	c #A5A39F",
"M 	c #BCB9B4",
"N 	c #7C7C7A",
"O 	c #A1A09C",
"P 	c #4E4D4B",
"Q 	c #4D4C4A",
"R 	c #4C4C49",
"S 	c #83827D",
"T 	c #B3B1AA",
"U 	c #C1BDB6",
"V 	c #A4A29D",
"W 	c #969490",
"X 	c #AEABA6",
"Y 	c #BEBBB4",
"Z 	c #BFBCB5",
"` 	c #545451",
" .	c #535351",
"..	c #51514F",
"+.	c #73716D",
"@.	c #A8A59E",
"#.	c #C1BDB5",
"$.	c #BEBAB2",
"%.	c #BDB9B1",
"&.	c #BEBAB3",
"*.	c #BFBBB3",
"=.	c #5A5A57",
"-.	c #595956",
";.	c #585856",
">.	c #8C8A85",
",.	c #BAB5AD",
"'.	c #C0BBB3",
").	c #BFBAB2",
"!.	c #60605D",
"~.	c #5D5D5A",
"{.	c #676663",
"].	c #97948D",
"^.	c #BEB9AF",
"/.	c #BEB9B0",
"(.	c #666663",
"_.	c #656562",
":.	c #60605E",
"<.	c #686764",
"[.	c #8C8A83",
"}.	c #B3AFA4",
"|.	c #BCB7AC",
"1.	c #BDB8AD",
"2.	c #BEB9AE",
"3.	c #6C6C69",
"4.	c #6B6B68",
"5.	c #686865",
"6.	c #656461",
"7.	c #716F6B",
"8.	c #8E8C84",
"9.	c #A09C93",
"0.	c #AFABA0",
"a.	c #72726F",
"b.	c #70706D",
"c.	c #6D6D69",
"d.	c #6A6A66",
"e.	c #676764",
"f.	c #787875",
"g.	c #777774",
"h.	c #767673",
". . . . . . . . . . . . . . . . . . . . . . ",
"+ + + + + + + + + + + + + + + + + + + + + + ",
"@ @ @ @ @ @ @ @ @ @ @ @ @ @ @ @ @ @ @ @ @ @ ",
"# # # # # # # # # # # # # # # # # # # # # # ",
"$ $ $ $ $ $ % & * = - - = * & % $ $ $ $ $ $ ",
"; ; ; ; ; ; ; > , ' ) ) ' , > ; ; ; ; ; ; ; ",
"! ! ! ! ! > ~ { ] ^ / / ^ ] { ~ > ! ! ! ! ! ",
"! ! ! ! ( _ : < [ } | | } [ < : _ ( ! ! ! ! ",
"' ' , , 1 2 3 4 4 4 4 4 4 4 4 3 2 1 , , ' ' ",
"5 6 7 8 9 0 a b b b c c b b b a 0 9 8 7 6 5 ",
"8 d 8 e f g h h i j k l j i h h g f e 8 d 8 ",
"m n m o p q r q s t u u t s q r q p o m n m ",
"v w v x y y z f A B C C B A f z y y x v w v ",
"D E F G H I J 9 K L M M L K N O I H G F E D ",
"P Q R S T U V W X Y Z Z Y X W V U T S R Q P ",
"`  ...+.@.#.$.%.&.*.*.*.*.&.%.$.#.@.+... .` ",
"=.=.-.;.>.,.'.).).).).).).).).'.,.>.;.-.=.=.",
"!.!.!.~.{.].^././././././././.^.].{.~.!.!.!.",
"(.(.(._.:.<.[.}.|.1.2.2.1.|.}.[.<.:._.(.(.(.",
"3.3.3.3.4.5.6.7.8.9.0.0.9.8.7.6.5.4.3.3.3.3.",
"a.a.a.a.a.a.b.c.d.e._._.e.d.c.b.a.a.a.a.a.a.",
"f.f.f.f.f.f.f.g.h.g.g.g.g.h.g.f.f.f.f.f.f.f."};
