/* XPM */
static char * maxufcs_xpm[] = {
"22 22 166 2",
"  	c None",
". 	c #594D52",
"+ 	c #594E53",
"@ 	c #584C51",
"# 	c #55494E",
"$ 	c #554A4E",
"% 	c #564A4E",
"& 	c #504548",
"* 	c #514649",
"= 	c #524649",
"- 	c #52464A",
"; 	c #241A20",
"> 	c #251B21",
", 	c #281E23",
"' 	c #2B2125",
") 	c #2D2227",
"! 	c #2F2429",
"~ 	c #291E23",
"{ 	c #261B21",
"] 	c #251A20",
"^ 	c #2D2228",
"/ 	c #2D2328",
"( 	c #2D2428",
"_ 	c #2C2327",
": 	c #2C2226",
"< 	c #2A2025",
"[ 	c #2E2428",
"} 	c #2C2228",
"| 	c #291F26",
"1 	c #2E2429",
"2 	c #392F34",
"3 	c #3E3539",
"4 	c #433A3E",
"5 	c #2E2529",
"6 	c #2B2226",
"7 	c #362E33",
"8 	c #433B40",
"9 	c #473F43",
"0 	c #484044",
"a 	c #2A2125",
"b 	c #31282D",
"c 	c #2F272B",
"d 	c #3C3338",
"e 	c #494144",
"f 	c #4A4144",
"g 	c #4A4244",
"h 	c #3B3438",
"i 	c #2D2529",
"j 	c #2C2428",
"k 	c #30282C",
"l 	c #32292E",
"m 	c #372E31",
"n 	c #352E30",
"o 	c #322B2D",
"p 	c #3B3336",
"q 	c #4B4346",
"r 	c #4C4447",
"s 	c #484144",
"t 	c #332B2E",
"u 	c #362E31",
"v 	c #372E32",
"w 	c #393236",
"x 	c #352D31",
"y 	c #393134",
"z 	c #463F42",
"A 	c #4D4649",
"B 	c #4D4648",
"C 	c #50494C",
"D 	c #5C5559",
"E 	c #5C5558",
"F 	c #40383B",
"G 	c #3F3739",
"H 	c #372F33",
"I 	c #40383C",
"J 	c #4B4448",
"K 	c #4D4749",
"L 	c #4E484A",
"M 	c #544D4F",
"N 	c #686164",
"O 	c #7F797C",
"P 	c #554D4F",
"Q 	c #4F484A",
"R 	c #4B4447",
"S 	c #373033",
"T 	c #3F383A",
"U 	c #40393C",
"V 	c #453E40",
"W 	c #423C3E",
"X 	c #393335",
"Y 	c #4F494B",
"Z 	c #50494B",
"` 	c #595356",
" .	c #726B6F",
"..	c #7A7377",
"+.	c #5B5456",
"@.	c #736B6E",
"#.	c #595255",
"$.	c #393336",
"%.	c #423C3F",
"&.	c #453E41",
"*.	c #4B4345",
"=.	c #484244",
"-.	c #3E383A",
";.	c #494344",
">.	c #524C4E",
",.	c #534D4F",
"'.	c #5E575A",
").	c #756F73",
"!.	c #746D71",
"~.	c #554F51",
"{.	c #494345",
"].	c #484344",
"^.	c #4B4446",
"/.	c #443E40",
"(.	c #4A4446",
"_.	c #544E4F",
":.	c #585355",
"<.	c #5E595B",
"[.	c #4F4A4B",
"}.	c #555050",
"|.	c #544F4F",
"1.	c #4A4547",
"2.	c #514C4D",
"3.	c #554F50",
"4.	c #534D4E",
"5.	c #524C4D",
"6.	c #514B4C",
"7.	c #504A4C",
"8.	c #5A5656",
"9.	c #575254",
"0.	c #4C4749",
"a.	c #545050",
"b.	c #524D4D",
"c.	c #514C4C",
"d.	c #504B4B",
"e.	c #4F4B4A",
"f.	c #5F5B5C",
"g.	c #5F5B5B",
"h.	c #585455",
"i.	c #504C4C",
"j.	c #534F4F",
"k.	c #524E4D",
"l.	c #4F4A4A",
"m.	c #656261",
"n.	c #646160",
"o.	c #5B5857",
"p.	c #524F4E",
"q.	c #514E4D",
"r.	c #504C4B",
"s.	c #4E4B4A",
"t.	c #6B6867",
"u.	c #6A6766",
"v.	c #656161",
"w.	c #5B5858",
"x.	c #545151",
"y.	c #53504F",
"z.	c #4F4C4A",
"A.	c #716E6D",
"B.	c #6F6C6B",
"C.	c #6A6767",
"D.	c #636060",
"E.	c #5F5C5B",
"F.	c #777573",
"G.	c #767472",
"H.	c #757371",
"I.	c #767372",
". . . . . . + + + + + + + + + + + + + + + + ",
"@ @ @ @ @ @ @ @ @ @ @ @ @ @ @ @ @ @ @ @ @ @ ",
"# $ $ $ % % % $ $ $ $ $ $ % $ $ $ $ $ $ $ $ ",
"& & & & & & & & * = - - - - * * * * * * * * ",
"; ; ; ; ; ; > , ' ) ! ! ) ' ~ { ] ] ] ] ] ] ",
"^ ^ ^ / / ( _ : ' < < < < ' : _ ( / / / / / ",
"[ [ [ [ [ } | 1 2 3 4 4 3 2 1 | } 1 1 5 5 5 ",
"( / ( ( ' 6 7 8 9 9 0 0 9 9 8 7 6 a ( ( ( [ ",
"b b c / 1 d e f f f g g g f f e h i j k l l ",
"m n o 5 p e q q q q r r q q q q s p 5 t u v ",
"p w x y z A B B B C D E C A A A A z y x w p ",
"F G H I J K L L M N O O N P Q L A R I S T U ",
"V W X z Y Y Z `  ...+.+...@.#.Z Y Z z $.%.&.",
"*.=.-.;.>.,.'.).!.~.Z Z ~.!.).'.,.>.{.-.].^.",
"Y L /.(.>._.:.<.>.[.[.Y Y >.<.:._.>.(./.L Y ",
"}.|.K 1.2.3.4.5.6.7.Y Y 7.6.5.4.3.2.1.K |.}.",
"8.8.9.0.Y a.|.b.c.d.e.e.d.c.b.|.a.Y 0.9.8.8.",
"f.f.g.h.i.i.j.k.c.d.l.l.d.c.k.j.i.i.h.g.f.f.",
"m.m.m.n.o.p.q.p.q.r.s.s.r.q.p.q.p.o.n.m.m.m.",
"t.t.t.t.u.v.w.x.y.q.z.z.q.y.x.w.m.u.t.t.t.t.",
"A.A.A.A.A.A.B.C.D.E.w.w.E.D.C.B.A.A.A.A.A.A.",
"F.F.F.F.F.F.F.G.H.I.H.H.I.H.G.F.F.F.F.F.F.F."};
