/* XPM */
static char * minfcs_xpm[] = {
"22 22 195 2",
"  	c None",
". 	c #5A5A55",
"+ 	c #585752",
"@ 	c #54534F",
"# 	c #4F4E49",
"$ 	c #4F4E4A",
"% 	c #504F4A",
"& 	c #50504B",
"* 	c #52514C",
"= 	c #181716",
"- 	c #191817",
"; 	c #1D1C1A",
"> 	c #201F1D",
", 	c #22211F",
"' 	c #252421",
") 	c #232220",
"! 	c #252322",
"~ 	c #2B2A26",
"{ 	c #383833",
"] 	c #484843",
"^ 	c #53524D",
"/ 	c #23221F",
"( 	c #232320",
"_ 	c #262524",
": 	c #2C2B29",
"< 	c #2E2D2B",
"[ 	c #31302E",
"} 	c #282624",
"| 	c #252422",
"1 	c #262622",
"2 	c #363532",
"3 	c #4C4B47",
"4 	c #504F4B",
"5 	c #242321",
"6 	c #2F2E2C",
"7 	c #555352",
"8 	c #989694",
"9 	c #BDBDBA",
"0 	c #DDDDDA",
"a 	c #222120",
"b 	c #2A2927",
"c 	c #41403D",
"d 	c #4D4C48",
"e 	c #272625",
"f 	c #454342",
"g 	c #949391",
"h 	c #E6E5E3",
"i 	c #F8F7F4",
"j 	c #FAF9F6",
"k 	c #FCFBF8",
"l 	c #292826",
"m 	c #464541",
"n 	c #4A4945",
"o 	c #282825",
"p 	c #494946",
"q 	c #ADACAA",
"r 	c #F9F9F7",
"s 	c #FCFAF8",
"t 	c #343331",
"u 	c #302F2D",
"v 	c #2F2F2C",
"w 	c #383735",
"x 	c #9E9C9A",
"y 	c #F1EFEC",
"z 	c #FBF9F6",
"A 	c #31302D",
"B 	c #3E3D39",
"C 	c #363533",
"D 	c #353432",
"E 	c #747270",
"F 	c #D2D0CD",
"G 	c #FDFAF7",
"H 	c #F8F5F2",
"I 	c #F7F4F1",
"J 	c #F9F6F3",
"K 	c #FAF8F4",
"L 	c #3B3B37",
"M 	c #3C3B39",
"N 	c #3B3A37",
"O 	c #3C3B3A",
"P 	c #979593",
"Q 	c #E6E3E0",
"R 	c #FBF8F4",
"S 	c #D0CDCB",
"T 	c #BAB8B7",
"U 	c #DFDCD9",
"V 	c #F7F4F0",
"W 	c #F9F6F2",
"X 	c #3D3B3A",
"Y 	c #42413F",
"Z 	c #3F3F3D",
"` 	c #B3B0AD",
" .	c #F5F1ED",
"..	c #F9F5F1",
"+.	c #CBC9C7",
"@.	c #949393",
"#.	c #9B9A99",
"$.	c #D0CECB",
"%.	c #F3EFEB",
"&.	c #41403E",
"*.	c #484745",
"=.	c #464643",
"-.	c #474744",
";.	c #B3B0AB",
">.	c #F2EEE7",
",.	c #F1EDE7",
"'.	c #EDEAE4",
").	c #CBC9C5",
"!.	c #999896",
"~.	c #929190",
"{.	c #BEBBB8",
"].	c #464543",
"^.	c #4E4D4B",
"/.	c #4C4C4A",
"(.	c #4B4B49",
"_.	c #9A9893",
":.	c #E0DCD5",
"<.	c #ECE8DF",
"[.	c #F0ECE4",
"}.	c #ECE9E0",
"|.	c #D5D3CB",
"1.	c #A3A29E",
"2.	c #888786",
"3.	c #484644",
"4.	c #545451",
"5.	c #535350",
"6.	c #51504F",
"7.	c #807D7A",
"8.	c #CDC8C0",
"9.	c #EFEAE0",
"0.	c #EDE8DE",
"a.	c #ECE7DD",
"b.	c #DED9D1",
"c.	c #B4B1AC",
"d.	c #B5B2AD",
"e.	c #51514E",
"f.	c #474743",
"g.	c #5A5A57",
"h.	c #595856",
"i.	c #585755",
"j.	c #A29F99",
"k.	c #E2DDD2",
"l.	c #EBE5DA",
"m.	c #EAE4D9",
"n.	c #E7E1D7",
"o.	c #565552",
"p.	c #43423E",
"q.	c #60605D",
"r.	c #5F5F5C",
"s.	c #5C5C59",
"t.	c #6A6A66",
"u.	c #AEAAA2",
"v.	c #E6E0D3",
"w.	c #E7E0D4",
"x.	c #4D4D4B",
"y.	c #3D3C38",
"z.	c #666663",
"A.	c #656562",
"B.	c #5E5E5C",
"C.	c #6A6965",
"D.	c #9D9A91",
"E.	c #D5CEC1",
"F.	c #E1DACC",
"G.	c #E2DBCD",
"H.	c #E4DDCF",
"I.	c #636360",
"J.	c #585855",
"K.	c #3C3B37",
"L.	c #6C6C69",
"M.	c #6B6B68",
"N.	c #666664",
"O.	c #61615E",
"P.	c #73706C",
"Q.	c #9E9990",
"R.	c #B7B2A6",
"S.	c #CCC6B8",
"T.	c #62615E",
"U.	c #686865",
"V.	c #5C5B58",
"W.	c #444340",
"X.	c #72726F",
"Y.	c #70706D",
"Z.	c #666662",
"`.	c #62625F",
" +	c #605F5D",
".+	c #6E6E6B",
"++	c #676764",
"@+	c #51514D",
"#+	c #787875",
"$+	c #777774",
"%+	c #767673",
"&+	c #757572",
"*+	c #6E6E6C",
"=+	c #646461",
"-+	c #44433F",
". . . . . . . . . . . . . . . . . . . . . . ",
"+ + + + + + + + + + + + + + + + + + + + + + ",
"@ @ @ @ @ @ @ @ @ @ @ @ @ @ @ @ @ @ @ @ @ @ ",
"# # # # # # # # $ $ $ $ $ $ % & * * * * * * ",
"= = = = = = - ; > , ' ' ) ! ~ { ] * ^ ^ ^ ^ ",
") ) ) ) ) / ( _ : < [ [ < : } | 1 2 3 $ 4 4 ",
"5 5 5 5 5 _ 6 7 8 9 0 0 9 8 7 6 _ a b c d d ",
"5 5 5 5 e f g h i j k k j i h g f e a l m n ",
"b b o l p q r s k k k k k k s r q p l l t m ",
"u v 6 w x y s z z z z z z z z s y x w < A B ",
"C D C E F G H I J K K K K J I H G F E C C L ",
"M N O P Q R S T U V W W V U T S R Q P O N X ",
"Y Z Y `  ...+.@.#.$.%.%.$.#.@.+... .` Y Z &.",
"*.=.-.;.>.,.'.).!.~.{.{.~.!.).'.,.>.;.-.=.].",
"^./.(._.:.<.[.}.|.1.2.2.1.|.}.[.<.:._.(.(.3.",
"4.5.6.7.8.9.0.0.a.b.c.d.b.a.0.0.9.8.7.6.e.f.",
"g.g.h.i.j.k.l.m.m.m.n.n.m.m.m.l.k.j.i.h.o.p.",
"q.q.r.s.t.u.v.w.w.w.w.w.w.w.w.v.u.t.s.s.x.y.",
"z.z.z.A.B.C.D.E.F.G.H.H.G.F.E.D.C.B.I.J.B K.",
"L.L.L.L.M.N.O.P.Q.R.S.S.R.Q.P.T.z.U.V.W.K.K.",
"X.X.X.X.X.X.Y.M.Z.`. + +`.A.t..+++@+B K.K.K.",
"#+#+#+#+#+#+#+$+%+%+%+%+&+*+=+@ -+y.K.K.K.K."};
