/* XPM */
static char * minpr_xpm[] = {
"22 22 183 2",
"  	c None",
". 	c #5A5A55",
"+ 	c #585752",
"@ 	c #54534F",
"# 	c #4F4E49",
"$ 	c #4F4E4A",
"% 	c #504F4A",
"& 	c #50504B",
"* 	c #52514C",
"= 	c #181716",
"- 	c #191816",
"; 	c #1B1A18",
"> 	c #1E1C1B",
", 	c #1F1E1C",
"' 	c #21201E",
") 	c #242321",
"! 	c #2B2A27",
"~ 	c #383833",
"{ 	c #484843",
"] 	c #53524D",
"^ 	c #232220",
"/ 	c #252422",
"( 	c #292826",
"_ 	c #2A2927",
": 	c #2D2C2A",
"< 	c #2B2A28",
"[ 	c #262622",
"} 	c #363632",
"| 	c #4C4B47",
"1 	c #504F4B",
"2 	c #454443",
"3 	c #757471",
"4 	c #8F8E8C",
"5 	c #A5A5A2",
"6 	c #21201F",
"7 	c #41403D",
"8 	c #4D4C48",
"9 	c #262524",
"0 	c #3B3938",
"a 	c #72716F",
"b 	c #ABAAA8",
"c 	c #B8B7B5",
"d 	c #B9B8B6",
"e 	c #BAB9B7",
"f 	c #464541",
"g 	c #4A4945",
"h 	c #3F3F3C",
"i 	c #858482",
"j 	c #BBBAB8",
"k 	c #BCBBB9",
"l 	c #343331",
"m 	c #302F2D",
"n 	c #2F2F2C",
"o 	c #2F2E2C",
"p 	c #363533",
"q 	c #7C7B79",
"r 	c #B6B5B2",
"s 	c #BEBDBA",
"t 	c #BDBCB9",
"u 	c #2E2D2B",
"v 	c #31302D",
"w 	c #3E3D39",
"x 	c #353432",
"y 	c #61605E",
"z 	c #A3A19F",
"A 	c #C1BEBC",
"B 	c #BEBBB9",
"C 	c #BDBAB8",
"D 	c #BFBCBA",
"E 	c #3B3B37",
"F 	c #3C3B39",
"G 	c #3B3A38",
"H 	c #7C7A77",
"I 	c #B3B0AD",
"J 	c #C2BFBC",
"K 	c #A3A19E",
"L 	c #949390",
"M 	c #ADABA9",
"N 	c #BFBCB9",
"O 	c #C0BDBA",
"P 	c #3D3B3A",
"Q 	c #42413F",
"R 	c #40403E",
"S 	c #918E8C",
"T 	c #A2A09D",
"U 	c #7B7A79",
"V 	c #807F7E",
"W 	c #A5A3A0",
"X 	c #BDBAB7",
"Y 	c #41403E",
"Z 	c #484745",
"` 	c #474644",
" .	c #474744",
"..	c #92918C",
"+.	c #BEBBB6",
"@.	c #BBB8B4",
"#.	c #80807D",
"$.	c #7B7B79",
"%.	c #9A9895",
"&.	c #4E4D4B",
"*.	c #4D4C4A",
"=.	c #4C4C49",
"-.	c #83827D",
";.	c #B4B1AB",
">.	c #BCB9B2",
",.	c #BFBCB5",
"'.	c #BCBAB3",
").	c #ACAAA4",
"!.	c #898885",
"~.	c #767674",
"{.	c #4C4B49",
"].	c #484644",
"^.	c #545451",
"/.	c #535351",
"(.	c #51514F",
"_.	c #73716D",
":.	c #A8A59E",
"<.	c #C1BDB5",
"[.	c #BFBBB3",
"}.	c #BEBAB2",
"|.	c #B4B1AA",
"1.	c #979590",
"2.	c #979591",
"3.	c #474743",
"4.	c #5A5A57",
"5.	c #595956",
"6.	c #585856",
"7.	c #8C8A85",
"8.	c #BAB5AD",
"9.	c #C0BBB3",
"0.	c #BFBAB2",
"a.	c #BDB8B0",
"b.	c #565552",
"c.	c #43423E",
"d.	c #60605D",
"e.	c #5D5D5A",
"f.	c #676663",
"g.	c #97948D",
"h.	c #BEB9AF",
"i.	c #BEB9B0",
"j.	c #4D4D4B",
"k.	c #3D3C38",
"l.	c #666663",
"m.	c #656562",
"n.	c #60605E",
"o.	c #686764",
"p.	c #8C8A83",
"q.	c #B3AFA4",
"r.	c #BCB7AC",
"s.	c #BDB8AD",
"t.	c #BEB9AE",
"u.	c #646461",
"v.	c #585855",
"w.	c #3C3B37",
"x.	c #6C6C69",
"y.	c #6B6B68",
"z.	c #686865",
"A.	c #656461",
"B.	c #716F6B",
"C.	c #8E8C84",
"D.	c #A09C93",
"E.	c #AFABA0",
"F.	c #676765",
"G.	c #5C5B58",
"H.	c #444340",
"I.	c #72726F",
"J.	c #70706D",
"K.	c #6D6D69",
"L.	c #6A6A66",
"M.	c #676764",
"N.	c #696965",
"O.	c #6C6C68",
"P.	c #6F6F6C",
"Q.	c #676763",
"R.	c #51514D",
"S.	c #787875",
"T.	c #777774",
"U.	c #767673",
"V.	c #737370",
"W.	c #6D6D6A",
"X.	c #62625F",
"Y.	c #53524F",
"Z.	c #44433F",
". . . . . . . . . . . . . . . . . . . . . . ",
"+ + + + + + + + + + + + + + + + + + + + + + ",
"@ @ @ @ @ @ @ @ @ @ @ @ @ @ @ @ @ @ @ @ @ @ ",
"# # # # # # # # # # # # # $ % & * * * * * * ",
"= = = = = = - ; > , ' ' ' ) ! ~ { * ] ] ] ] ",
"^ ^ ^ ^ ^ ^ ^ / ( _ : : < ( / ) [ } | $ 1 1 ",
") ) ) ) ) / < 2 3 4 5 5 4 3 2 < / 6 ( 7 8 8 ",
") ) ) ) 9 0 a b c d e e d c b a 0 9 6 ( f g ",
"_ _ ( ( h i j k k k k k k k k j i h ( ( l f ",
"m n o p q r s t t t t t t t t s r q p u v w ",
"p x p y z A B C B D D D D B C B A z y p p E ",
"F G F H I J K L M N O O N M L K J I H F G P ",
"Q R Q S N J T U V W X X W V U T J N S Q R Y ",
"Z `  ...+.+.@.K #.$.%.%.$.#.K @.+.+... .` 2 ",
"&.*.=.-.;.>.,.'.).!.~.~.!.).'.,.>.;.-.=.{.].",
"^./.(._.:.<.[.[.}.|.1.2.|.}.[.[.<.:._.(.(.3.",
"4.4.5.6.7.8.9.0.0.}.a.a.}.0.0.9.8.7.6.5.b.c.",
"d.d.d.e.f.g.h.i.i.i.i.i.i.i.i.h.g.f.e.e.j.k.",
"l.l.l.m.n.o.p.q.r.s.t.t.s.r.q.p.o.n.u.v.w w.",
"x.x.x.x.y.z.A.B.C.D.E.E.D.C.B.A.F.z.G.H.w.w.",
"I.I.I.I.I.I.J.K.L.M.m.m.M.N.O.P.Q.R.w w.w.w.",
"S.S.S.S.S.S.S.T.U.T.T.U.V.W.X.Y.Z.k.w.w.w.w."};
