/* XPM */
static char * minufcs_xpm[] = {
"22 22 208 2",
"  	c None",
". 	c #594E53",
"+ 	c #594E52",
"@ 	c #5A4E52",
"# 	c #584C51",
"$ 	c #554A4E",
"% 	c #564A4E",
"& 	c #514649",
"* 	c #524749",
"= 	c #53484A",
"- 	c #54494B",
"; 	c #251A20",
"> 	c #261B21",
", 	c #291E23",
"' 	c #2B2125",
") 	c #2D2227",
"! 	c #2F2329",
"~ 	c #2E2328",
"{ 	c #34292D",
"] 	c #3F3437",
"^ 	c #4B4144",
"/ 	c #53494C",
"( 	c #544A4D",
"_ 	c #2D2328",
": 	c #2D2428",
"< 	c #2D2327",
"[ 	c #2C2226",
"} 	c #2A2025",
"| 	c #2E2428",
"1 	c #2F262A",
"2 	c #3D3336",
"3 	c #4E4447",
"4 	c #52484B",
"5 	c #2E2429",
"6 	c #2E2528",
"7 	c #2C2327",
"8 	c #392F33",
"9 	c #3E3638",
"0 	c #433B3E",
"a 	c #393033",
"b 	c #32292D",
"c 	c #453C3F",
"d 	c #4F4648",
"e 	c #372E33",
"f 	c #433B3F",
"g 	c #473F42",
"h 	c #483F43",
"i 	c #484044",
"j 	c #443B40",
"k 	c #32282D",
"l 	c #494043",
"m 	c #4C4446",
"n 	c #32292E",
"o 	c #31282B",
"p 	c #2E2529",
"q 	c #3C3438",
"r 	c #494044",
"s 	c #4A4144",
"t 	c #494144",
"u 	c #3A3135",
"v 	c #4A4142",
"w 	c #372E32",
"x 	c #362E31",
"y 	c #332B2E",
"z 	c #3B3336",
"A 	c #4B4346",
"B 	c #4A4346",
"C 	c #3B3436",
"D 	c #2E2629",
"E 	c #322B2D",
"F 	c #372F31",
"G 	c #423A3C",
"H 	c #3B3337",
"I 	c #393236",
"J 	c #352D31",
"K 	c #393134",
"L 	c #463F41",
"M 	c #4D4648",
"N 	c #4D4649",
"O 	c #4E474A",
"P 	c #463F42",
"Q 	c #3A3336",
"R 	c #3F383A",
"S 	c #40393B",
"T 	c #3F3839",
"U 	c #373033",
"V 	c #40393C",
"W 	c #4B4547",
"X 	c #4E484A",
"Y 	c #554F52",
"Z 	c #5D565A",
"` 	c #504A4C",
" .	c #554E51",
"..	c #4F484A",
"+.	c #4C4547",
"@.	c #383033",
"#.	c #403839",
"$.	c #41393C",
"%.	c #453E40",
"&.	c #423C3F",
"*.	c #393335",
"=.	c #464042",
"-.	c #50494B",
";.	c #514A4B",
">.	c #5C5659",
",.	c #756F72",
"'.	c #736D70",
").	c #554F51",
"!.	c #4F494B",
"~.	c #736D71",
"{.	c #746E73",
"].	c #5C5559",
"^.	c #51494B",
"/.	c #3A3335",
"(.	c #423C3E",
"_.	c #443D3F",
":.	c #4B4446",
"<.	c #484344",
"[.	c #3E383A",
"}.	c #494345",
"|.	c #524C4E",
"1.	c #514B4D",
"2.	c #5A5457",
"3.	c #7A7577",
"4.	c #5B5557",
"5.	c #7A7578",
"6.	c #494243",
"7.	c #443F40",
"8.	c #4A4546",
"9.	c #504B4C",
"0.	c #555051",
"a.	c #6A6567",
"b.	c #817B7E",
"c.	c #6A6467",
"d.	c #4A4446",
"e.	c #4D4749",
"f.	c #4A4345",
"g.	c #555050",
"h.	c #544F4F",
"i.	c #524C4D",
"j.	c #554F50",
"k.	c #534D4E",
"l.	c #514C4D",
"m.	c #5D585A",
"n.	c #5E585A",
"o.	c #524D4D",
"p.	c #494444",
"q.	c #5A5656",
"r.	c #575254",
"s.	c #4C4749",
"t.	c #4F4A4B",
"u.	c #545050",
"v.	c #524E4D",
"w.	c #514C4C",
"x.	c #504B4B",
"y.	c #504C4B",
"z.	c #565252",
"A.	c #454040",
"B.	c #5F5B5C",
"C.	c #5F5B5B",
"D.	c #585455",
"E.	c #504C4C",
"F.	c #534F4F",
"G.	c #4F4A4A",
"H.	c #5C5858",
"I.	c #4E4A4B",
"J.	c #3F3A3A",
"K.	c #656261",
"L.	c #656262",
"M.	c #646161",
"N.	c #5B5857",
"O.	c #524F4E",
"P.	c #514E4D",
"Q.	c #4E4B4A",
"R.	c #63605F",
"S.	c #585554",
"T.	c #403C3A",
"U.	c #3F3A38",
"V.	c #6B6867",
"W.	c #6A6766",
"X.	c #5B5858",
"Y.	c #545151",
"Z.	c #53504F",
"`.	c #4F4C4A",
" +	c #686564",
".+	c #5C5958",
"++	c #464241",
"@+	c #3E3A39",
"#+	c #716E6D",
"$+	c #6F6C6B",
"%+	c #6A6767",
"&+	c #636060",
"*+	c #5F5C5B",
"=+	c #686665",
"-+	c #6D6A6A",
";+	c #676362",
">+	c #403D3B",
",+	c #3E3A38",
"'+	c #777573",
")+	c #767472",
"!+	c #757371",
"~+	c #767372",
"{+	c #747270",
"]+	c #6D6B6A",
"^+	c #646260",
"/+	c #54514F",
"(+	c #45423F",
"_+	c #3D3A38",
". . + + + + + + + + + + + @ @ @ @ @ @ @ @ @ ",
"# # # # # # # # # # # # # # # # # # # # # # ",
"$ $ $ $ $ $ $ $ $ % % % % % % % % % % % $ $ ",
"& & & & & & & & & * & * * * * = - - - - - - ",
"; ; ; ; ; ; > , ' ) ! ! ~ ! { ] ^ / ( ( ( ( ",
"_ _ _ _ _ : < [ ' } } } } ' < | 1 2 3 4 4 4 ",
"| 5 6 6 | 7 } | 8 9 0 0 9 a 5 ' _ : b c d d ",
"| | | | ' [ e f g h i i h h j e [ ' 7 k l m ",
"n n o : p q r s s s s t t t t i q p : o u v ",
"w x y p z t A A B A A B B A A A t C D E F G ",
"H I J K L M N O N M M N N N O N N P K J Q R ",
"S T U V W X Y Z ` O X X O ` Z  ...+.V @.#.$.",
"%.&.*.=.-.;.>.,.'.).!.-. .~.{.].;.^.=./.(._.",
":.<.[.}.|.1.|.2.'.3.4.4.5.'.2.|.1.|.}.[.6.6.",
"!.X 7.8.|.|.|.9.0.a.b.b.c.Y ` |.|.|.d.7.e.f.",
"g.h.e.W i.j.k.l.` |.m.n.|.` l.k.j.i.W e.o.p.",
"q.q.r.s.t.u.h.v.w.x.y.y.x.w.v.h.u.t.s.r.z.A.",
"B.B.C.D.E.E.F.v.w.x.G.G.x.w.v.F.E.E.D.H.I.J.",
"K.K.L.M.N.O.P.O.P.y.Q.Q.y.P.O.P.O.N.R.S.T.U.",
"V.V.V.V.W.K.X.Y.Z.P.`.`.P.Z.Y.X.K. +.+++@+@+",
"#+#+#+#+#+#+$+%+&+*+X.X.*+R.=+-+;+v.>+,+,+,+",
"'+'+'+'+'+'+'+)+!+~+!+!+{+]+^+/+(+@+_+_+_+_+"};
