/* XPM */
static char *stickpr[] = {
/* columns rows colors chars-per-pixel */
"22 22 92 1",
"  c #2B1D2A7627B7",
". c #2D302C892984",
"X c #2D7A2D2E2A55",
"o c #2E082D3F2A47",
"O c #2EB62DAD2AAC",
"+ c #2EAE2DB42AB3",
"@ c #2FAA2EA92BAF",
"# c #30502F682C64",
"$ c #311730982D14",
"% c #310F31032D0D",
"& c #31FF312B2DF9",
"* c #33D232D02F8B",
"= c #342D33583008",
"- c #349A341B307A",
"; c #351234113091",
": c #3520345A3130",
"> c #351134D33112",
", c #364F355A3192",
"< c #356635433223",
"1 c #366435F031F0",
"2 c #38E637FD33DD",
"3 c #3A0039023512",
"4 c #3AB439BD3574",
"5 c #3C3F3B3E373A",
"6 c #3CC03BBE37B3",
"7 c #3C3F3B6637E4",
"8 c #3D093C0B380B",
"9 c #3D8F3C7E3944",
"0 c #3E663D613966",
"q c #3E2C3D553A46",
"w c #3F203E1E3A41",
"e c #403A3F393B38",
"r c #40933FF53BF0",
"t c #413C40473C48",
"y c #428540913DB0",
"u c #4256414D3D66",
"i c #435042483D5F",
"p c #418741353E32",
"a c #4227411F3E10",
"s c #435542563E32",
"d c #43A342A23F30",
"f c #442E432C3F1F",
"g c #463A45394050",
"h c #46BD45BC41EA",
"j c #46EB45EE41D7",
"k c #485647554334",
"l c #488C476A442B",
"z c #4980479F4566",
"x c #49444802440D",
"c c #496048534520",
"v c #4A57495F4473",
"b c #4B344A33453D",
"n c #4AB14960464E",
"m c #4B1049554638",
"M c #4AB64A0146F2",
"N c #4B714A154713",
"B c #4D5B4C4C4755",
"V c #4C364AEA47DB",
"C c #4D4F4C4E4946",
"Z c #4D724CE8490F",
"A c #4EBB4DC14A37",
"S c #50424E5C4A3C",
"D c #525251434C5A",
"F c #52BD51C24E21",
"G c #547153704F4F",
"H c #53E853774FD8",
"J c #555A53585156",
"K c #567254695259",
"L c #571E551B5304",
"P c #583B57495252",
"I c #5A3C5A2D5528",
"U c #5D305C2B5920",
"Y c #5E905D8F5A8B",
"T c #60E25FEC5CD7",
"R c #62D261C95EEF",
"E c #631F62D55F43",
"W c #647463746085",
"Q c #65D763DC60EA",
"! c #666F63A660AC",
"~ c #668463BD6134",
"^ c #655B6458613E",
"/ c #66A2649061D1",
"( c #6E7C6C7A695A",
") c #6F1B6C616A52",
"_ c #6F936D926A9F",
"` c #6F9D6E4E6A96",
"' c #70566D7F6A8A",
"] c #70606E646B89",
"[ c #7E967DB67B8A",
"{ c #7F367E347C06",
"} c #8F0A8E1C8BEF",
"| c #8FBA8F838D56",
/* pixels */
"IIIIIIIIIIIIIIIIIIIIII",
"PPPPPPPPPPPPPPPPPPPPPP",
"GGGGGGGGGGGGGGGGGGGGGG",
"DDDDDDDDDDDDDDDDDDDDDD",
"SSSSSSSSSSSSSSSSSSSSSS",
"BBBBBBBBBBBBBBBBBBBBBB",
"bbbbbbbbbvvvvbbbbbbbbb",
"kkkkkkkjs7:<7ahkkkkkkk",
"ggggggi2XX##o@4igggggg",
"ssssse* >qpa9:.-esssss",
"ttttw;o-N`!!'N-.;etttt",
"00002+oN)LKKL(MXO20000",
"5555:o&m~JJJJ~m&o-6555",
"55551$=M/JJJJ!m=%15555",
"55553,=V]LKKL(n=,35555",
"5555w033x(QQ_l339w5555",
"5555fAc50uczy08lCd5555",
"55558tH^YYWWYUTFu85555",
"555555eZE{}|[RZr555555",
"555555580ette085555555",
"5555555555555555555555",
"5555555555555555555555"
};
