/* XPM */
static char *stuckufcs[] = {
/* columns rows colors chars-per-pixel */
"22 22 152 2",
"   c #3E38348337A0",
".  c #3E2D35573739",
"X  c #3F6D34BC37F5",
"o  c #3EB536A83815",
"O  c #3F4A3664381E",
"+  c #40EE36513866",
"@  c #404C364B394C",
"#  c #4042379A392E",
"$  c #410536F938FB",
"%  c #4034381B3958",
"&  c #40D738E639F0",
"*  c #432438123B09",
"=  c #43E637EA3B0E",
"-  c #40643D4C3B3B",
";  c #413F3D4C3B3B",
":  c #42363E303B58",
">  c #43653B653C22",
",  c #44C438C63C86",
"<  c #4533394F3D2E",
"1  c #44643B813C98",
"2  c #457C3B8A3D87",
"3  c #43493E523D27",
"4  c #45253C673D81",
"5  c #44583D843D41",
"6  c #44433F313D49",
"7  c #47113C7B3ECB",
"8  c #450C3E863E0A",
"9  c #44283F2D3E0F",
"0  c #45503F4A3E3B",
"q  c #46B83F0B3EB6",
"w  c #46B73F133F11",
"e  c #47E13D2F3F23",
"r  c #456940733F58",
"t  c #45F43FEA3EEC",
"y  c #471B40233F2D",
"u  c #48A33D8A4090",
"i  c #480D3DC13FFC",
"p  c #494E3F524077",
"a  c #49A03E6A415E",
"s  c #494D3F5840DC",
"d  c #4A583F1A421D",
"f  c #474C40464030",
"g  c #4706420E4100",
"h  c #483F4122403E",
"j  c #485C413B4149",
"k  c #4A2D4069413F",
"l  c #4A2D41384141",
"z  c #488241E74183",
"x  c #495E424241A0",
"c  c #48A9433D41AA",
"v  c #4A5F415C4244",
"b  c #4AD341B742A9",
"n  c #49AF42BF41C7",
"m  c #482E432941F5",
"M  c #4A834250426D",
"N  c #4ADB42AF42BC",
"B  c #4A4942E942ED",
"V  c #4D104162431D",
"C  c #4A3644AA4330",
"Z  c #4E61426E446F",
"A  c #4AC844C243C9",
"S  c #4E5244564463",
"D  c #4E5644644555",
"F  c #4F55453D46DD",
"G  c #4D81468846AE",
"H  c #4E0A4708469F",
"J  c #4EFB470B470E",
"K  c #4EFB47F1470E",
"L  c #500744DD464C",
"P  c #5036443D4733",
"I  c #4FE645D54775",
"U  c #5151472E4749",
"Y  c #51A94696488A",
"T  c #51674748483D",
"R  c #515F46264918",
"E  c #522D47394848",
"W  c #51DA46E949DB",
"Q  c #523D4B4D4AD2",
"!  c #546248734A4A",
"~  c #546B49594B47",
"^  c #55BC49B74AD4",
"/  c #55654A434B65",
"(  c #561E4A264BC6",
")  c #530F4C284BAC",
"_  c #557C495F4C60",
"`  c #57704C9B4F82",
"'  c #54B24F9F4EA1",
"]  c #54F14F384E3E",
"[  c #583E4C3B4D59",
"{  c #583D4C3F4E51",
"}  c #59184D494EFF",
"|  c #564E4F5D4FD1",
" . c #59354D1B5000",
".. c #5A674E4C5041",
"X. c #5A774E5C5142",
"o. c #57C250D150C3",
"O. c #5807501250B2",
"+. c #580750D250B2",
"@. c #587851CA50DD",
"#. c #58BC5212510A",
"$. c #5D6C50725276",
"%. c #5E3451375345",
"&. c #5A1954135311",
"*. c #5BDB566054C8",
"=. c #5E2F5596568A",
"-. c #5FAD55435753",
";. c #6069534E5551",
":. c #600955435739",
">. c #636355555767",
",. c #636355555841",
"<. c #60AA5708585D",
"1. c #61E857265942",
"2. c #666357575A5B",
"3. c #609F58025860",
"4. c #645F5E565D58",
"5. c #654F5F445EA6",
"6. c #688359675D5D",
"7. c #696459675D63",
"8. c #6C5A5C4E606C",
"9. c #6C5E5C4E6142",
"0. c #6E505E40633B",
"q. c #677C61766075",
"w. c #68796369629F",
"e. c #6A83646F6475",
"r. c #6BA4658C64DD",
"t. c #713A67026777",
"y. c #71A8684267C8",
"u. c #720C67ED67F4",
"i. c #81E97CD77CBB",
"p. c #828A7D547D5B",
"a. c #91958BB88C73",
"s. c #92448D1F8D22",
"d. c #9C9D942D92D9",
"f. c #9F34939E9543",
"g. c #A0B193929536",
"h. c #A5FA9A2B99F7",
"j. c #A4CE9AA19A96",
"k. c #A7589A3E9C26",
"l. c #A92D9EF49D74",
"z. c #BFAAB2A8B067",
"x. c #C02FB62FB37A",
"c. c #C066B267B167",
"v. c #C0C2B3C7B184",
"b. c #C057B28BB2B7",
"n. c #C0B9B48BB284",
"m. c #C141B47EB266",
"M. c #C2A4B4BFB3D1",
"N. c #C29BB75BB49B",
"B. c #C8E8BB2FB9C2",
"V. c #C864BC14BAAB",
"C. c #C8E5BC73BAA2",
"Z. c #CA5FBD6EBB65",
/* pixels */
"0.0.0.0.0.0.0.0.0.0.0.0.0.0.0.0.0.0.0.0.0.0.",
"8.8.8.8.8.8.8.8.8.8.8.8.9.9.9.8.8.8.9.9.9.9.",
"6.6.6.6.7.7.7.7.7.7.7.7.7.7.7.7.7.7.7.7.7.7.",
"2.2.2.2.2.2.2.2.2.2.2.2.2.2.2.2.2.2.2.2.2.2.",
">.>.>.>.>.>.>.>.>.>.>.>.>.>.>.>.>.>.>.>.>.,.",
";.;.;.;.;.;.;.;.;.;.;.;.;.;.;.;.;.;.;.;.;.;.",
"$.$.$.$.$.$.$.$.%.$.$.$.$.%.%.%.%.%.%.%.%.%.",
"..............} / L a d P _  .X.X.X.X.X.X.X.",
"[ [ [ [ [ [ ^ V * * < < = , Z ( { { { { { { ",
"! ! ~ ~ ~ Y 7 X i W ` ` R u $ e Y ~ ~ ~ ~ ~ ",
"U U U T F 7 $ 4 -.f.b.b.g.:.2 + 7 I T T T E ",
"S S S S p @   1.k.M.c.c.M.h.<.  @ s D D D D ",
"v v v b 1 . o y.C.z.v.v.z.B.t.O . 1 N M M M ",
"l k k v 4 # # u.Z.z.n.n.v.V.t.% % 4 v v v v ",
"h h h h q > & 3.l.N.m.m.N.j.=.% > w j j j j ",
"f f f f B x 8 5 #.d.x.x.d.@.5 8 z B f f f f ",
"y y y y H o.) y n K +.O.J n h Q | G y y y y ",
"0 0 0 0 t C *.r.5.5.e.e.5.4.q.&.A t 0 0 0 0 ",
"6 6 6 6 6 6 c ] w.p.a.s.i.w.' c 6 6 6 6 6 6 ",
"3 3 3 3 3 3 3 9 r g m m g r 9 3 3 3 3 3 3 3 ",
": : : : : : : : : : : : : : : : : : : : : : ",
"- - ; ; - - - - - - - - - - - - - - - - - ; "
};
