/* XPM */
static char *stuckfcs[] = {
/* columns rows colors chars-per-pixel */
"22 22 106 2",
"   c #2B052A5D279E",
".  c #2C672BCB2970",
"X  c #2D032C4A2976",
"o  c #2D7A2D582A46",
"O  c #2E162D542A3D",
"+  c #2EB62DAD2AAC",
"@  c #2EAE2DB42AB3",
"#  c #2F292E662B51",
"$  c #2FAA2EA92BAF",
"%  c #30502F682C64",
"&  c #312E307C2D45",
"*  c #313230FB2D46",
"=  c #331B322C2EE2",
"-  c #33AD33492FAD",
";  c #33D332D12F8C",
":  c #33B132CB2FC5",
">  c #348D33EE3046",
",  c #351234113091",
"<  c #350E347C312A",
"1  c #354B350D314C",
"2  c #364F355A3192",
"3  c #356635433223",
"4  c #35EC34E131DC",
"5  c #366435F031F0",
"6  c #38E838133402",
"7  c #3A0239023506",
"8  c #3AB439BD3574",
"9  c #3C3F3B3E373A",
"0  c #3CC03BBE37B3",
"q  c #3C3F3B6637E4",
"w  c #3D043C073806",
"e  c #3D783C773904",
"r  c #3E603D60395F",
"t  c #3EDC3DAE39E8",
"y  c #3F2B3E2C3A4E",
"u  c #403A3F393B38",
"i  c #404C3F4D3C37",
"p  c #40933FF53BF0",
"a  c #413C40473C48",
"s  c #423241303D34",
"d  c #435042483D5F",
"f  c #421541123DF7",
"g  c #435542563E32",
"h  c #43A342A23F30",
"j  c #442E432C3F1F",
"k  c #44D043433FDC",
"l  c #463A45394050",
"z  c #46BD45BC41EA",
"x  c #46EB45EE41D7",
"c  c #4746467B434E",
"v  c #485647554334",
"b  c #487A47794403",
"n  c #4943484B44DD",
"m  c #4A57495F4473",
"M  c #4B344A33453D",
"N  c #4D5B4C4C4755",
"B  c #4D4F4C4E4946",
"V  c #4D724CE8490F",
"C  c #4EBB4DC14A37",
"Z  c #4EE54D394A77",
"A  c #4F084E554A48",
"S  c #50424E5C4A3C",
"D  c #525251434C5A",
"F  c #520B50C04D74",
"G  c #52BD51C24E21",
"H  c #546252D14F7C",
"J  c #547153704F4F",
"K  c #542953984FFB",
"L  c #55AC53D550B9",
"P  c #56D2554151A3",
"I  c #583B57495252",
"U  c #5A3C5A2D5528",
"Y  c #5D305C2B5920",
"T  c #5E905D8F5A8B",
"R  c #60E25FEC5CD7",
"E  c #62D261C95EEF",
"W  c #631F62D55F43",
"Q  c #647463746085",
"!  c #655B6458613E",
"~  c #68906580619A",
"^  c #683165E86212",
"/  c #690A66CF61F8",
"(  c #6948671362D4",
")  c #7E967DB67B8A",
"_  c #7F367E347C06",
"`  c #8F0A8E1C8BEF",
"'  c #8FBA8F838D56",
"]  c #9A9E97B5934E",
"[  c #9BCC9A1295AF",
"{  c #9D499A0695A3",
"}  c #A3D4A0689BA5",
"|  c #A419A1459BDA",
" . c #A583A1589D53",
".. c #A82FA4C69F44",
"X. c #C0ACBB9BB4A0",
"o. c #C163BB9AB557",
"O. c #C23DBCD1B562",
"+. c #C232BD72B79F",
"@. c #C295BD8FB68F",
"#. c #C2D5BE28B84D",
"$. c #C4FDC017B931",
"%. c #C523C036B95D",
"&. c #CB19C608BF9C",
"*. c #CBC4C5E5BFA0",
"=. c #CC77C734C081",
"-. c #CD1FC819C119",
/* pixels */
"U U U U U U U U U U U U U U U U U U U U U U ",
"I I I I I I I I I I I I I I I I I I I I I I ",
"J J J J J J J J J J J J J J J J J J J J J J ",
"D D D D D D D D D D D D D D D D D D D D D D ",
"S S S S S S S S S S S S S S S S S S S S S S ",
"N N N N N N N N N N N N N N N N N N N N N N ",
"M M M M M M M M M m m m m M M M M M M M M M ",
"v v v v v v v x g q < 3 q f z v v v v v v v ",
"l l l l l l d 6 o o % % O $ 8 d l l l l l l ",
"g g g g g u ;   1 i c c i 4 X > u g g g g g ",
"a a a a y , O - F [ #.#.{ F : X , u a a a a ",
"r r r r 6 @ . L  .%.@.@.%.| K . + 6 r r r r ",
"9 9 9 9 < O # / =.o.@.@.O.*.~ # O > 0 9 9 9 ",
"9 9 9 9 5 & & ( -.X.@.@.O.&.^ * * 5 9 9 9 9 ",
"9 9 9 9 7 2 = P ..$.@.@.$.} H = 2 7 9 9 9 9 ",
"9 9 9 9 y r 7 6 A ] +.+.] A 6 7 e y 9 9 9 9 ",
"9 9 9 9 j C n 9 t k C Z k t w b B h 9 9 9 9 ",
"9 9 9 9 w a K ! T T Q Q T Y R G s w 9 9 9 9 ",
"9 9 9 9 9 9 u V W _ ` ' ) E V p 9 9 9 9 9 9 ",
"9 9 9 9 9 9 9 w r u a a u r w 9 9 9 9 9 9 9 ",
"9 9 9 9 9 9 9 9 9 9 9 9 9 9 9 9 9 9 9 9 9 9 ",
"9 9 9 9 9 9 9 9 9 9 9 9 9 9 9 9 9 9 9 9 9 9 "
};
