/* XPM */
static char *closeufcs[] = {
/* columns rows colors chars-per-pixel */
"22 22 246 2",
"   c #A0D88EF78A4C",
".  c #A0D98EF78B0B",
"X  c #A37890CF8C03",
"o  c #A38490CF8CF7",
"O  c #A5A993B28E34",
"+  c #A6E294088F36",
"@  c #A725943C8FAB",
"#  c #A68A959991EE",
"$  c #A6D096B2913F",
"%  c #A6D695BC9239",
"&  c #AC0599149374",
"*  c #AC2499A9935A",
"=  c #AC379A4A9346",
"-  c #ACB099CC9440",
";  c #AE509BC89560",
":  c #AC6D9C0C971A",
">  c #ACC69CA49735",
",  c #A2709C2A9F0E",
"<  c #A2EC9CC89FB7",
"1  c #B0959D0696FE",
"2  c #B1649DFC9811",
"3  c #B0F29FC2994B",
"4  c #B1D09FFE999E",
"5  c #B2A99EB2989F",
"6  c #B29B9EFD994A",
"7  c #B2BE9FE89A24",
"8  c #B38D9FDF9AF2",
"9  c #B3C7A0A499AA",
"0  c #B304A0329A6D",
"q  c #B383A0AD9AE0",
"w  c #B3C6A0EC9B1F",
"e  c #B58DA2E29BF9",
"r  c #B6C5A3B49CB0",
"t  c #B79FA3B19CAA",
"y  c #B743A3859EAD",
"u  c #B696A7099FD8",
"i  c #B841A58C9D8D",
"p  c #A2EC9CC8A076",
"a  c #A6259E88A1F3",
"s  c #AAECA4A9A74F",
"d  c #B31FA50AA3E0",
"f  c #B358A474A388",
"g  c #B320A593A358",
"h  c #B4DBA6A9A0DC",
"j  c #B6C3A685A0C4",
"k  c #B90CA7BEA0BE",
"l  c #B9EDA7B5A0AE",
"z  c #B97BA719A1A0",
"x  c #BABEA7B5A0AE",
"c  c #B5A3A83FA2AA",
"v  c #B6C6A990A597",
"b  c #B9CAA97AA31F",
"n  c #B9E6A991A349",
"m  c #BC07AB65A491",
"M  c #BD6BAB79A72B",
"N  c #B97FAC5DA61B",
"B  c #B983AC63A706",
"V  c #BDDFAC9EA589",
"C  c #BEA6ACABA596",
"Z  c #B1A5A78BAA39",
"A  c #B1A5A86FAA6E",
"S  c #B28AAC6AAD54",
"D  c #B991ABEBAAE0",
"F  c #B8FEAC64AA3F",
"G  c #BA9CACA6AC79",
"H  c #BCA0B14DAF0A",
"J  c #B547AE48B058",
"K  c #B5D3AF6EB079",
"L  c #BB7FB091B22F",
"P  c #B9AFB118B2B6",
"I  c #BB7FB179B2F2",
"U  c #BA2DB336B3D9",
"Y  c #BF7DB30CB39A",
"T  c #BD65B395B583",
"R  c #BF8BB4ACB469",
"E  c #BF9AB7FEB88D",
"W  c #BF9AB7FEB974",
"Q  c #C09CB01FA979",
"!  c #C1AEB0E6A8F0",
"~  c #C1C0B19AA9AE",
"^  c #C1C1B15EAA58",
"/  c #C273B229AAB3",
"(  c #C3C6B32FAB58",
")  c #C07EB42DAE95",
"_  c #C4D2B5CCAEAD",
"`  c #C4C8B670AE9A",
"'  c #C5FAB7EAAFF2",
"]  c #C0E8B4E3B413",
"[  c #C20FB5EBB517",
"{  c #C1C3B622B620",
"}  c #C1FAB613B6E2",
"|  c #C1D1B69DB6AA",
" . c #C21CB7DEB653",
".. c #C34CB715B6E7",
"X. c #C2AFB7A8B688",
"o. c #C31EB68BB80F",
"O. c #C6EFB818B4A3",
"+. c #C2D7B9AEB755",
"@. c #C396B9AEB764",
"#. c #C315BA59B646",
"$. c #C40FBA63B651",
"%. c #C37BBA90B816",
"&. c #C516BB61B4C0",
"*. c #C525BBFBB565",
"=. c #C8B4BAB4B3B6",
"-. c #C92ABB50B419",
";. c #C8C4B8F9B457",
":. c #C9B8BB31B4FA",
">. c #CBE4BECEB6DD",
",. c #CC9BBF67B76D",
"<. c #C3E8B8EDB8ED",
"1. c #C403B9B3B9D6",
"2. c #C42BBA89B908",
"3. c #C42EBA14BA45",
"4. c #C1EABA60BA4D",
"5. c #C2EBBBB6BBA0",
"6. c #C5EDBA0BB9B7",
"7. c #C5EDBADEB977",
"8. c #C489B9E5BA8B",
"9. c #C5ECB99ABB8C",
"0. c #C644BB31BB1D",
"q. c #C644BB3FBB14",
"w. c #C5AFBB65BBAB",
"e. c #C6A2BC8EBC13",
"r. c #C6F2BFB1BBBF",
"t. c #C5BBBB9BBC41",
"y. c #C729BBCCBCEB",
"u. c #C5C3BD26BC7F",
"i. c #C6F2BC77BC72",
"p. c #C6FEBDE0BCEA",
"a. c #C6EABE02BDBB",
"s. c #C74CBE33BE34",
"d. c #C707BEB7BD2C",
"f. c #C79FBEACBE9C",
"g. c #C9E7BEE7B8AE",
"h. c #CBE9BEF1B8CF",
"j. c #CBE8BFB6B994",
"k. c #C85EBF1ABB10",
"l. c #CC5BBF46B83B",
"z. c #C8EAC038BFD7",
"x. c #C6F8C0A4BC22",
"c. c #CF63C07AB95B",
"v. c #CECEC1DCBABA",
"b. c #C91FC1ECBC95",
"n. c #C8FEC105C01A",
"m. c #C99AC0AEC03A",
"M. c #C8F9C163C029",
"N. c #CAA2C3C6BFB1",
"B. c #D0D9C4C3BDCB",
"V. c #D1C2C4F9BDE4",
"C. c #D318C623C027",
"Z. c #D3EFC6AFBFA8",
"A. c #DEE0D3D8BED6",
"S. c #DEE8D4D2BDDB",
"D. c #DF85D4A0BF21",
"F. c #C812C0ECC0EA",
"G. c #C990C0CCC098",
"H. c #C911C190C0D1",
"J. c #CA15C214C11A",
"K. c #C8BAC0D1C1C4",
"L. c #C9EBC1F5C1BF",
"P. c #CA04C2E3C0ED",
"I. c #CA0FC31BC1E3",
"U. c #CA7FC285C220",
"Y. c #CA9DC38EC321",
"T. c #CB43C4F2C14F",
"R. c #CA9BC446C2F6",
"E. c #CA9BC446C3E6",
"W. c #CC12C60BC511",
"Q. c #CC9AC5DEC4CB",
"!. c #CDDCC756C56F",
"~. c #CFF5C920C453",
"^. c #CE67C860C786",
"/. c #CEF5C985C788",
"(. c #D00FC965C85F",
"). c #D00CCAECC8F2",
"_. c #D17DC430C120",
"`. c #D323C564C338",
"'. c #D3C1C56FC33B",
"]. c #D3DEC57DC353",
"[. c #D465C61DC3FA",
"{. c #D5E3C81CC407",
"}. c #D3F0C6D4C7E4",
"|. c #D4DDC6DEC4FD",
" X c #D4EDC6D4C5C7",
".X c #D5C0C6E7C5E5",
"XX c #D4F8C7E4C5D3",
"oX c #D5B0C7ABC5C2",
"OX c #D4E1C6DEC7F4",
"+X c #D4E7C7A2C7E9",
"@X c #D3CDC893C06B",
"#X c #D5BCC9C5C2BF",
"$X c #D653CA6EC2B8",
"%X c #D1BAC9ADC52D",
"&X c #D45FCA78C4F3",
"*X c #D5E5CAF8C4DD",
"=X c #D66CCAFBC4F2",
"-X c #D7F7CBC1C4D1",
";X c #D743CA01C6F6",
":X c #D7CBCAD0C6BE",
">X c #D6E9CA9FC79C",
",X c #D799CA99C796",
"<X c #D497CCF1C6B1",
"1X c #D988CE74C2A6",
"2X c #D8BCCCADC6B5",
"3X c #D982CE77C6C6",
"4X c #D8F3CECDC7C6",
"5X c #D4F0C7B0C8CD",
"6X c #D4C5C7B8CC80",
"7X c #D5C3C7C0CC81",
"8X c #D38DCD67C876",
"9X c #D136CBF7CC76",
"0X c #DDE1D2D5C0FF",
"qX c #DED0D2E0C0A4",
"wX c #DC9BD190C2D4",
"eX c #DF85D467C319",
"rX c #DD9ED356C66F",
"tX c #DF55D721CBEB",
"yX c #D96CD2ABCCE9",
"uX c #DDC1D3D1CCA8",
"iX c #DDD9D3EBCD91",
"pX c #DF2AD62CD0F3",
"aX c #DF3AD653D1AA",
"sX c #E0ACD627C189",
"dX c #E33CD8D4C81D",
"fX c #E498DADFCAE7",
"gX c #E25FD969CE1F",
"hX c #E0FDD8D8D1DF",
"jX c #E126D97AD1E7",
"kX c #E1BCD9CCD2A7",
"lX c #E174DA60D4C8",
"zX c #E1B6DAC8D567",
"xX c #E52DDC95D562",
"cX c #E7D3DF2BD502",
"vX c #E604DD2FD7EA",
"bX c #E5E5DDDDD7C9",
"nX c #E8E3E141D5B2",
"mX c #E7BEE096DA1C",
"MX c #E81EE122DAF0",
"NX c #EB4AE4BADB2C",
"BX c #EAC8E2E6DCC8",
"VX c #EC0CE600DF0F",
"CX c #EC49E70FDE87",
"ZX c #EC4AE711E028",
"AX c #ECF9E7DDE00E",
"SX c #EDBDE7A8E0A2",
/* pixels */
"6X6X7X7X7X7X7X7X7X7X7X7X7X7X7X7X7X7X7X7X7X7X",
"}.}.OX+X+X+X+X+X+XOXOX+X+XOXOX+X+X+XOXOXOX5X",
"|.|.|.|.|.|.|.|.|. X.XoXoX.X.XoXoX|. X X X.X",
"XXXXXXoXoXoX|.[.].].'.'.].].`.`.'.'.'.'.'.'.",
",X>X,X,X;X_.O.M y 8 6 6 7 0 7 q w w w q 0 w ",
":X:X:X{.;.z 2 - @ o .   X + & 1 5 5 5 5 5 5 ",
"2X2XC.Q e ; O # f G Y Y G f # O ; 9 9 9 9 9 ",
"2X=X/ i * % d { ..[ ] ] [ ..{ g $ = r r r t ",
"-X:.m 3 : D 9.o.} } } | } } o.9.D : 4 k l x ",
"Z.^ b > F t.8.<.3.1.<.<.1.3.<.8.w.F > n V C ",
"c.( u v X.y.6.R Z L 6.7.I A R 7.e.X.v j ! ~ ",
",.' h H e.i.0.w.P a T T a P w.q.i.e.H h ` _ ",
">.-.c  .m.p.p.p.u.U , , U u.p.p.p.m. .c =.=.",
"v.l.N %.L.s.p.p.a.W p < E s.a.d.d.J.2.B h.j.",
"@XV.) +.G.G.f.z.4.s J J s 4.z.f.G.G.@.) V.B.",
"1X$Xg.#.M.Y.H.5.S K K.K.K S 5.H.Y.M.$.g.#X#X",
"wX3X*X&.r.Q.U.H.F.L.n.n.L.F.H.U.Q.x.*.*X4X4X",
"0XrXuX&Xk.P.^.R.P.P.P.P.P.I.E.^.P.k.&XiXuXuX",
"0X0XtXjX<Xb.T.)./.!.W.W.!./.).T.b.<XkXjXhXhX",
"qXqXeXgXxXpX%XN.!.(.9X9X(.!.N.%XaXvXvXvXbXbX",
"A.A.A.D.dXcXmXlXyX8X~.~.8XyXzXMXBXBXBXBXBXBX",
"S.S.S.S.S.sXfXnXNXCXVXVXZXAXAXSXSXSXSXSXSXSX"
};
