/* XPM */
static char *maxfcs[] = {
/* columns rows colors chars-per-pixel */
"22 22 205 2",
"   c #8967884B8803",
".  c #89728862880E",
"X  c #931792099041",
"o  c #926B91EF9136",
"O  c #931792AE90E7",
"+  c #994C986F9789",
"@  c #9A9F991E9739",
"#  c #A6B3A5A2A3F8",
"$  c #B601B3AEAECC",
"%  c #BAD2B788B001",
"&  c #BFF8BAFFB360",
"*  c #BB4AB961B836",
"=  c #BC01BAD0B8EE",
"-  c #BFFDBDFDBB11",
";  c #C7D1BBC7ABB9",
":  c #C812BC10AC92",
">  c #C831BC59AC7B",
",  c #C88DBCA5ACEB",
"<  c #C8FDBD37AD5D",
"1  c #C90BBDABAE19",
"2  c #C9B5BDD0ADD9",
"3  c #C9A7BDEDAE56",
"4  c #C8FFBDE5AF6D",
"5  c #CA0DBE82AE93",
"6  c #C9A0BF00AFA8",
"7  c #CAF6BEB0AEF8",
"8  c #CAF1BF4BB00D",
"9  c #CB4BC061B10D",
"0  c #CB72C09DB13A",
"q  c #CC1BC185B1BC",
"w  c #CCCCC0CEB1B1",
"e  c #CD24C35DB5E6",
"r  c #CF14C35FB449",
"t  c #CE6AC46CB44A",
"y  c #CFDEC4EEB4FA",
"u  c #CFCFC4BEB5BD",
"i  c #CF93C492B645",
"p  c #CF04C4DFB7A3",
"a  c #C3E1C0AFB934",
"s  c #C3E1C0AFB940",
"d  c #C65BC158B963",
"f  c #CD22C58CB932",
"g  c #CE2CC5C9B876",
"h  c #CD34C577BB0E",
"j  c #CCB3C60DBB48",
"k  c #CA2DC633BEDF",
"l  c #CC8EC6E9BDC0",
"z  c #CED3C96CBF0F",
"x  c #D089C7BAB9C9",
"c  c #D2D0C802B9E8",
"v  c #D2FBC876B858",
"b  c #D3E8CA23B982",
"n  c #D2D2C8B1BAA3",
"m  c #D450C989BA8D",
"M  c #D4C9C96EB928",
"N  c #D1DDC8F3BCBC",
"B  c #D074C8FEBEBF",
"V  c #D5D5CBE2BEBD",
"C  c #D643CC67BCA4",
"Z  c #D5D1CC8CBEAF",
"A  c #D66FCD2ABEB5",
"S  c #D9DBCFE8BEE7",
"D  c #DA28D146BF92",
"F  c #DC97D2A0BED3",
"G  c #E0E6D6DABAC9",
"H  c #E116D72BBB7D",
"J  c #E1E3D725BD26",
"K  c #E1CCD7C9BCC4",
"L  c #C84BC604C17F",
"P  c #C9FFC759C0F3",
"I  c #C84BC667C1E1",
"U  c #CE66CB26C2FF",
"Y  c #CE86CB46C34D",
"T  c #CDE1CAD6C67D",
"R  c #CDD4CB83C870",
"E  c #D40ACDFEC0F9",
"W  c #D472CE79C524",
"Q  c #D649CFE7C5F6",
"!  c #D663D016C5DD",
"~  c #D8E2CFD0C2B3",
"^  c #D6B0D1A7C734",
"/  c #D9F8D0D3C1D9",
"(  c #DACCD406C587",
")  c #DBE5D21DC6AA",
"_  c #DBDBD3B3C6D4",
"`  c #DCD2D2F2C5A6",
"'  c #DFBAD78DC6D2",
"]  c #D76DD1F8C993",
"[  c #D850D510CDB9",
"{  c #D9FED1FDC8BF",
"}  c #DEF7D61DCA33",
"|  c #DED5D601CAF3",
" . c #DEDED6DACBB4",
".. c #DBDDD5A3CC8F",
"X. c #DBFFD664CD25",
"o. c #DFDED98ACBD0",
"O. c #DF3BDB5DD250",
"+. c #DF95DBCAD325",
"@. c #DC87DA09D6A5",
"#. c #E0A7D7DBC77D",
"$. c #E1E1D8F3C088",
"%. c #E33CDA00C1DB",
"&. c #E3D0DA7CC182",
"*. c #E162D922C379",
"=. c #E0EAD8DDC5E0",
"-. c #E1CBD9EBCA6B",
";. c #E4EDDBCEC9C2",
":. c #E72FE00ACB81",
">. c #E1B4DA79CE36",
",. c #E1DDDAD0CFC6",
"<. c #E3EFDCEDCF18",
"1. c #E6DADFE2CDBF",
"2. c #E498DD91CF92",
"3. c #E147DB2CD105",
"4. c #E0F0DB8AD2B9",
"5. c #E2CEDC2CD40F",
"6. c #E453DDABD055",
"7. c #E15ADCDBD428",
"8. c #E4F1DECFD3D2",
"9. c #E720E035D42D",
"0. c #E180DCF6D470",
"q. c #E3C0DD9CD4F4",
"w. c #E367DE7BD686",
"e. c #E46DDF16D575",
"r. c #E796E036D588",
"t. c #E494DE76D69E",
"y. c #E8E6E0E2CBF3",
"u. c #E91BE17CCD95",
"i. c #E972E25CCE7B",
"p. c #E7DEE0E7D4CC",
"a. c #E848E165D7FE",
"s. c #E853E2C7D7D1",
"d. c #E88DE144D1D7",
"f. c #EBD0E4C8D0B7",
"g. c #EA70E35BD4D9",
"h. c #E8DAE1EFD7D7",
"j. c #EDEDE7D8D4D4",
"k. c #ECF4E651D73C",
"l. c #EED1E80CD716",
"z. c #E654E168DAB8",
"x. c #E8A3E38BDC00",
"c. c #EAF6E4EED9E2",
"v. c #EB36E530DB4C",
"b. c #EA99E5ADDBE0",
"n. c #EBCBE5DEDC01",
"m. c #EBE9E699DBEE",
"M. c #ED86E84AD948",
"N. c #EBAAE6BADCD7",
"B. c #EACCE733DE97",
"V. c #EBC9E791DEC3",
"C. c #EC3DE83BDFDE",
"Z. c #ECEAE7C6DDE7",
"A. c #ED3FE899DC5A",
"S. c #EE00E903DEF8",
"D. c #ECFAE88CDFA0",
"F. c #EE07E8F2DFF9",
"G. c #F0C6EABED9B0",
"H. c #F0A9EB4FDC41",
"J. c #F130EBE4DCDE",
"K. c #F246EC2FDD0C",
"L. c #F223ED05DDFE",
"P. c #F2D3ECDADDAE",
"I. c #F305EDFFDEFF",
"U. c #E7B7E510E313",
"Y. c #EEF1E9E2E0D7",
"T. c #EF44EB92E07A",
"R. c #EEE0EADAE207",
"E. c #ED51EA0BE33E",
"W. c #F039EC4CE44F",
"Q. c #F013ECEDE424",
"!. c #EFAAEBCBE5D6",
"~. c #F014ECEEE4F6",
"^. c #F0DCECCAE3DE",
"/. c #F08FEC01E758",
"(. c #F113EC96E48E",
"). c #F1F3ECFBE4E5",
"_. c #F162EDA6E5A2",
"`. c #F112ED74E74C",
"'. c #F37AEF76E763",
"]. c #F146EDBCE99D",
"[. c #F456F059EA00",
"{. c #F502F0FEE31B",
"}. c #F4BFF0AFE8A6",
"|. c #F814F511EB23",
" X c #F4C6F15EEC6C",
".X c #F5A8F2A4EEB2",
"XX c #F61AF39DEFC1",
"oX c #F7C4F3DFEFE0",
"OX c #F804F570F189",
"+X c #F86AF669F38F",
"@X c #F875F67FF39A",
"#X c #F95AF563F142",
"$X c #F890F59EF2C3",
"%X c #F9C0F6C0F30F",
"&X c #FA89F781F3A5",
"*X c #FB01F80DF4F9",
"=X c #FB13F906F621",
"-X c #FBB9F8D9F5E6",
";X c #FC0EFA01F713",
":X c #FCB0FA9FF641",
">X c #FCC7FA1DF811",
",X c #FC9AFB4BF80C",
"<X c #FCEFFAF9F8D9",
"1X c #FD14FBEAF8C5",
"2X c #FDA2FC83F98D",
/* pixels */
":X:X:X:X:X:X:X:X:X:X:X:X:X:X:X:X:X:X:X:X:X:X",
"|.|.|.|.|.|.|.|.|.|.|.|.|.|.|.|.|.|.|.|.|.|.",
"{.{.{.{.{.{.{.{.{.{.{.{.{.{.{.{.{.{.{.{.{.{.",
"H.H.H.H.H.H.H.H.H.H.H.H.H.J.J.L.I.I.I.I.I.I.",
"5 5 5 5 5 5 5 5 5 5 5 5 8 r C -.k.K.P.P.P.P.",
"; ; ; ; ; ; ; > 1 5 6 6 5 3 < , y #.l.G.G.G.",
"; ; ; ; ; : 4 N q.E.XXXXE.q.N 4 , 2 b 1.j.j.",
"2 2 2 2 1 p 5.OX,X1X2X2X1X,XOX5.p 1 7 M i.f.",
"w w q 0 x x.>X<X<X<X<X<X<X<X<X>Xx.x 9 t D y.",
"u u i e t.%X;X;X;X=X+X@X=X;X;X;X%Xt.e i v *.",
"n c p { /.-X*X*X$XU.* = U.$X*X*X-X/.{ p m F ",
"V Z g 4. X&X%X.X@.#   . # @..X%X&X X4.g A S ",
"~ ~ f z.oX#X].R + o - - o + R ].#XoXz.f ~ / ",
"_ ) h w.[.`.L X @ T !.!.T @ O I `.[.w.h ) ` ",
" .| B X.D.B.P $ [ R.^.^.R.[ $ P B.D.X.B } ' ",
",.,.! W e.S.N.b.Z.S.S.S.S.Z.b.N.S.e.W ! >.=.",
"8.8.3.l ^ s.c.c.c.c.c.c.c.c.c.c.s.^ l 3.6.$.",
"h.h.a...l Q 9.p.p.p.p.p.p.p.p.9.Q l ..r.;.H ",
"n.n.m.n.] d z o.<.<.2.2.<.<.o.z d ] v.d.J G ",
"Y.Y.Y.Y.F.0.k & j E ( ( E j & k 7.Z.g.%.G G ",
").).).).).(.C.+.Y s % % a U O.V.A.:.K G G G ",
"}.}.}.}.}.}.}.'._.~.W.W.Q.T.M.u.&.H G G G G "
};
