/* XPM */
static char *maxpr[] = {
/* columns rows colors chars-per-pixel */
"22 22 203 2",
"   c #A1C89EF08FDD",
".  c #A959A6979902",
"X  c #AA51A75298E9",
"o  c #AEF9AC0F9EC1",
"O  c #AF80ACFB9F53",
"+  c #B940B65CAAF9",
"@  c #C7D4BBC9ABBA",
"#  c #C7D5BC79AC91",
"$  c #C9D7BDCCADCA",
"%  c #C891BDEAAF3B",
"&  c #CA23BE92AE93",
"*  c #CAABC01FB123",
"=  c #C442C1D8B828",
"-  c #C44DC1E3B828",
";  c #C8CDC0CDB355",
":  c #CCCDC0E3B1CD",
">  c #CB94C31CB5ED",
",  c #CFD0C4E0B5EA",
"<  c #C749C571BC20",
"1  c #C9FDC415B979",
"2  c #CBDEC631BB91",
"3  c #CBC9C651BB58",
"4  c #CFDCC74DB937",
"5  c #CC63C62FBA64",
"6  c #CE4DC797BB8F",
"7  c #C8C4C6D8BE16",
"8  c #CA9AC6ABBCC9",
"9  c #CB99C7CFBDFD",
"0  c #C97CC790BECE",
"q  c #CD07C717BCC3",
"w  c #CA6FC87EBF81",
"e  c #CD33C879BDC0",
"r  c #CDFAC93FBF49",
"t  c #D2DCC8EABAF9",
"y  c #D309CB0CBBD7",
"u  c #D4DCCA45BA12",
"i  c #D0E5CA01BCA0",
"p  c #D09CCA7EBE1D",
"a  c #D093CB0EBF73",
"s  c #D495CC36BC51",
"d  c #D5E7CC25BF31",
"f  c #D9EFD02CBF5B",
"g  c #DA29D16FBFC9",
"h  c #DCA1D2D9BF29",
"j  c #E0E6D6DABAC9",
"k  c #E116D72ABB7C",
"l  c #E1E3D726BD27",
"z  c #E1CCD7D2BCD5",
"x  c #CB9FC91CC0F4",
"c  c #CC29C9DDC1AA",
"v  c #CBA8CA89C22E",
"b  c #CDF4C9F6C169",
"n  c #CCF2CAF4C2B1",
"m  c #CD64CB3EC337",
"M  c #CD4ACB46C345",
"N  c #CE04CBF4C3B5",
"B  c #CF04CC03C330",
"V  c #CF2CCC40C35D",
"C  c #CE53CC70C46E",
"Z  c #CECACDC4C555",
"A  c #D3ADCD0EC187",
"S  c #D52DCE95C22B",
"D  c #D1F1CE7DC5CE",
"F  c #D2A3CFD3C7E4",
"G  c #D8EAD024C350",
"H  c #D1A3CFB0C89F",
"J  c #D75FD059C3C4",
"K  c #DA0CD129C266",
"L  c #DBE6D409C751",
"P  c #DCDDD348C623",
"I  c #DFC3D7C8C73B",
"U  c #D2CCD106C8FF",
"Y  c #D28FD123C98F",
"T  c #D2C8D164C9DB",
"R  c #D36AD17FCA47",
"E  c #D33AD168CA90",
"W  c #D37BD1D7CB1A",
"Q  c #D7CBD2E6C8F8",
"!  c #D49ED347CBD5",
"~  c #D579D3D5CC3C",
"^  c #D4EDD3E0CC9A",
"/  c #D5A0D3FECCF0",
"(  c #D699D49ACE0E",
")  c #D5FCD502CE7F",
"_  c #D6CED52BCED2",
"`  c #DEE8D715CC1D",
"'  c #DAA9D782CF31",
"]  c #DA7DD759CF55",
"[  c #D8C1D7C0D104",
"{  c #D911D816D1B7",
"}  c #DA72D8D0D1BC",
"|  c #DA7ED90BD2F4",
" . c #DCCFD9ADD1CA",
".. c #DFC4DB40D3E5",
"X. c #DBBADA48D47F",
"o. c #DC0EDB09D4D1",
"O. c #DCDBDB9DD5EC",
"+. c #DD72DC71D717",
"@. c #DE37DD28D7B9",
"#. c #DF41DD11D734",
"$. c #DF6ADE7DD91E",
"%. c #E1E2D8FEC0A5",
"&. c #E33CD9FAC1DB",
"*. c #E3CFDA81C18B",
"=. c #E162D93FC3A0",
"-. c #E0F2D903C624",
";. c #E0B5D899C85E",
":. c #E4EDDBDCC9EA",
">. c #E72CE01FCBB0",
",. c #E24FDB23CD13",
"<. c #E1EADB00D012",
"1. c #E6D5DFDDCDB3",
"2. c #E285DDDCD436",
"3. c #E460DEA0D2F7",
"4. c #E4F3DEDBD3F1",
"5. c #E2ABDE2AD5BD",
"6. c #E4FDDFC3D673",
"7. c #E8E6E0E3CBF5",
"8. c #E92BE20DCF1E",
"9. c #E972E25DCE7C",
"0. c #E88BE159D2AD",
"q. c #EBD0E4C8D0B7",
"w. c #EA6DE411D649",
"e. c #E8DAE1F6D7EC",
"r. c #EDEDE7D8D4D4",
"t. c #ECF9E686D77C",
"y. c #EEDAE81FD72F",
"u. c #E1BCE0F4DBE0",
"i. c #E2C6E0D1DBA0",
"p. c #E794E336DAF4",
"a. c #E349E1CFDD2A",
"s. c #E3A7E240DDF5",
"d. c #E34EE2F7DE57",
"f. c #E450E355DE18",
"g. c #E434E3E8DF02",
"h. c #E476E371DE5E",
"j. c #E846E466DD69",
"k. c #E4B6E499DFA2",
"l. c #E577E4B0E034",
"z. c #EBEBE5E5DBE9",
"x. c #EBE8E6AEDCC4",
"c. c #ED71E99DDD6E",
"v. c #ED56E9C1DEF6",
"b. c #F0C5EABDD9B0",
"n. c #F0AAEB50DC42",
"m. c #F0DDEBDEDD1E",
"M. c #F245EC33DD0D",
"N. c #F178EC5FDD7F",
"B. c #F229ED0EDE19",
"V. c #F2D3ECDADDAE",
"C. c #F305EDFFDEFE",
"Z. c #E604E52FE0DB",
"A. c #E736E63DE238",
"S. c #E7E2E6ECE2E9",
"D. c #E85DE76BE36C",
"F. c #E939E839E4B9",
"G. c #EB2DE887E25F",
"H. c #EB80E929E342",
"J. c #EEEEE9DDE0D2",
"K. c #EEF7EAA3E258",
"L. c #ED65EABAE44A",
"P. c #E9A3E92CE594",
"I. c #EB0FEA04E6DD",
"U. c #EC33EB26E7EA",
"Y. c #ECDCEB10E637",
"T. c #EE19EBD2E61C",
"R. c #ED4FEBBAE74C",
"E. c #EF0AED48E612",
"W. c #EC21EB37E88A",
"Q. c #ED01EC00E8E0",
"!. c #EDE0ECE4EA02",
"~. c #EE41EE04EB23",
"^. c #EF4FEE50EC01",
"/. c #EFECEFC6ECC9",
"(. c #F1F3ED01E4F1",
"). c #F12BEDBEE72A",
"_. c #F09DEFAFEABC",
"`. c #F1E9F01FEB3F",
"'. c #F09EEFB1EB8E",
"]. c #F0C9F01FEDCB",
"[. c #F502F0FEE31B",
"{. c #F3B5F119EAD9",
"}. c #F4C6F0B5E8AF",
"|. c #F49BF118E9A0",
" X c #F814F511EB23",
".X c #F154F0E8EEF7",
"XX c #F372F373F142",
"oX c #F46CF468F2B8",
"OX c #F569F561F3B2",
"+X c #F659F560F3ED",
"@X c #F678F61FF4CF",
"#X c #F73FF73BF64C",
"$X c #F82FF804F6A2",
"%X c #F870F87AF70E",
"&X c #F8F3F8EEF7F3",
"*X c #FCB0FA9FF641",
"=X c #F965F966F879",
"-X c #FA16FA13F908",
";X c #FAEFFAF1F9FB",
":X c #FB2DFB2DFABC",
">X c #FBE6FBE4FB10",
",X c #FC2EFC2CFBF7",
"<X c #FCAFFCA1FC84",
/* pixels */
"*X*X*X*X*X*X*X*X*X*X*X*X*X*X*X*X*X*X*X*X*X*X",
" X X X X X X X X X X X X X X X X X X X X X X",
"[.[.[.[.[.[.[.[.[.[.[.[.[.[.[.[.[.[.[.[.[.[.",
"n.n.n.n.n.n.n.m.m.m.m.m.m.m.N.B.C.C.C.C.C.C.",
"& & & & & & * > 5 e b b r a J ,.t.M.V.V.V.V.",
"@ @ @ @ # ; 8 c n N N N N m n 9 i ;.y.b.b.b.",
"@ @ @ % 1 x M / l.~.+X+X~.l./ M x 3 s 1.r.r.",
"$ $ & 2 n Y g.#X>X,X<X<X,X>X#Xg.Y n q u 9.q.",
": : 6 V ! P.:X>X>X>X>X>X>X>X>X:XP.! B p g 7.",
", 4 D H Z.%X:X;X;X-X$X$X-X;X;X:X%XZ.H D y =.",
"t A F O.].;X-X-X$XI.7 0 I.$X-X-X;X].O.F S h ",
"d Q U d.oX=X&XOXu.+     + u.OX&X=XoXd.U Q f ",
"G ] Y D.@X#X.X_ o . v v . o _ .X#X@XD.Y ' K ",
"L  .U Z.XX.XY . O ) /./.) O X Y .XXXZ.U  .P ",
"` ..~ $.!.W.E = @.^.].].^.@.- E W.!.$.^ ..I ",
"<.5.} { Z.!.U.I.Q.!.!.!.!.Q.I.U.!.Z.{ } 2.-.",
"4.6.i.W X.F.I.I.I.I.I.I.I.I.I.I.F.X.W i.3.%.",
"e.e.j.#.R | A.S.S.S.S.S.S.S.S.A.| R #.p.:.k ",
"z.z.x.H.o.Z ^ u.g.g.k.k.g.g.u.^ Z o.G.0.l j ",
"J.J.J.K.T.h.T w T [ +.+.[ T w T f.L.w.&.j j ",
"(.(.(.(.(.).R.s.( C < < C ( a.Y.v.>.z j j j ",
"}.}.}.}.}.}.|.{.`.'././._.E.c.8.*.k j j j j "
};
