/* XPM */
static char *maxufcs[] = {
/* columns rows colors chars-per-pixel */
"22 22 236 2",
"   c #A0D88FEA8B1D",
".  c #A37891C28CEF",
"X  c #A5B594528E42",
"o  c #A69A94A88EBE",
"O  c #A6E194EF8F69",
"+  c #A722952F8FB7",
"@  c #A68A959C91FD",
"#  c #A7B496B89238",
"$  c #AC0F9A02937A",
"%  c #AD259A5C93CB",
"&  c #ACAF9AB6943B",
"*  c #AE469CAB9545",
"=  c #ACFA9CE59728",
"-  c #AD0E9D989736",
";  c #AF5E9CDC9668",
":  c #A41E9CC99F7D",
">  c #A4269CC99F7D",
",  c #B09B9DF99704",
"<  c #B1859EEF9822",
"1  c #B2AF9FA498A6",
"2  c #B2909F0B9951",
"3  c #B2C69FEC9A8F",
"4  c #B20BA0D39980",
"5  c #B3DBA19199B4",
"6  c #B305A04A9A80",
"7  c #B3AFA0D39AE4",
"8  c #B3C1A0F69B21",
"9  c #B4A1A17F9A9A",
"0  c #B554A2AF9BB1",
"q  c #B7ADA3CC9CBD",
"w  c #B65CA3989EB1",
"e  c #B7EBA4949D80",
"r  c #B82CA61D9F46",
"t  c #A9BAA1F3A51E",
"y  c #ACF0A62BA910",
"u  c #AD98A6D1A90B",
"i  c #AF73A77FA9DD",
"p  c #AE8BA7E1AA63",
"a  c #B358A4B5A398",
"s  c #B4E8A7A3A0F8",
"d  c #B59CA793A0E3",
"f  c #B6C6A73EA0E5",
"g  c #B3FBA595A445",
"h  c #B5B7A854A2E9",
"j  c #B675A851A2B6",
"k  c #B6CDA9C7A5B4",
"l  c #BA15A8A3A0F4",
"z  c #BAC8A89AA1A1",
"x  c #BAE0A9AAA382",
"c  c #BABCAA68A329",
"v  c #BBCAAAEDA32E",
"b  c #BC7FAAF7A69B",
"n  c #BA70AC63A70B",
"m  c #BE07AD3EA6A8",
"M  c #BEAFACB3A690",
"N  c #B5ABAD3CAF4B",
"B  c #B987AC76AA43",
"V  c #B987AD63AA43",
"C  c #BA59ACDBAAE7",
"Z  c #BFE3AF2AA856",
"A  c #BAA2AD99AC8E",
"S  c #BCC8B234AF0B",
"D  c #BF7EB3FFB3AF",
"F  c #BDA4B3B4B4B4",
"G  c #C004B7AFB8D1",
"H  c #BFEAB8B0B91F",
"J  c #C1BAB0F5A9E2",
"K  c #C1E9B158A96C",
"L  c #C1C1B1A9AAA1",
"P  c #C35EB2D1AB81",
"I  c #C08FB42CAE9E",
"U  c #C095B4E5AEA0",
"Y  c #C4D2B6B0AECA",
"T  c #C4C8B754AEB6",
"R  c #C56AB819AF68",
"E  c #C64BB6DBB128",
"W  c #C6CDB766B061",
"Q  c #C695B614B289",
"!  c #C0FBB4F8B4F7",
"~  c #C21DB607B5FB",
"^  c #C2E1B607B5FB",
"/  c #C1CAB62CB707",
"(  c #C226B7F6B64B",
")  c #C2DAB6C4B6E2",
"_  c #C2A1B7FCB6A1",
"`  c #C35AB726B7CB",
"'  c #C40FB76AB810",
"]  c #C44EB731B7D7",
"[  c #C39AB9B8B759",
"{  c #C40FBA6EB653",
"}  c #C39ABAA8B759",
"|  c #C525BC46B587",
" . c #C8E9BAECB3B8",
".. c #C8E6BBADB39E",
"X. c #C9E8BBF6B413",
"o. c #C8C2BAC2B49A",
"O. c #CC70BD79B579",
"+. c #C0F5B812B8D1",
"@. c #C1EDB90DB949",
"#. c #C1AAB946BA39",
"$. c #C2AAB950B9ED",
"%. c #C3A8BAB4BA8A",
"&. c #C4B1B8A8B8BE",
"*. c #C4B2B9A0B8B5",
"=. c #C4B4B8D8B9B4",
"-. c #C4A6B9C7B9A3",
";. c #C46FBB2FB85C",
":. c #C471BB3EB85C",
">. c #C542BA4BBA08",
",. c #C573B9F9BA9C",
"<. c #C573BA4DBA9C",
"1. c #C5F4BBA6BAB8",
"2. c #C6EFBA86BB97",
"3. c #C6B9BCA2BBB9",
"4. c #C65ABD61BC25",
"5. c #C41ABBEABCE4",
"6. c #C6AFBBEEBC41",
"7. c #C5B4BDEBBDF4",
"8. c #C748BCDBBCEC",
"9. c #C716BDC9BCCF",
"0. c #C7F1BEEFBE8B",
"q. c #C7EBBFC3BED5",
"w. c #CA41BEFDB8B4",
"e. c #C85EBF21BB1A",
"r. c #CCE1BF06B8E8",
"t. c #CCCDBFB6B9A2",
"y. c #C866BEE1BE48",
"u. c #C864BF6FBE8E",
"i. c #C89BBFACBF9C",
"p. c #C6F7C09EBC22",
"a. c #C6F7C096BCA4",
"s. c #CDD1C0BCBA7E",
"d. c #C91FC1FABC93",
"f. c #C8AAC0CBBFE6",
"g. c #C99CC0C6C039",
"h. c #C921C16CC02E",
"j. c #CAA2C406BFD7",
"k. c #D021C2B0BCC0",
"l. c #D147C32ABB31",
"z. c #D16EC2B2C005",
"x. c #D0E7C4C3BDCB",
"c. c #D1BCC4D4BDC8",
"v. c #D2D5C6B2BEB4",
"b. c #DEE0D3EABEDC",
"n. c #DEE6D4D0BDE3",
"m. c #DF90D4ACBFD8",
"M. c #C8D5C0DFC0C4",
"N. c #C9BCC0FAC07F",
"B. c #C8D2C1B0C0C7",
"V. c #C9ECC17DC0B5",
"C. c #CA15C219C21B",
"Z. c #CA6FC0CCC04A",
"A. c #CAD1C1C8C239",
"S. c #CA0DC29BC0C4",
"D. c #C9EFC2ECC1ED",
"F. c #CA7CC265C126",
"G. c #CA15C305C2A4",
"H. c #CAFBC3DCC37C",
"J. c #CB43C4FAC151",
"K. c #CA91C446C3DD",
"L. c #CC12C61AC51F",
"P. c #CCAAC61FC4C7",
"I. c #CCAAC692C5BB",
"U. c #CDDCC7D1C5A4",
"Y. c #CFF5C92EC453",
"T. c #CE61C861C7B9",
"R. c #CEF5C993C797",
"E. c #D00FCA49C85F",
"W. c #D00CCAF0C8FC",
"Q. c #D309C570C335",
"!. c #D3C1C57CC33F",
"~. c #D3D4C587C3A4",
"^. c #D465C623C3FF",
"/. c #D486C7B0C3AE",
"(. c #D502C6D1C4BB",
"). c #D4E6C7C8C5E8",
"_. c #D5C5C7CCC5DE",
"`. c #D4F1C7D5C7F4",
"'. c #D59BC886C293",
"]. c #D5E2C9EAC2BC",
"[. c #D1BACA30C524",
"{. c #D5EFC89BC5F3",
"}. c #D461CA83C501",
"|. c #D5E8CBC0C4DA",
" X c #D5F1CBCCC591",
".X c #D71BCA60C7C7",
"XX c #D7C4CBAFC7AB",
"oX c #D497CCFFC6EA",
"OX c #D891CCA1C299",
"+X c #D895CC3BC542",
"@X c #D99CCCB7C780",
"#X c #D8BCCD85C7A4",
"$X c #D95ECF29C6F6",
"%X c #D8F3CECDC7C7",
"&X c #D4E2C7D5C8E5",
"*X c #D7B3CAD3C886",
"=X c #D38DCD75C87C",
"-X c #D5C6C8B9CC85",
";X c #D5C6C8B9CD81",
":X c #D6B2C8B9CC80",
">X c #D136CCDCCC76",
",X c #DBB1D17CC3BF",
"<X c #DDCDD2C3C20E",
"1X c #DED0D2E9C0DB",
"2X c #DEDED3CBC0AB",
"3X c #DED1D3A5C1ED",
"4X c #DDAAD2ABC761",
"5X c #DF8FD606C486",
"6X c #D972D2C0CCF0",
"7X c #DDC6D3C5CCBD",
"8X c #DDD9D3F7CDA8",
"9X c #E03DD76CCCF0",
"0X c #DF2ED730D18A",
"qX c #E124D72AC223",
"wX c #E342D971CA4D",
"eX c #E592DC72CB7E",
"rX c #E0FDD8D8D1DF",
"tX c #E308DA99D0AC",
"yX c #E0FCD98ED29B",
"uX c #E1A1D980D253",
"iX c #E1BCD9DBD398",
"pX c #E183DA72D4CC",
"aX c #E1B6DACCD567",
"sX c #E58FDD7CD72E",
"dX c #E5F8DDF4D7E4",
"fX c #E7D9DFC3D676",
"gX c #E9DAE230D5A4",
"hX c #E7CDE0AEDA0B",
"jX c #E81EE12ADAF0",
"kX c #EC07E576DB65",
"lX c #EAC8E2EFDCC7",
"zX c #EC0CE600DF13",
"xX c #EC4AE710DF56",
"cX c #EC4AE711E028",
"vX c #ECF9E7DDE00E",
"bX c #EDBDE7A8E0A2",
/* pixels */
";X;X-X-X-X-X-X-X-X-X-X-X-X:X:X:X:X:X:X:X:X:X",
"&X&X`.`.`.`.`.`.`.`.`.`.`.`.`.`.`.`.`.`.`.`.",
").).).).).).).).)._._._._._._._._._._._.).).",
"~.~.~.!.!.!.!.!.!.!.Q.!.!.~.^.(._.{.{._._.{.",
"8 8 8 8 8 8 8 7 6 3 2 2 3 w b Q z..X*X*X*X*X",
"1 1 1 1 1 1 , $ O .     . + & < r E /.XXXXXX",
"7 9 5 5 5 * X @ a A D D A g # o ; 0 m k.#X#X",
"q q q q % # g / ` ~ ! ! ^ ] ) g # % e Z '.@X",
"z z l 4 = C 2.' ) ) ) ) ) ) ' 2.C = 4 v W +X",
"M M x = B 6.,.&.&.=.-.-.*.*.*.<.6.V - c K l.",
"L J f k _ 8.-.-.>.-.F F -.>.-.-.8._ k f P O.",
"Y T s S 4.9.1.3.%.N : > N %.3.1.9.4.S d R ..",
"o.o.h ( g.9.0.#.p t @.@.t i $.y.9.g.( j  .X.",
"t.r.n :.S.N.G y p 7.u.u.7.p u +.Z.F.;.n r.s.",
"x.c.U } V.A.5.H f.f.q.0.i.f.H 5.A.N.[ I c.v.",
"].].w.{ h.H.f.f.f.f.f.f.f.f.f.f.H.h.{ w.].OX",
"%X%X X| a.I.G.B.B.M.M.M.M.M.M.C.P.p.| |.$X,X",
"7X7X8X}.e.S.T.K.D.D.D.D.D.D.H.T.S.e.}.7X4X<X",
"rXrXyXiXoXd.J.W.R.U.L.L.U.R.W.J.d.oXuX9X3X1X",
"dXdXdXdXdX0X[.j.U.E.>X>XE.U.j.[.0XsXtX5X2X2X",
"lXlXlXlXlXlXjXaX6X=XY.Y.=X6XpXhXfXwXm.b.b.b.",
"bXbXbXbXbXbXbXvXvXcXzXzXxXkXgXeXqXn.n.n.n.n."
};
