/* XPM */
static char *minfcs[] = {
/* columns rows colors chars-per-pixel */
"22 22 142 2",
"   c #880087A38634",
".  c #880C87AE8640",
"X  c #92249195900E",
"o  c #9451939A9323",
"O  c #99029837962E",
"+  c #9B569AD29940",
"@  c #A3BAA2AC9EF1",
"#  c #B4CFB1BBAC7A",
"$  c #B586B273AD31",
"%  c #BAD2B788B002",
"&  c #BFF8BAFFB360",
"*  c #BA1AB8CFB744",
"=  c #BABFB8CFB744",
"-  c #BE6DBB9EB8B7",
";  c #C7D1BBC7ABB9",
":  c #C812BC10AC92",
">  c #C831BC59AC7B",
",  c #C916BDB0AE20",
"<  c #C9B9BDC4ADD1",
"1  c #C903BDE9AF71",
"2  c #CA0FBE82AE8B",
"3  c #C9A0BEFFAFA7",
"4  c #CB72C09DB13A",
"5  c #CC1BC185B1BC",
"6  c #CCCCC0CEB1B1",
"7  c #CD25C35FB5E7",
"8  c #CFCFC4BEB5BD",
"9  c #CFA0C49EB649",
"0  c #CF0CC4E8B7A7",
"q  c #C3E1C0AFB940",
"w  c #C65BC158B962",
"e  c #CD23C58DB931",
"r  c #CE32C5D0B877",
"t  c #CD35C575BB0C",
"y  c #CCB3C60DBB48",
"u  c #CA2CC631BEDB",
"i  c #CC8DC6E8BDBF",
"p  c #CED3C96CBF0F",
"a  c #D08AC7BAB9CA",
"s  c #D2D0C802B9E8",
"d  c #D2D2C8B1BAA3",
"f  c #D1DDC8F3BCBC",
"g  c #D076C8FFBEB7",
"h  c #D5D5CBE2BEBD",
"j  c #D5D1CC8CBEAF",
"k  c #CE86CB46C34D",
"l  c #CB96C939C514",
"z  c #CBE5C90AC710",
"x  c #D02BCDEACBC7",
"c  c #D40ACDFEC0F9",
"v  c #D472CE79C524",
"b  c #D649CFE7C5F6",
"n  c #D661D013C5CC",
"m  c #D8D4CFC5C2BF",
"M  c #D066CE2CCB13",
"N  c #D08ECDEACBC7",
"B  c #D6B0D1A7C734",
"V  c #DACCD406C587",
"C  c #DBD2D22CC6C1",
"Z  c #DBDBD3B3C6D4",
"A  c #D76BD1F5C98C",
"S  c #D5AFD316CB5C",
"D  c #D9FED1FDC8BF",
"F  c #DED5D601CAF3",
"G  c #DEDED6DACBB4",
"H  c #DBD7D599CC76",
"J  c #DBFFD664CD25",
"K  c #DFDED98ACBD0",
"L  c #DE21D98BD135",
"P  c #DE45D9ADD158",
"I  c #DF95DBCAD325",
"U  c #DF0CDCDDD9B5",
"Y  c #E1DDDAD0CFC5",
"T  c #E3EFDCEDCF18",
"R  c #E498DD91CF92",
"E  c #E147DB2BD0F7",
"W  c #E0F0DB8AD2B9",
"Q  c #E2CEDC2CD40F",
"!  c #E4F1DECFD3D2",
"~  c #E720E035D42D",
"^  c #E180DCF6D470",
"/  c #E3C0DD9CD4F4",
"(  c #E367DE7BD686",
")  c #E464DF0ED56C",
"_  c #E494DE76D69E",
"`  c #E7DEE0E7D4CC",
"'  c #E7C1E1D6D711",
"]  c #E848E165D7FE",
"[  c #E853E2C7D7D1",
"{  c #E8DAE1EFD7D7",
"}  c #E654E168DAB8",
"|  c #EA35E433D93F",
" . c #E8A3E38BDC00",
".. c #EAFCE4F3D9E8",
"X. c #EBCBE5DEDC01",
"o. c #EBE9E699DBEE",
"O. c #EC2DE737DD63",
"+. c #EC5EE7F9DF15",
"@. c #EC3DE83BDFDE",
"#. c #EDEEE8EBDEDE",
"$. c #ECF7E938E04F",
"%. c #EE07E8F2DFF9",
"&. c #EE8FE99ADF87",
"*. c #F0A7EB4EDC3F",
"=. c #EEF1E9E2E0D7",
"-. c #ED51EA0BE33E",
";. c #EDB2EA0EE462",
":. c #F039EC4CE453",
">. c #F014ECEEE4F6",
",. c #F0FDECE9E401",
"<. c #F098EC0BE761",
"1. c #F113EC96E48E",
"2. c #F1F3ECFBE4E5",
"3. c #F17CED72E485",
"4. c #F162EDA6E5A2",
"5. c #F37AEF76E763",
"6. c #F3E0EFEDE993",
"7. c #F391EFBBEBCD",
"8. c #F502F0FEE31B",
"9. c #F4BFF0AFE8A6",
"0. c #F580F173EB65",
"q. c #F814F511EB23",
"w. c #F393F07EED0A",
"e. c #F569F202ED07",
"r. c #F572F163EDA5",
"t. c #F61AF39DEFC1",
"y. c #F831F44DF045",
"u. c #F7C1F4C9F0DF",
"i. c #F760F47FF191",
"p. c #F804F570F189",
"a. c #F88DF5A3F2AD",
"s. c #F9AEF6ACF2FB",
"d. c #F9A2F6B8F3B1",
"f. c #FAF9F804F4F4",
"g. c #FB4DF86DF580",
"h. c #FC09F9FBF709",
"j. c #FCB0FA9FF641",
"k. c #FCC7FA1DF811",
"l. c #FC9AFB4BF80C",
"z. c #FCEFFAF9F8D9",
"x. c #FD14FBEAF8C5",
"c. c #FDA2FC83F98D",
/* pixels */
"j.j.j.j.j.j.j.j.j.j.j.j.j.j.j.j.j.j.j.j.j.j.",
"q.q.q.q.q.q.q.q.q.q.q.q.q.q.q.q.q.q.q.q.q.q.",
"8.8.8.8.8.8.8.8.8.8.8.8.8.8.8.8.8.8.8.8.8.8.",
"*.*.*.*.*.*.*.*.*.*.*.*.*.*.*.*.*.*.*.*.*.*.",
"2 2 2 2 2 2 2 2 2 2 2 2 2 2 2 2 2 2 2 2 2 2 ",
"; ; ; ; ; ; ; > , 2 3 3 2 , > ; ; ; ; ; ; ; ",
"; ; ; ; ; : 1 f / -.t.t.-./ f 1 : ; ; ; ; ; ",
"< < < < , 0 Q p.l.x.c.c.x.l.p.Q 0 , < < < < ",
"6 6 5 4 a  .k.z.z.z.z.z.z.z.z.k. .a 4 5 6 6 ",
"8 8 9 7 _ s.h.h.h.h.h.h.h.h.h.h.s._ 7 9 8 8 ",
"d s 0 D <.g.a.i.d.f.f.f.f.d.i.a.g.<.D 0 s d ",
"h j r W e.w.N = U u.s.s.u.U * x w.e.W r j h ",
"m m e } y.r.z o + M 7.7.M + o z r.y.} e m m ",
"Z C t ( 6.0.;.l O X - - X O l ;.0.6.( t C Z ",
"G F g J +.3.,.$.S @   . @ S $.,.3.+.J g F G ",
"Y Y n v ) &.#.#.O.L # $ P O.#.#.&.) v n Y Y ",
"! ! E i B [ ......| ' ' | ......[ B i E ! ! ",
"{ { ] H i b ~ ` ` ` ` ` ` ` ` ~ b i H ] { { ",
"X.X.o.X.A w p K T T R R T T K p w A X.o.X.X.",
"=.=.=.=.%.^ u & y c V V c y & u ^ %.=.=.=.=.",
"2.2.2.2.2.1.@.I k q % % q k I @.1.2.2.2.2.2.",
"9.9.9.9.9.9.9.5.4.>.:.:.>.4.5.9.9.9.9.9.9.9."
};
