/* XPM */
static char *minpr[] = {
/* columns rows colors chars-per-pixel */
"22 22 139 2",
"   c #A13D9E6D8F36",
".  c #A8F5A65197E5",
"X  c #AAECA7F89A7B",
"o  c #AE0DABCF9E51",
"O  c #B054ADAAA0C0",
"+  c #B669B449A804",
"@  c #C7D4BBC9ABBA",
"#  c #C7D5BC79AC91",
"$  c #C9D7BDCCADCA",
"%  c #C891BDEAAF3B",
"&  c #CA23BE92AE93",
"*  c #CAABC01FB123",
"=  c #C265C06BB6A7",
"-  c #C31DC123B75F",
";  c #C8CDC0CDB355",
":  c #CCCCC0E3B1CD",
">  c #CB94C31CB5ED",
",  c #CFD0C4E0B5EA",
"<  c #C749C571BC20",
"1  c #C80EC653BD03",
"2  c #C9FDC415B979",
"3  c #CBDEC631BB91",
"4  c #CFDCC74DB937",
"5  c #CC63C62FBA64",
"6  c #CE4DC797BB8F",
"7  c #CA9AC6ABBCC9",
"8  c #CA25C8F9BFC7",
"9  c #CA6FC87EBF81",
"0  c #CD33C879BDC0",
"q  c #D2DCC8EABAF9",
"w  c #D5E7CC25BF31",
"e  c #CB7AC8F6C0CA",
"r  c #CC29C9DDC1AA",
"t  c #CDF0C9F3C161",
"y  c #CCF2CAF3C2AA",
"u  c #CD4ACB46C345",
"i  c #CE01CBF0C3AE",
"p  c #CF2CCC40C35D",
"a  c #CE53CC70C474",
"s  c #CEC9CDC3C554",
"d  c #D3ADCD0EC187",
"f  c #D1FECE89C5D2",
"g  c #D2B4CFE3C7EB",
"h  c #D8EAD024C350",
"j  c #D1A5CFB2C8A1",
"k  c #DBE6D409C751",
"l  c #D2D0D109C8FF",
"z  c #D291D143C973",
"x  c #D2C6D162C9D7",
"c  c #D36AD17FCA47",
"v  c #D37BD1D6CB19",
"b  c #D77CD297C8F5",
"n  c #D49FD348CBD6",
"m  c #D579D3D5CC3C",
"M  c #D4E9D3B3CCB2",
"N  c #D5B6D414CD42",
"B  c #D6AFD4AFCE35",
"V  c #DEE8D715CC1D",
"C  c #DA7DD759CF55",
"Z  c #D8E9D783D111",
"A  c #D911D816D1B7",
"S  c #DA71D8CDD1AC",
"D  c #DA7ED90BD2F4",
"F  c #DCBCD9BCD1E1",
"G  c #DFB3DB32D445",
"H  c #DBBADA48D47F",
"J  c #DC0BDB06D4CA",
"K  c #DC7BDB39D527",
"L  c #DCDBDB9DD5EC",
"P  c #DD72DC71D717",
"I  c #DF3ADD07D71C",
"U  c #DF6ADE7DD91E",
"Y  c #E1EADB00D012",
"T  c #E4F3DEDBD3F1",
"R  c #E2ABDE2AD5BD",
"E  c #E4FDDFC3D673",
"W  c #E8DAE1F6D7EC",
"Q  c #E1AEE0B1DBEC",
"!  c #E2C6E0D0DB92",
"~  c #E3A7E240DDF5",
"^  c #E34EE2F7DE57",
"/  c #E401E32BDECC",
"(  c #E434E3E8DF02",
")  c #E476E371DE5E",
"_  c #E846E466DD69",
"`  c #E4B6E499DFA2",
"'  c #E577E4B0E034",
"]  c #EBEBE5E5DBE9",
"[  c #EBE8E6AEDCC4",
"{  c #F0AAEB50DC42",
"}  c #F0CEEBC8DD01",
"|  c #E602E52DE0D9",
" . c #E736E63DE238",
".. c #E7E2E6ECE2E9",
"X. c #E85DE76BE36C",
"o. c #E882E774E401",
"O. c #E939E839E4B9",
"+. c #EB80E929E342",
"@. c #EEEEE9DDE0D2",
"#. c #EEF7EAA3E258",
"$. c #EA00E943E5E8",
"%. c #EAF5E9F4E6E7",
"&. c #EE19EBD2E61C",
"*. c #ED4FEBBAE74C",
"=. c #ECCDEBD3E8E7",
"-. c #EDF5ECF4EA11",
";. c #EE41EE04EB23",
":. c #EE7AED79EA98",
">. c #EEB4EE40EB7B",
",. c #F021EFFBEC87",
"<. c #F1F3ED01E4F1",
"1. c #F12BEDBEE72A",
"2. c #F1E9F01FEB3F",
"3. c #F09EEFB1EB8E",
"4. c #F106F043EE0E",
"5. c #F502F0FEE31B",
"6. c #F3B5F119EAD9",
"7. c #F4C6F0B5E8AF",
"8. c #F49BF118E9A0",
"9. c #F814F511EB23",
"0. c #F31DF317F0DC",
"q. c #F398F29CF0F7",
"w. c #F3DAF372F1D5",
"e. c #F459F455F271",
"r. c #F43EF458F2B4",
"t. c #F4EEF4F2F352",
"y. c #F659F560F3ED",
"u. c #F6CEF674F535",
"i. c #F739F722F5E8",
"p. c #F81AF805F6B6",
"a. c #F870F87AF70E",
"s. c #F8E3F8D6F7BE",
"d. c #FCB0FA9FF641",
"f. c #FA12FA13F918",
"g. c #FB06FB06FA09",
"h. c #FB2DFB2DFABC",
"j. c #FBE6FBE4FB10",
"k. c #FC2EFC2CFBF7",
"l. c #FCAFFCA1FC84",
/* pixels */
"d.d.d.d.d.d.d.d.d.d.d.d.d.d.d.d.d.d.d.d.d.d.",
"9.9.9.9.9.9.9.9.9.9.9.9.9.9.9.9.9.9.9.9.9.9.",
"5.5.5.5.5.5.5.5.5.5.5.5.5.5.5.5.5.5.5.5.5.5.",
"{ { { { { { { } } } } } } } } { { { { { { { ",
"& & & & & & * > 5 0 t t 0 5 > * & & & & & & ",
"@ @ @ @ # ; 7 r y i i i i y r 7 ; # @ @ @ @ ",
"@ @ @ % 2 e u N ' ;.y.y.;.' N u e 2 % @ @ @ ",
"$ $ & 3 y z ( i.j.k.l.l.k.j.i.( z y 3 & $ $ ",
": : 6 p n $.h.j.j.j.j.j.j.j.j.h.$.n p 6 : : ",
", 4 f j | a.g.g.g.g.g.g.g.g.g.g.a.| j f 4 , ",
"q d g L 4.f.p.i.s.f.f.f.f.s.i.p.f.4.L g d q ",
"w b l ^ t.w.Z 1 / i.s.s.i./ 1 Z w.t.^ l b w ",
"h C z X.u.r.M X O Z q.q.Z O X M r.u.X.z C h ",
"k F l | 0.e.>.M o . 8 8 . o M >.e.0.| l F k ",
"V G m U =.4.4.-.K +     + K -.4.4.=.U m G V ",
"Y R S A | :.-.-.=.Q = - Q =.-.-.:.| A S R Y ",
"T E ! v H O.%.%.%.$.o.o.$.%.%.%.O.H v ! E T ",
"W W _ I c D  ................. .D c I _ W W ",
"] ] [ +.J s M Q ( ( ` ` ( ( Q M s J +.[ ] ] ",
"@.@.@.#.&.) x 9 x Z P P Z x 9 x ) &.#.@.@.@.",
"<.<.<.<.<.1.*.~ B a < < a B ~ *.1.<.<.<.<.<.",
"7.7.7.7.7.7.8.6.2.3.,.,.3.2.6.8.7.7.7.7.7.7."
};
