/* XPM */
static char *minufcs[] = {
/* columns rows colors chars-per-pixel */
"22 22 193 2",
"   c #A0D88FD78B2C",
".  c #A37890F08CF7",
"X  c #A37891B38CF7",
"o  c #A5AC93CA8EC8",
"O  c #A6E294D28F77",
"+  c #A68A95A8923C",
"@  c #A6D196C0923B",
"#  c #A75996B99233",
"$  c #AC0A9A05937E",
"%  c #AC809A5193D5",
"&  c #AE3F9BBF95BF",
"*  c #ACF19C089723",
"=  c #AE379BBF9631",
"-  c #ABED9CF5971B",
";  c #ACEA9CB0975F",
":  c #B0939DF1970C",
">  c #B1C89FFF999D",
",  c #B2A49EB998A6",
"<  c #B2A49F9298B1",
"1  c #B2979F0B995B",
"2  c #B2B29FAE996B",
"3  c #B2C79FE49A34",
"4  c #B175A0E399E8",
"5  c #B3C6A0A699A6",
"6  c #B2DCA0889ABB",
"7  c #B399A0BA9AA2",
"8  c #B3D5A1A29A9E",
"9  c #B2CFA0EE9B1B",
"0  c #B3BCA0F49B27",
"q  c #B6B6A2EF9BE8",
"w  c #B6C1A3B89CB1",
"e  c #B7A0A3CE9CC7",
"r  c #A5439F1EA29D",
"t  c #A5439FDEA29D",
"y  c #AA29A2F9A61A",
"u  c #AC8DA4BAA70B",
"i  c #AC8DA570A8A6",
"p  c #ADA9A658A859",
"a  c #ADA9A648A939",
"s  c #B4E8A6BFA0F4",
"d  c #B4E8A7A8A135",
"f  c #B6CBA743A0FF",
"g  c #B358A481A481",
"h  c #B323A5A1A445",
"j  c #B90FA7BBA0BA",
"k  c #B9CFA7AFA0A8",
"l  c #B5B7A846A2AC",
"z  c #B5B7A855A3A3",
"x  c #B6C9A9B4A5B6",
"c  c #BA0BA8A3A1B5",
"v  c #BAC2A89AA1A1",
"b  c #B9E6A99CA34C",
"n  c #BAE1A9AAA445",
"m  c #BA6CAC63A6B5",
"M  c #BDDDAC9EA598",
"N  c #BE99ACABA5A4",
"B  c #BEAFACB3A691",
"V  c #B044A878AAE4",
"C  c #B8F0AC76AA3D",
"Z  c #B972AC9FAA95",
"A  c #BA53AC65AAE6",
"S  c #BA9CACAEAD72",
"D  c #BCA0B172AF07",
"F  c #B724B0ADB26B",
"G  c #BF7DB31AB494",
"H  c #BD98B478B573",
"J  c #BFEEB733B756",
"K  c #BFEEB79AB81C",
"L  c #C1B4B0EDA9E2",
"P  c #C1C0B1A1AAA1",
"I  c #C095B433AE9B",
"U  c #C4D2B5CCAEBC",
"Y  c #C4C8B670AEA8",
"T  c #C4D2B6B0AFAE",
"R  c #C4C8B754AF9A",
"E  c #C0EFB4EAB50D",
"W  c #C216B5F8B60B",
"Q  c #C1CAB62DB70B",
"!  c #C1F0B6CEB6D7",
"~  c #C226B7E5B66E",
"^  c #C2DEB6DAB6F5",
"/  c #C2B2B7E8B6CC",
"(  c #C2AFB6B7B781",
")  c #C353B723B7DA",
"_  c #C324B762B810",
"`  c #C403B762B81A",
"'  c #C39AB9B3B75D",
"]  c #C40FBA67B653",
"[  c #C471BA89B811",
"{  c #C525BC46B583",
"}  c #C8C2BAACB3B6",
"|  c #C8C2BAC2B4A9",
" . c #C220B803B8E3",
".. c #C3CFB8AAB8BA",
"X. c #C1F2BA07BA50",
"o. c #C258B99CBA49",
"O. c #C183BA82BB89",
"+. c #C258BA4CBB07",
"@. c #C48EB8ABB8B2",
"#. c #C488B8ABB95F",
"$. c #C4ADB9E1B9E7",
"%. c #C471BB2FB905",
"&. c #C4DDBA00BAA2",
"*. c #C57BBA00BB05",
"=. c #C5D3BBC9BAE6",
"-. c #C5F7BA84BB97",
";. c #C5C7BBC9BBA2",
":. c #C6E4BA8CBB9D",
">. c #C6AFBBB2BC39",
",. c #C50EBCD5BC21",
"<. c #C64BBC64BC13",
"1. c #C5ACBBB9BC41",
"2. c #C50EBCD5BD07",
"3. c #C5E6BCA8BCD3",
"4. c #C5E6BD63BCC5",
"5. c #C64BBC62BCA5",
"6. c #C756BCD9BD03",
"7. c #C756BEE8BDFB",
"8. c #C65BBDF0BE4B",
"9. c #C799BEA4BE89",
"0. c #C805BF83BEEF",
"q. c #C805BFECBF5D",
"w. c #CA46BEFCB8B4",
"e. c #C85EBF21BB1B",
"r. c #CCCDBEE1B8D6",
"t. c #CCCDBEDBB994",
"y. c #CCCDBFB6B9A2",
"u. c #C869BDE3BE56",
"i. c #C869BE67BED1",
"p. c #C8B7BFBABFAD",
"a. c #C6F7C09EBCA7",
"s. c #C7CCC0BFC036",
"d. c #C91FC1F2BC97",
"f. c #C8CEC0C6BFE1",
"g. c #C968C04EBFBA",
"h. c #C922C16BC034",
"j. c #CAA2C40ABFFC",
"k. c #D0E7C4BDBDCB",
"l. c #D196C4ADBDB6",
"z. c #C8DFC0EFC0D4",
"x. c #C99EC0C0C0A6",
"c. c #C99AC1A9C167",
"v. c #CA1AC2B0C09B",
"b. c #C9F8C2DEC1E8",
"n. c #CA15C213C29E",
"m. c #CB1CC39FC340",
"M. c #CA91C438C3DD",
"N. c #CB43C4F6C151",
"B. c #CC12C61AC51F",
"V. c #CCAAC620C5BB",
"C. c #CDDCC7D1C5D2",
"Z. c #CFF5C92EC453",
"A. c #CE61C85AC7BD",
"S. c #CEF5C993C79C",
"D. c #D00FCA49C860",
"F. c #D00CCAF0C8FF",
"G. c #D2DDC571C342",
"H. c #D33FC57EC3A1",
"J. c #D3C8C57BC413",
"K. c #D4D3C6ECC5E5",
"L. c #D581C701C5EE",
"P. c #D4E5C7C2C5FB",
"I. c #D598C7C7C5FE",
"U. c #D4E2C7B9C7F0",
"Y. c #D5BCC9C5C2BF",
"T. c #D1B9C9EAC51E",
"R. c #D461CA83C4F0",
"E. c #D5F1CBCCC4DA",
"W. c #D5F1CBCCC591",
"Q. c #D498CCF9C6B7",
"!. c #D8F3CECDC7C6",
"~. c #D4E5C7C9C8D7",
"^. c #D5C6C7C6CC8B",
"/. c #D38DCD75C883",
"(. c #D5C6C858CD20",
"). c #D5C6C8BACD82",
"_. c #D136CCDCCC76",
"`. c #D977D2D0CD17",
"'. c #DDC0D3D3CCCC",
"]. c #DDD9D3F7CD97",
"[. c #DF3AD64BD1AA",
"{. c #DF3AD73FD1AA",
"}. c #E0FDD8D8D1DF",
"|. c #E0FCD98ED1EA",
" X c #E1BCD9DBD2A7",
".X c #E1B6DACCD56C",
"XX c #E5F8DDE7D7DD",
"oX c #E81EE126DAEF",
"OX c #EAC9E2EDDCC7",
"+X c #EC0CE600DF17",
"@X c #EC4AE711E028",
"#X c #ECF9E7DDE00E",
"$X c #EDBDE7A8E0A2",
/* pixels */
"^.^.^.^.^.^.^.^.^.^.^.^.^.^.^.(.).).).).).).",
"U.U.U.U.~.~.~.~.~.~.~.~.~.~.~.~.~.~.~.~.~.~.",
"K.K.K.K.L.L.L.P.K.P.P.P.P.I.P.P.P.P.P.P.P.P.",
"G.G.G.G.G.G.G.G.G.H.J.J.J.J.J.J.H.H.J.J.J.J.",
"9 9 9 9 9 9 9 6 6 3 1 1 3 6 7 0 0 0 0 0 0 0 ",
", , , < < < : $ O .     X O $ : < < < 2 < < ",
"5 5 5 5 5 & o + g S G G S g + o = 7 7 8 8 8 ",
"w q w w % # h Q ) W E E W ) Q h @ % w w w e ",
"k k j > * A :.` ^ ^ ( ! ! ! _ -.Z - 4 c v v ",
"N M b ; Z >.*.#...#.@.....@.@.&.1.C ; n B B ",
"P L f x / 6.$.$.$.$.$.$.$.$.$.$.6./ x f L P ",
"U Y s D 5.i. .H 4.;.=.=.;.3.H  .u.<.D d R T ",
"} } l ~ x.g.J u p ,.7.9.2.a i K g.x.~ z | | ",
"t.r.m [ c.7.0.o.V y X.X.y V +.q.7.b.%.m r.y.",
"k.l.I ' x.x.9.p.8.F t r F 8.p.9.x.x.' I l.k.",
"Y.Y.w.] h.m.f.f.h.s.O.O.s.h.f.f.m.h.] w.Y.Y.",
"!.!.E.{ a.V.n.z.z.z.c.c.z.z.z.n.V.a.{ W.!.!.",
"'.'.].R.e.v.A.M.b.b.b.b.b.b.M.A.v.e.R.].'.'.",
"}.}.|. XQ.d.N.F.S.C.B.B.C.S.F.N.d.Q. X|.}.}.",
"XXXXXXXXXX[.T.j.C.D._._.D.C.j.T.{.XXXXXXXXXX",
"OXOXOXOXOXOXoX.X`./.Z.Z./.`..XoXOXOXOXOXOXOX",
"$X$X$X$X$X$X$X#X#X@X+X+X@X#X#X$X$X$X$X$X$X$X"
};
