/* XPM */
static char * titleufcs_xpm[] = {
"22 22 46 1",
" 	c #DCCDD1",
".	c #DCCCD1",
"+	c #DCCCD0",
"@	c #DBCCCC",
"#	c #DACCCC",
"$	c #DACBCB",
"%	c #DBCDCC",
"&	c #DBCDCD",
"*	c #DBCBC9",
"=	c #DACBC9",
"-	c #DBCCC9",
";	c #DBCCCA",
">	c #DBCDCA",
",	c #DCCDCA",
"'	c #DBCDC9",
")	c #DCCDC9",
"!	c #DCCEC9",
"~	c #DCCFC9",
"{	c #DDCFC9",
"]	c #DCCFC8",
"^	c #DDCFC8",
"/	c #DCCFC7",
"(	c #DDD0C7",
"_	c #DDD0C8",
":	c #DDCFC7",
"<	c #DED0C8",
"[	c #DDD0C6",
"}	c #DED1C7",
"|	c #DDD1C7",
"1	c #DED0C7",
"2	c #DDD1C6",
"3	c #DED1C6",
"4	c #DED2C5",
"5	c #DED2C6",
"6	c #DED1C5",
"7	c #DED2C4",
"8	c #DFD3C4",
"9	c #DFD4C3",
"0	c #DFD4C4",
"a	c #DFD4C2",
"b	c #E0D4C2",
"c	c #DFD3C1",
"d	c #DFD4C1",
"e	c #E0D4C1",
"f	c #DFD5C0",
"g	c #DFD6BF",
" . +..  .             ",
"@##$##@@@@@@@%@#%%&@@@",
"*=*=*****----;;-;;;;;;",
"--------;;;;;;;;>>>>>>",
"--------,,,,,,,,,,,,,,",
"''')'''')))))))!!!)))!",
"!!!!!!!!!!!~~~~~~{{{~{",
"]]]]]]]]]]]^]]^^^^^^^^",
"///////////(___(_(_(__",
"(:::::::(((((<(_((((((",
"[[[[[[[[[[[((}(|((((11",
"[[[[222222333332222233",
"4555555555555555555555",
"6666644464444444444444",
"7777777777777777777777",
"8888888888888888888888",
"9999999999999999999000",
"aaaaaaaaabbbbbbbbbbbbb",
"ccddcccbbbbbbbbbbbbbbb",
"eedddeeeeeeeeeeeeeeeee",
"ffffffffffffffffffffff",
"gggggggggggggggggggggg"};
