/* XPM */
static char *stickpr[] = {
/* columns rows colors chars-per-pixel */
"22 22 142 2",
"   c #555A53585156",
".  c #567C54725261",
"X  c #581E560353CC",
"o  c #582A561A53DF",
"O  c #6520626D5FD7",
"+  c #650A625F608F",
"@  c #650563166090",
"#  c #6CC26A6C667A",
"$  c #6D5E6A466667",
"%  c #7E987BB6765E",
"&  c #7FA37CB8776D",
"*  c #7F997CA57828",
"=  c #80157DE67887",
"-  c #869F82C07C58",
";  c #869D83767D0E",
":  c #876A83867D61",
">  c #86E484887D9E",
",  c #93558E957F29",
"<  c #963E91E4834B",
"1  c #967F924283C8",
"2  c #9892937284B5",
"3  c #9A3293C484DA",
"4  c #99FA949D8478",
"5  c #9A04942E8540",
"6  c #9C7897788832",
"7  c #9D6B98438919",
"8  c #9E5698EA8941",
"9  c #A0879A248857",
"0  c #A0609A398A9D",
"q  c #A24C9C068A2A",
"w  c #A5D59F3E8BB8",
"e  c #A673A0438C4E",
"r  c #A9D4A3468EE4",
"t  c #AC88A4A08F28",
"y  c #AD40A5578F67",
"u  c #A711A0EF9024",
"i  c #A7F1A1A292E6",
"p  c #A9F3A2F89178",
"a  c #AE50A6389119",
"s  c #AD56A66393A0",
"d  c #AB50A55C94B2",
"f  c #AB29A60E9695",
"g  c #AC48A6FF95FA",
"h  c #AE3AA7079498",
"j  c #ACB8A6FE96A2",
"k  c #ACC8A7C696BD",
"l  c #B02AA87D92E8",
"z  c #AEE7A8E996F8",
"x  c #AFC4A97A976D",
"c  c #AE18A8FC98C0",
"v  c #B02FAA619824",
"b  c #B246AC6C9A9F",
"n  c #B6F6AE9A9832",
"m  c #B4A0ADDE9B3A",
"M  c #B4EAAE959BC8",
"N  c #B55FAE8B9C11",
"B  c #B5E1B04E9E53",
"V  c #B9C3B1BC99B6",
"C  c #BA2CB1F69A8E",
"Z  c #BA73B1F39A66",
"A  c #B8C2B1CA9DAC",
"S  c #B9D9B2DB9E42",
"D  c #BC27B6BBA49F",
"F  c #C349BB0BA252",
"G  c #C495BBCCA32B",
"H  c #C43CBBD9A57D",
"J  c #C43CBC93A634",
"K  c #C6A2BDD1A4A3",
"L  c #C10FBB54A83D",
"P  c #C294BCC2ABDE",
"I  c #CA09C109A788",
"U  c #C9D4C145A7BB",
"Y  c #CBAEC2D3A913",
"T  c #CB6DC2FAA9FC",
"R  c #CEC7C56CAC19",
"E  c #CDD1C5DCACFF",
"W  c #D6ACCD0DB299",
"Q  c #D6B6CD4EB26E",
"!  c #D75FCDF1B307",
"~  c #D714CDA9B3C7",
"^  c #D7C9CE12B3A5",
"/  c #D94FCFC5B546",
"(  c #D980D01DB59E",
")  c #DCD7D2D9B7BC",
"_  c #DD38D360B82D",
"`  c #D71FD073BD44",
"'  c #D7A7D109BDE3",
"]  c #DA3DD156B8B5",
"[  c #DB19D1B6B900",
"{  c #DCCFD366B87B",
"}  c #DD69D400B885",
"|  c #DA8DD2FDBC4C",
" . c #DBC3D3C0BD10",
".. c #DCFBD489BC5E",
"X. c #DE34D59FBCFC",
"o. c #DEB0D5A8BCF6",
"O. c #DF57D6E5BE2B",
"+. c #E0E3D6DABABF",
"@. c #E167D754BB28",
"#. c #E16ED75CBB2F",
"$. c #E13AD752BB87",
"%. c #E1C3D7CBBBE9",
"&. c #E1A6D7C7BC71",
"*. c #E276D86ABC31",
"=. c #E201D884BD6D",
"-. c #E2E2D9CBBEBE",
";. c #E412DAE9BFBE",
":. c #DE63D7BDC1F5",
">. c #DF97D8E9C2BF",
",. c #E04BD8E2C3C4",
"<. c #E26EDA16C0F6",
"1. c #E38FDA2CC0DD",
"2. c #E2C0D97FC1AE",
"3. c #E1B1D9CCC331",
"4. c #E2BDDA9EC3A4",
"5. c #E4F3DBF7C2CE",
"6. c #E569DC66C32F",
"7. c #E2A8DB1BC463",
"8. c #E343DB17C5F3",
"9. c #E6E4DEDCC6C2",
"0. c #E766DF65C739",
"q. c #E6A3DEB6C79E",
"w. c #E5E0DEF5CA41",
"e. c #E6A5DEEBC898",
"r. c #E5DEDEF8CA52",
"t. c #E8F0E1DACAD0",
"y. c #E936E33DCF8B",
"u. c #E963E36BCFAD",
"i. c #EAE7E3EFCECC",
"p. c #EB4DE42CD1CA",
"a. c #EAB3E4B0D0E6",
"s. c #EBFFE5EED1FF",
"d. c #EB2AE4F2D26A",
"f. c #ECE7E6D3D2CE",
"g. c #ED69E7E3D7B3",
"h. c #EEEEE8F6D6D6",
"j. c #EE20E7D0D863",
"k. c #F0F0EBDDDADA",
"l. c #F2F2EDFBDEDE",
"z. c #F502F0FEE31B",
"x. c #F814F511EB23",
"c. c #FCB0FA9FF641",
/* pixels */
"c.c.c.c.c.c.c.c.c.c.c.c.c.c.c.c.c.c.c.c.c.c.",
"x.x.x.x.x.x.x.x.x.x.x.x.x.x.x.x.x.x.x.x.x.x.",
"z.z.z.z.z.z.z.z.z.z.z.z.z.z.z.z.z.z.z.z.z.z.",
"l.l.l.l.l.l.l.l.l.l.l.l.l.l.l.l.l.l.l.l.l.l.",
"k.k.k.k.k.k.k.k.k.k.k.k.k.k.k.k.k.k.k.k.k.k.",
"h.h.h.h.h.h.h.h.h.h.h.h.h.h.h.h.h.h.h.h.h.h.",
"f.f.f.f.f.f.f.f.s.a.y.u.a.s.f.f.f.f.f.f.f.f.",
"i.i.i.i.i.i.i.r.' P f c P ` w.i.i.i.i.i.i.i.",
"t.t.t.t.t.t.:.D 1 < 6 8 2 7 L >.t.t.t.t.t.t.",
"9.9.9.9.9.| v , z B k j b x 4 m  .0.9.9.9.9.",
"5.5.5.6...A q h i > $ $ : i s 9 S O.5.5.5.5.",
"-.-.-.;.E r e g * o . . o & d w r E ;.-.-.-.",
"+.+.+.*.K y l 8 +         O 3 a t G *.+.+.+.",
"+.+.+.%.Y V C 0 @         O 5 n Z Y %.+.+.+.",
"+.+.+.#.Q I K M = X . . o % x F U ! @.+.+.+.",
"+.+.+.+.{ ~ ^ R p - # # ; u T W ^ } +.+.+.+.",
"+.+.+.+.=.X.] ) ( J N N H / _ [ o.=.+.+.+.+.",
"+.+.+.+.+.&.2.8.4.3.,.,.3.4.7.<.&.+.+.+.+.+.",
"+.+.+.+.+.+.&.1.e.d.g.j.p.q.1.&.+.+.+.+.+.+.",
"+.+.+.+.+.+.+.+.$.%.&.&.%.$.+.+.+.+.+.+.+.+.",
"+.+.+.+.+.+.+.+.+.+.+.+.+.+.+.+.+.+.+.+.+.+.",
"+.+.+.+.+.+.+.+.+.+.+.+.+.+.+.+.+.+.+.+.+.+."
};
