/* XPM */
static char *stickfcs[] = {
/* columns rows colors chars-per-pixel */
"22 22 147 2",
"   c #93738EB87F3F",
".  c #963E91E4834B",
"X  c #967F924283C8",
"o  c #9892937284B5",
"O  c #9A1894BC848E",
"+  c #9C7897788832",
"@  c #9D6B98438919",
"#  c #9E2A99178919",
"$  c #A02E99CB880E",
"%  c #A1F39BA789DF",
"&  c #A43F9DA98A47",
"*  c #A4CF9EB58AD6",
"=  c #A9D4A3468EE4",
"-  c #AB76A3738E6B",
";  c #AC88A4A08F28",
":  c #AD40A5578F67",
">  c #AD47A5AA9039",
",  c #AB29A60E9695",
"<  c #B011A92495C8",
"1  c #B001AA0C97EC",
"2  c #AE18A8FC98C0",
"3  c #B02BAA5C9821",
"4  c #B422ABD69585",
"5  c #B0FFAA0E96C5",
"6  c #B744AF2297D9",
"7  c #B0AFAAAC9886",
"8  c #B229AC529BCB",
"9  c #B239AD1B9BE7",
"0  c #B49CADDA9B36",
"q  c #B5BCAFD29DCE",
"w  c #B9C3B1BC99B6",
"e  c #BA73B1F39A66",
"r  c #B8C2B1CA9DAC",
"t  c #B9D9B2DB9E42",
"y  c #B80BB0C7A0F3",
"u  c #B797B129A159",
"i  c #B957B3B4A183",
"p  c #BACFB3D0A12B",
"a  c #BACFB4DDA2BF",
"s  c #BCD8B589A192",
"d  c #BF27B7D4A3DC",
"f  c #BC27B6BBA49F",
"g  c #BC63B643A452",
"h  c #BCC3B662A58B",
"j  c #BD8DB72CA5A8",
"k  c #BD61B749A5B2",
"l  c #BEF2B7E2A70A",
"z  c #BF73B897A550",
"x  c #C1B4B97DA0E0",
"c  c #C495BBCCA32B",
"v  c #C54ABC86A378",
"b  c #C650BD87A456",
"n  c #C10FBB54A83D",
"m  c #C294BCC2ABDE",
"M  c #C556BE20AA25",
"N  c #C79ABF19A886",
"B  c #C79ABFDFA948",
"V  c #C2D8BDA3B383",
"C  c #C0ADBB9CB4A1",
"Z  c #C164BB9BB558",
"A  c #C23EBCD2B563",
"S  c #C2A9BE47B4B5",
"D  c #C3BAC007B5D8",
"F  c #C29FBD99B698",
"G  c #C52BC017B63A",
"H  c #C525BF5CB74A",
"J  c #CA09C109A788",
"K  c #C9D4C145A7BB",
"L  c #CBAEC2D3A913",
"P  c #CE7DC5C4ABE7",
"I  c #CDD1C5DCACFF",
"U  c #D199C835AE4F",
"Y  c #C4A5C119B677",
"T  c #C65AC142B7AC",
"R  c #C717C211BAE0",
"E  c #C73DC244BB1A",
"W  c #C755C244BB19",
"Q  c #C9C7C4A5BDB6",
"!  c #CA7BC578BEC8",
"~  c #CB43C578BF44",
"^  c #CBDAC69EC008",
"/  c #D64DCCB4B257",
"(  c #D6B6CD4EB26E",
")  c #D777CDC3B317",
"_  c #D714CDA9B3C7",
"`  c #D7A8CE36B3D9",
"'  c #DA6ED0D3B625",
"]  c #DA94D12EB68B",
"[  c #DCF6D2F8B7D2",
"{  c #D71FD073BD44",
"}  c #D7A7D109BDE3",
"|  c #DA38D152B8B2",
" . c #DB14D1B2B8FE",
".. c #DD15D372B85D",
"X. c #DD69D400B885",
"o. c #DA8DD2FDBC4C",
"O. c #DBC3D3C0BD10",
"+. c #DCFBD489BC5E",
"@. c #DE34D59FBCFC",
"#. c #DEB0D5A8BCF6",
"$. c #DF57D6E5BE2B",
"%. c #E0E3D6DABABF",
"&. c #E167D754BB28",
"*. c #E16ED75CBB2F",
"=. c #E13AD752BB87",
"-. c #E1C3D7CBBBE9",
";. c #E1A6D7C7BC71",
":. c #E276D86ABC31",
">. c #E201D884BD6D",
",. c #E2E2D9CBBEBE",
"<. c #E412DAE9BFBE",
"1. c #CC5AC760C082",
"2. c #DE63D7BDC1F5",
"3. c #DF97D8E9C2BF",
"4. c #E04BD8E2C3C4",
"5. c #E26EDA16C0F6",
"6. c #E38FDA2CC0DD",
"7. c #E2C0D97FC1AE",
"8. c #E1B1D9CCC331",
"9. c #E2BDDA9EC3A4",
"0. c #E4F3DBF7C2CE",
"q. c #E569DC66C32F",
"w. c #E2A8DB1BC463",
"e. c #E343DB17C5F3",
"r. c #E6E4DEDCC6C2",
"t. c #E766DF65C739",
"y. c #E6A3DEB6C79E",
"u. c #E5E0DEF5CA41",
"i. c #E6A5DEEBC898",
"p. c #E5DEDEF8CA52",
"a. c #E8F0E1DACAD0",
"s. c #E936E33DCF8B",
"d. c #E963E36BCFAD",
"f. c #EAE7E3EFCECC",
"g. c #EB4DE42CD1CA",
"h. c #EAB3E4B0D0E6",
"j. c #EBFFE5EED1FF",
"k. c #EB2AE4F2D26A",
"l. c #ECE7E6D3D2CE",
"z. c #ED69E7E3D7B3",
"x. c #EEEEE8F6D6D6",
"c. c #EE20E7D0D863",
"v. c #F0F0EBDDDADA",
"b. c #F2F2EDFBDEDE",
"n. c #F502F0FEE31B",
"m. c #F814F511EB23",
"M. c #FCB0FA9FF641",
/* pixels */
"M.M.M.M.M.M.M.M.M.M.M.M.M.M.M.M.M.M.M.M.M.M.",
"m.m.m.m.m.m.m.m.m.m.m.m.m.m.m.m.m.m.m.m.m.m.",
"n.n.n.n.n.n.n.n.n.n.n.n.n.n.n.n.n.n.n.n.n.n.",
"b.b.b.b.b.b.b.b.b.b.b.b.b.b.b.b.b.b.b.b.b.b.",
"v.v.v.v.v.v.v.v.v.v.v.v.v.v.v.v.v.v.v.v.v.v.",
"x.x.x.x.x.x.x.x.x.x.x.x.x.x.x.x.x.x.x.x.x.x.",
"l.l.l.l.l.l.l.l.j.h.s.d.h.j.l.l.l.l.l.l.l.l.",
"f.f.f.f.f.f.f.p.} m , 2 m { u.f.f.f.f.f.f.f.",
"a.a.a.a.a.a.2.f X . + # o @ n 3.a.a.a.a.a.a.",
"r.r.r.r.r.o.3   1 i 9 8 q 7 O 0 O.t.r.r.r.r.",
"0.0.0.q.+.r % 5 k Y ! ! G j < $ t $.0.0.0.0.",
",.,.,.<.I = * g H E F F W D a & = I <.,.,.,.",
"%.%.%.:.b : > h ^ Z F F A ~ y - ; c :.%.%.%.",
"%.%.%.-.L w 6 l 1.C F F A ! u 4 e L -.%.%.%.",
"%.%.%.*.( J v M T R F F R S z x K ) &.%.%.%.",
"%.%.%.%..._ ) U d V Q Q V s P / ` X.%.%.%.%.",
"%.%.%.%.>.@.| [ ] B p p N ' .. .#.>.%.%.%.%.",
"%.%.%.%.%.;.7.e.9.8.4.4.8.9.w.5.;.%.%.%.%.%.",
"%.%.%.%.%.%.;.6.i.k.z.c.g.y.6.;.%.%.%.%.%.%.",
"%.%.%.%.%.%.%.%.=.-.;.;.-.=.%.%.%.%.%.%.%.%.",
"%.%.%.%.%.%.%.%.%.%.%.%.%.%.%.%.%.%.%.%.%.%.",
"%.%.%.%.%.%.%.%.%.%.%.%.%.%.%.%.%.%.%.%.%.%."
};
