/* XPM */
static char *closeufcs[] = {
/* columns rows colors chars-per-pixel */
"22 22 247 2",
"   c #24D519BB1F96",
".  c #25891A712049",
"X  c #262A1B1820E9",
"o  c #28581D942325",
"O  c #2A641F962546",
"+  c #2A071FDB253C",
"@  c #2B6420732597",
"#  c #2A5920F92549",
"$  c #2BA7209F25DA",
"%  c #2B64210125E5",
"&  c #2B6122CA25EA",
"*  c #2B6B21D926EE",
"=  c #2C2C212B26DE",
"-  c #2D2B22522782",
";  c #2BC122BB26D0",
":  c #2C51224F27C0",
">  c #2D8022822870",
",  c #2C4922F427B6",
"<  c #2D392346281E",
"1  c #2E5C2344285A",
"2  c #2DCE236B28C8",
"3  c #2D7A24582862",
"4  c #2D5D243F28F9",
"5  c #2E1B24132866",
"6  c #2E3225B3297A",
"7  c #2D9B24C129B6",
"8  c #2F3523E729E1",
"9  c #2DCA24C129B9",
"0  c #2FAB277E2B9D",
"q  c #2FC625D42A4B",
"w  c #309927AA2BD6",
"e  c #315F284E2C1D",
"r  c #315828442D12",
"t  c #323628452D1E",
"y  c #324228D42D76",
"u  c #31DF2A852D9B",
"i  c #32282B092DFB",
"p  c #34CB29582DA5",
"a  c #34FC2D3D304D",
"s  c #350D2C9E3113",
"d  c #357D2E12306F",
"f  c #37162E1F3136",
"g  c #36A72EC03190",
"h  c #369E2E3D324F",
"j  c #39092F3F330C",
"k  c #37132FDE3359",
"l  c #3989317A3497",
"z  c #3989312734E2",
"x  c #39ED30F43532",
"c  c #399D3261354D",
"v  c #395133493558",
"b  c #3A32330D35BE",
"n  c #3B2C33343686",
"m  c #3B8A339A3788",
"M  c #3D4B32EB367C",
"N  c #3E8A349A37AD",
"B  c #3C0D33843812",
"V  c #3E82356B38B9",
"C  c #3F50376039A1",
"Z  c #3DDA388939A4",
"A  c #3F4A38273963",
"S  c #3E4D3965392B",
"D  c #3D4E3A3E383C",
"F  c #3E553A483864",
"G  c #3E083AFC390C",
"H  c #3DCF38823A4F",
"J  c #3F4C3A513A4A",
"K  c #4034383C3B29",
"L  c #40C53CB13AF5",
"P  c #40533CFE3AFE",
"I  c #413A38733C20",
"U  c #407E38D33CC3",
"Y  c #42033AD73BED",
"T  c #439C3A933E8F",
"R  c #43A83B873F31",
"E  c #42B03C673E61",
"W  c #42D33C8D3E85",
"Q  c #45A83BFE3F55",
"!  c #44403D263F43",
"~  c #452A3E1E402D",
"^  c #45033F234008",
"/  c #44C13EC940C2",
"(  c #44D23EDD40CA",
")  c #46B23F4441BD",
"_  c #46B23EB541C3",
"`  c #47973F764271",
"'  c #47D63FBF42B7",
"]  c #454D423A3FC6",
"[  c #46DE41FC4071",
"{  c #46003FF24212",
"}  c #494040534186",
"|  c #484B403F4324",
" . c #4903400842E1",
".. c #482D412F4329",
"X. c #493D41434369",
"o. c #4866423B437B",
"O. c #486140964400",
"+. c #4833412F442A",
"@. c #4949414F4438",
"#. c #48B1439C44AB",
"$. c #4956439545A3",
"%. c #4B8141DD4484",
"&. c #4A4043574546",
"*. c #4A9C436F4672",
"=. c #4C27432D451D",
"-. c #497C444D4478",
";. c #4A21442E462B",
":. c #4B83443D4759",
">. c #4ACB4565477C",
",. c #4CA044AC474E",
"<. c #4C3D45364755",
"1. c #4EEC43FF4706",
"2. c #4E5546144746",
"3. c #4D9C45AA48BC",
"4. c #4DA446A648BC",
"5. c #4CC446DA48FE",
"6. c #4D834798494A",
"7. c #4DD2465848FC",
"8. c #4DE746D949B4",
"9. c #4EB447AE4A84",
"0. c #4F4E4A414974",
"q. c #4E7048764A50",
"w. c #4F4A49554AC0",
"e. c #4F53494D4B32",
"r. c #4F4A4A614A45",
"t. c #4E7B4B384A46",
"y. c #4F1F4A514B5A",
"u. c #519045A148E2",
"i. c #512F45DC4913",
"p. c #523E46424975",
"a. c #51D146EC49E5",
"s. c #522F47644A3C",
"d. c #5329474B4A4D",
"f. c #502B498F4B1A",
"g. c #537748734B76",
"h. c #538C49564B75",
"j. c #50294A624A67",
"k. c #4FF04B2C4A41",
"l. c #511F4A274B68",
"z. c #50244B234B13",
"x. c #50ED4B244B2B",
"c. c #542C48614B5A",
"v. c #50174C244B3D",
"b. c #50DA4C614BC7",
"n. c #50154B024C12",
"m. c #50E64AD14CBD",
"M. c #50E64AC94DB9",
"N. c #51854B744DAC",
"B. c #53664A034C21",
"V. c #51854B744E2C",
"C. c #537D4B924E3B",
"Z. c #555949644D5B",
"A. c #541149FA4C18",
"S. c #55704A2D4D6F",
"D. c #55E44A524DC5",
"F. c #558149734E50",
"G. c #56524A484E4A",
"H. c #505C4C594CCC",
"J. c #51414CB94C3C",
"K. c #50814C794CE2",
"L. c #51BC4DA74D6C",
"P. c #52094C2B4D8F",
"I. c #52A24D794D7A",
"U. c #515C4DF14D54",
"Y. c #52B54EA94DA0",
"T. c #52694ECF4D63",
"R. c #51A74BF44E1C",
"E. c #52094C294E1D",
"W. c #52D84BD14DEB",
"Q. c #52774D574E46",
"!. c #527F4C624F4A",
"~. c #530E4BFF4EDC",
"^. c #52364F1F4EB8",
"/. c #52E54F254E34",
"(. c #53954F9F4FAB",
"). c #54164D4F4F6C",
"_. c #53E54F714E94",
"`. c #541C4E1E4F95",
"'. c #544D4F594F8D",
"]. c #549D51FD4F6F",
"[. c #550C4D1E5031",
"{. c #57494C2F5042",
"}. c #55B34FB850A3",
"|. c #550C4E0550F4",
" X c #583B4C3B505B",
".X c #58434C375130",
"XX c #58494D3E5234",
"oX c #59474D3E5242",
"OX c #594A4D3E52FF",
"+X c #549450185090",
"@X c #553D50385055",
"#X c #54E950F7518F",
"$X c #5668514C523E",
"%X c #577D51CB537C",
"&X c #576051DE5412",
"*X c #586851685547",
"=X c #58495295547B",
"-X c #586555055491",
";X c #58AD549A554E",
":X c #58E054CD5582",
">X c #5A535640564F",
",X c #5B4858285737",
"<X c #5CDB58A9574E",
"1X c #5F16572A5AEB",
"2X c #5BA85829583C",
"3X c #5C74586558A9",
"4X c #5F1A58135A6A",
"5X c #5F715B655BA7",
"6X c #5F3C5C365B55",
"7X c #5ECD59AE5C4E",
"8X c #5F86598E5C03",
"9X c #5F6D5B785C4E",
"0X c #61345B2E5D6D",
"qX c #61345B2E5E52",
"wX c #632560135FA1",
"eX c #65355F3D6233",
"rX c #66EA5FD8630A",
"tX c #635A60576005",
"yX c #64F86109607A",
"uX c #64DC61BC60E2",
"iX c #654961626145",
"pX c #6443623960AE",
"aX c #65676253616E",
"sX c #66C160AC62F5",
"dX c #66EA5FE66302",
"fX c #674663BB62AB",
"gX c #68406456634C",
"hX c #687563696587",
"jX c #68F965F765F6",
"kX c #6AA066B9669C",
"lX c #6A0C67096703",
"zX c #6B6D679E6769",
"xX c #6B6B68686767",
"cX c #6DE36AE06A38",
"vX c #6DF86BE76AC1",
"bX c #6F576C546BB5",
"nX c #71686E6B6D63",
"mX c #745F724E705E",
"MX c #75A8739771B2",
"NX c #760173F07200",
"BX c #766674557272",
"VX c #771A75097317",
"CX c #779870987471",
"ZX c #7A54745C781A",
"AX c #899C83888697",
"SX c #93C78DC190CF",
"DX c #93C78DC1918F",
/* pixels */
"XXXXoXoXoXoXoXoXoXoXoXoXoXoXoXOXOXoXoXoXoXOX",
"{.{. X X X X X X X.X.X X X.X.X X X X.X.X.X.X",
"Z.Z.Z.S.S.S.S.S.S.F.G.G.G.G.G.G.D.S.F.F.F.G.",
"g.g.g.c.c.c.d.p.p.p.p.p.p.p.i.i.u.u.u.u.u.u.",
"A.B.A.A.h.%.N p 8 1 8 8 - % o X . . . .   . ",
"s.s.a.1.M q 2 - $ + + + O @ = - < > > > > > ",
"2.2.Q y , : + 5 j V T T V j 5 + : 5 5 5 5 5 ",
"=. .e ; # * h R ` ' | | ' ` R h & # 4 3 3 5 ",
"} x w , 9 B O.X.X.X.X.@.X.X.X.| m 7 < 0 r t ",
"Y g u 6 n O.*.*.:.*.*.*.*.:.*.*.+.n 6 i d f ",
"A b a l _ 3.,.C.1X[.7.4.|.4XW.<.4.) z s c n ",
"I C k U :.9.8.~.rXCX*X*XCXdX~.8.9.:.U k C K ",
"! E v { f.l.l.l.).sXAXAXsX).l.l.l.f.{ v W ~ ",
"..o.Z #.R.!.R.m.N.qXDXSX0XV.M.E.Q.E.$.H o.&.",
"&.6.( ;.E.`.P.R.8XZXeXeXZX8XR.P.`.E.;./ q.e.",
"-.I.6.>.P.}.P.=XhX7Xn.n.7XhX=XP.}.P.>.6.'.@X",
"^ $X%X5.w.'._.I.b.j.0.0.x.J.I.'.+Xy.5.&X>X>X",
"J y.3X:XK.H.(.Y.J.z.r.r.z.J.Y.(.H.K.;X5X9X9X",
"F L -XwX,X^.U./.U.v.t.t.v.U./.U.^.,XuXaXaXaX",
"S S [ <XgXyX2X#X(.L.k.k.L.(.#X2XiXkXzXzXxXxX",
"F F F P T.fXcXjXwX6X2X2X6XtXlXbXnXnXnXnXnXnX",
"D D D D G ] ].pXvXmXMXMXNXMXBXVXVXVXVXVXVXVX"
};
