/* XPM */
static char *closepr[] = {
/* columns rows colors chars-per-pixel */
"22 22 136 2",
"   c #1874176A161B",
".  c #1B95181115B5",
"X  c #22031A041594",
"o  c #2B7C1E3A1628",
"O  c #241F223F1F93",
"+  c #2C6C225D1B7C",
"@  c #343C21B516E4",
"#  c #3300233119A2",
"$  c #3A1626041A2C",
"%  c #244022E720B4",
"&  c #2ADB28D62645",
"*  c #32BF28D6220D",
"=  c #3E952B762047",
"-  c #32822EC32BC7",
";  c #35A8302A2B3B",
":  c #365A34FF31D3",
">  c #3C273B0336E5",
",  c #3E1E3CB2393B",
"<  c #447C2BBD1DD8",
"1  c #49C32D641D59",
"2  c #42492D7620F1",
"3  c #4A48320A23B6",
"4  c #41AC34C22CA2",
"5  c #4DE339FD2E8C",
"6  c #50C635502615",
"7  c #5D10394D24B7",
"8  c #568E38BA27E9",
"9  c #5B1C3B1D2957",
"0  c #59123F632FE4",
"q  c #5FE13DCE2AF6",
"w  c #432C417F3E1B",
"e  c #5BA340653015",
"r  c #648841402D9F",
"t  c #6AAD42B72C49",
"y  c #632345D33503",
"u  c #6BEF47A432C2",
"i  c #65B94B923CBB",
"p  c #73594BB83548",
"a  c #746E4E83389F",
"s  c #7EA750B036AD",
"d  c #7D5052423A32",
"f  c #461B44D3416A",
"g  c #4914470543CF",
"h  c #4A7249804524",
"j  c #4ECC4DB2496D",
"k  c #504B4EBE49D9",
"l  c #53CC52B44E3F",
"z  c #5D8454524C45",
"x  c #5526543C50DE",
"c  c #583B57495252",
"v  c #5A4D5A1C5532",
"b  c #65F752724609",
"n  c #7C7D56AF3FF4",
"m  c #75C85CE04D3A",
"M  c #64C05B1652FA",
"N  c #60AD60605D33",
"B  c #79BD619E5216",
"V  c #7DF2674F58B4",
"C  c #666766666363",
"Z  c #690F666B61B6",
"A  c #6C5E6C6C696E",
"S  c #75F16C6A649D",
"D  c #732172706F15",
"F  c #7840781D7509",
"G  c #81934D75305B",
"H  c #8494510D33CE",
"J  c #83DD54D13A7E",
"K  c #859258563EA4",
"L  c #8C9258B63BBE",
"P  c #92165C2A3D76",
"I  c #99865E013C24",
"U  c #9E55612A3E4B",
"Y  c #85325A9F41FE",
"T  c #8F345F774466",
"R  c #93E25EE54115",
"E  c #84F262E54EB5",
"W  c #934C6080439E",
"Q  c #9D0A63CC436B",
"!  c #9DD16833495E",
"~  c #893B65CC509C",
"^  c #8CE3685552C4",
"/  c #92316CCD56AE",
"(  c #9F996F7853F1",
")  c #A20167414627",
"_  c #A66168E94618",
"`  c #A4F06B944B19",
"'  c #AC356E8A4B91",
"]  c #AE71712C4E30",
"[  c #B2D072BF4E90",
"{  c #B94B75664FC2",
"}  c #A36672B95660",
"|  c #AEDB731D50A8",
" . c #A63F756F580B",
".. c #A9AD77F35B5B",
"X. c #AFF179075A79",
"o. c #B60476015152",
"O. c #BA6F76EA50B3",
"+. c #B641794F564C",
"@. c #BDAD7A495469",
"#. c #B3C37B585C18",
"$. c #BB6E7ECB5CBD",
"%. c #889572556443",
"&. c #8F1E781B68D2",
"*. c #9D0F77E5616B",
"=. c #805D782570CA",
"-. c #ACA37D5C6293",
";. c #B30F7E006059",
":. c #C1347C90566D",
">. c #BD5680875E62",
",. c #B47E816664BE",
"<. c #BB8284726582",
"1. c #B71C85AA693D",
"2. c #B91B86B56A2E",
"3. c #BC868A056DC0",
"4. c #AE8B8F517D98",
"5. c #B6488AD1726C",
"6. c #BCB08D34729D",
"7. c #B7068EA278A8",
"8. c #AF4B919C7FEE",
"9. c #B5F391137BFC",
"0. c #B8AA92957D2A",
"q. c #C27986A7648D",
"w. c #C2918B386C14",
"e. c #C43C8F757142",
"r. c #C4F69174745E",
"t. c #C4C896827BC9",
"y. c #C6AF994F7FD5",
"u. c #B64E94FE8253",
"i. c #B7F898E686E8",
"p. c #B7349C888CBE",
"a. c #BA969DD78DB8",
"s. c #BAB09FEB90BF",
"d. c #B98DA25294C7",
"f. c #C5439C84849A",
"g. c #C3CF9F4F89C6",
"h. c #C53EA0B38B3F",
/* pixels */
"v v v v c v v v v v v v v v v v v v v v v v ",
"c c c c c c c c c c c c c c c v c x c c c c ",
"l l l l l l l l l l l l l l l l l l x x x l ",
"l l l l l l l k k k k k k k k k j j j j j j ",
"l l l l l g > & + + + # + o X .             ",
"j j k g : + # @ $ $ $ # $ $ @ @ + % % % % % ",
"j j w & + @ $ 7 U ,.u.8...Q 7 $ @ # & % % % ",
"g f & o @ 1 d ,.9.p.d.d.p.9.X.s < @ + % % % ",
"f : # $ 1 K ,.7.i.d.d.d.s.u.5.>.J 1 $ * & & ",
", ; = < G [ 1.9.p.s.d.s.s.i.9.,.' G 1 2 ; ; ",
"> 4 3 t Q +.2.7.,.0.a.s.0.,.5.1.o.U t 3 : : ",
", 5 6 G ' $.2.3.] ! 5.3.) ] 2.1.$.' H 8 8 , ",
"w 0 9 I { >.<.3.6.' H J [ 3.3.<.$.{ I 9 e w ",
"f y r U O.$.<.3.6.X.s s X.6.6.<.>.@.U t y g ",
"f i u P [ $.3.6.#.R +.+.W #.6.3.>.o.I a i j ",
"f b a L [ $.w.3.[ <.g.g.<.[ 3.w.>.[ L d b x ",
"w z n J ) @.q.t.f.h.h.f.h.f.t.3.@._ J Y M v ",
", j m Y P ] <.e.t.f.f.f.f.t.r.q.] U T B N N ",
", , v E W Q ] q.r.t.y.y.t.r.w.| Q ! ^ C C C ",
"> > f M ^ ! Q ' @.q.w.r.q.:.[ _ ! ^ S A A A ",
"> > , , l V ( ' ' ` ` ] ' ] [  .%.D D D D D ",
"> > > > > w z B /  .+.+...*.&.F F F F F F F "
};
