/* XPM */
static char *closefcs[] = {
/* columns rows colors chars-per-pixel */
"22 22 151 2",
"   c #18691769161F",
".  c #19C318CB1715",
"X  c #1D231C2219EE",
"o  c #20201F1F1CF2",
"O  c #21B8209B1F03",
"+  c #240D2323211C",
"@  c #2A0025AB228D",
"#  c #2ADC2901266F",
"$  c #2D912D422B1A",
"%  c #3DB62BF82365",
"&  c #30272F2E2D24",
"*  c #311C30292D19",
"=  c #34B734693239",
"-  c #3735381B36A3",
";  c #3BB43ADC36FA",
":  c #370439563832",
">  c #3D723D233A46",
",  c #3FC02BAE22D0",
"<  c #3FD53FA23D88",
"1  c #53C23CA23365",
"2  c #66743CD82B1D",
"3  c #427241773E6F",
"4  c #6D9E4C8D398B",
"5  c #79624FCF3DC5",
"6  c #452D45254227",
"7  c #483846DA44C1",
"8  c #4A7949C745D6",
"9  c #4E774DBC49AF",
"0  c #50444F414AE8",
"q  c #53AA529D4E49",
"w  c #542253FD515A",
"e  c #583957275256",
"r  c #5A175A0C557B",
"t  c #5DB85DD55B05",
"y  c #69B5568D4D39",
"u  c #743E540E4110",
"i  c #7CA3530941C5",
"p  c #7EB35DA44B2E",
"a  c #6D2D5B4E5216",
"s  c #62B161285DA1",
"d  c #70C7601F56DD",
"f  c #65C765B362E4",
"g  c #6BE767B462CF",
"h  c #6E436AD76691",
"j  c #6CE16CB2699F",
"k  c #70F96BF86706",
"l  c #71BA6DCB6954",
"z  c #722572016EF1",
"x  c #773D773D7467",
"c  c #781E781E751A",
"v  c #8E5446CF2987",
"b  c #8BEC49A42D8E",
"n  c #922F517635BD",
"m  c #947C546038FC",
"M  c #9FF1560937F1",
"N  c #A7545487317E",
"B  c #A9F757303394",
"V  c #A21A5A803C78",
"C  c #B1FC60B03ED1",
"Z  c #C3D959DC2C82",
"A  c #C5875CC23056",
"S  c #CA295FA93259",
"D  c #CB92624A355B",
"F  c #DC4A658231C7",
"G  c #E5616753329A",
"H  c #E74A6BDC3627",
"J  c #EC6A6B4932FF",
"K  c #E3AC6C9B3B61",
"L  c #F3F16E2F32E4",
"P  c #F54971753738",
"I  c #F6F675A23AA3",
"U  c #F73D78A03D5C",
"Y  c #8E9857A440F3",
"T  c #8FFF5BA74657",
"R  c #805B66245A00",
"E  c #826B698C5CC4",
"W  c #A54F67164C94",
"Q  c #A635695B4F3C",
"!  c #B27762BF4158",
"~  c #A2C66EB25A02",
"^  c #A4E073945F27",
"/  c #B182738A59BE",
"(  c #9296743E640B",
")  c #9AAE78C765BF",
"_  c #978679446A2A",
"`  c #CA9C7E775EC6",
"'  c #E0227B3951C8",
"]  c #E64C72394107",
"[  c #EE6D763E43C9",
"{  c #F50E7E8349A9",
"}  c #E1E27F3655BA",
"|  c #A21680426EF9",
" . c #ACD085136F57",
".. c #A39E8390717A",
"X. c #A9F784E670AA",
"o. c #B3A08F367C7F",
"O. c #B47390D97D79",
"+. c #FB1F822A464D",
"@. c #FAC486574DE8",
"#. c #EF7487EE5D3C",
"$. c #F1D5871F55B1",
"%. c #F8598AD455D4",
"&. c #FB0E8E005608",
"*. c #F3E68A225A95",
"=. c #F96D90FF5B49",
"-. c #DE038765640F",
";. c #DE2E890864FB",
":. c #CD4D92277533",
">. c #C92694077DB8",
",. c #DE5A9A9A76B7",
"<. c #EF0C8BED61F6",
"1. c #F43D8E856284",
"2. c #E83196A96C90",
"3. c #E91096AE6D21",
"4. c #E9359A1E6F9E",
"5. c #F682912061AC",
"6. c #F441952D6AD8",
"7. c #F148989B6F25",
"8. c #E08590807018",
"9. c #E93D9B7D7018",
"0. c #E2719751787A",
"q. c #F4B19962713B",
"w. c #F89D9D84736A",
"e. c #F9D6A13A770A",
"r. c #F64AA25D7CDF",
"t. c #FBD9A5BE7A36",
"y. c #B7559AC88CA4",
"u. c #CB91987982FD",
"i. c #DC95A36686E1",
"p. c #C561A4C49263",
"a. c #E741A9EF8C58",
"s. c #F6CDA5E38210",
"d. c #F823A88D82FD",
"f. c #F1CDAD758ACA",
"g. c #F1FAAE4391BF",
"h. c #ECCBB0C3906E",
"j. c #E250B25B9F37",
"k. c #F979B42594D6",
"l. c #F3C3B4A89919",
"z. c #F85FBA869CFA",
"x. c #FA75B8389A3E",
"c. c #D4B7B27FA131",
"v. c #E313B4C2A1BE",
"b. c #F85ABD24A09F",
"n. c #F8BBBFFFA152",
"m. c #FBEDC24DA511",
"M. c #F796C3A3ACA2",
"N. c #FBB5C432AA1F",
"B. c #FCE1CC31B4E0",
"V. c #FA3DCEECBB8C",
"C. c #FA52D0C1BED9",
/* pixels */
"r r r r y r r r r r r r r r r r r r r r r r ",
"e e e e e e e e e e e e e e e e e e e e e e ",
"q q q q e q q q q q q q q q q e q w q w q q ",
"q q q q q 0 0 0 0 0 0 0 0 0 9 0 9 9 9 9 0 9 ",
"q q q q 9 7 < @ + + + + O O X .         . . ",
"0 9 q 8 - O O @ @ @ # # O # O O + + + O + + ",
"9 9 3 # O O O 3 ^ u.j.j.>.~ 4 O + + + + + + ",
"7 3 # O O % T 9.l.M.V.V.M.h.8.m % + + + + + ",
"6 = # + % M <.s.z.N.B.B.N.k.r.#.M % @ @ # # ",
"> & # # b ] 5.d.z.N.N.m.m.z.r.$.K v $ $ & $ ",
": = $ 2 S U =.i.y.c.m.n.c.y.i.*.P Z 2 = = = ",
"> : = b F U &.,.| ( p.p.( | ,.&.I F b = : > ",
"3 > : N J U +.=.,.) u u ) ,.=.+.U L N : < < ",
"6 6 > N J U +.&.9.X.4 4  .9.&.+.[ H B 6 7 7 ",
"7 8 7 n F P @.9. .p | | p  .2.@.U F m 7 9 9 ",
"7 0 9 u D L $.:._ O.h.h.O._ :.$.P D i w w w ",
"6 w w w Y G { q.a.f.t.t.f.a.q.{ K V e r r r ",
"> 9 t r y C [ *.6.q.w.t.w.6.*.[ ! a t t f t ",
": < e a t a W } <.6.q.q.6.1.} Q d s f f f f ",
"> ; 3 t f f a R / ` -.;.` / E g j j j j j j ",
"; ; > > w f j j j k k k l l l z z z x j x x ",
"; ; ; > > 6 w f l x x x x x c x x x x x x x "
};
