/* XPM */
static char *maxfcs[] = {
/* columns rows colors chars-per-pixel */
"22 22 212 2",
"   c #18681769161F",
".  c #19C718D01719",
"X  c #1D3B1C391A05",
"o  c #204E1F4D1D20",
"O  c #22BE21BD1F90",
"+  c #226E21722064",
"@  c #234B2249204F",
"#  c #234522BF1FDE",
"$  c #23F623862071",
"%  c #244523462142",
"&  c #2432233321CE",
"*  c #2523236C2203",
"=  c #2503240221D5",
"-  c #253824CA2218",
";  c #260E260922FE",
":  c #26DC25DA2429",
">  c #27862696257F",
",  c #280326F024E7",
"<  c #28A1285A259D",
"1  c #29132810263F",
"2  c #299E28E126A6",
"3  c #2A132916272A",
"4  c #2B972A422687",
"5  c #2C2D2B1F291F",
"6  c #2E952D9B2B7C",
"7  c #2EAC2DB72BA9",
"8  c #2F112E2A2C4C",
"9  c #2F612F232C5E",
"0  c #30272F2E2D24",
"q  c #312B302C2D1B",
"w  c #318530842E82",
"e  c #347E337D3117",
"r  c #355D3468324E",
"t  c #3643354D3337",
"y  c #363A35C13263",
"u  c #38BB37B735C2",
"i  c #3880381F3322",
"p  c #38BC37B935BF",
"a  c #3B4B3A563792",
"s  c #3B533B203758",
"d  c #3C4D3B4D3749",
"f  c #3B753A6037BA",
"g  c #3C313B303927",
"h  c #3C913BA03A21",
"j  c #3D443B753A2B",
"k  c #3D323C35383E",
"l  c #3EE63DF139FA",
"z  c #3FB53F803D68",
"x  c #3FD93FA63D8C",
"c  c #417D407C3D45",
"v  c #413D40373E42",
"b  c #424041783F76",
"n  c #431442293E30",
"m  c #445B435A3F5D",
"M  c #452243A84291",
"N  c #44F543FB4009",
"B  c #462F452E413C",
"V  c #4616451541ED",
"C  c #461C4517430D",
"Z  c #465F46384373",
"A  c #4784475B437C",
"S  c #472A4732444F",
"D  c #484646814462",
"F  c #4834473C4533",
"G  c #48BE4846435D",
"H  c #4A1B491A4520",
"J  c #49BD494A46C1",
"K  c #4C2F4B27472F",
"L  c #4BB64B964931",
"P  c #4BC54BCE4924",
"I  c #4D304C2F4831",
"U  c #4F124E11494F",
"Y  c #4CA54C814A64",
"T  c #4DCD4D9B4B28",
"R  c #4E3C4D514B40",
"E  c #4FB84EB54A0C",
"W  c #502B4F244A40",
"Q  c #50504F4F4B3D",
"!  c #50FB50034B0B",
"~  c #526351634C6D",
"^  c #51FE51044D96",
"/  c #531252114D1A",
"(  c #5182517B4E64",
")  c #515C50AE4F32",
"_  c #547153704F4F",
"`  c #537953765082",
"'  c #541053804FE6",
"]  c #550453B35257",
"[  c #544A543C5148",
"{  c #560555E152C4",
"}  c #583B57495252",
"|  c #5896585555CB",
" . c #5A3C5A2D5528",
".. c #582C57DB55F3",
"X. c #597E58BE5689",
"o. c #5A545A535751",
"O. c #5C3E5BE95896",
"+. c #5C175C165942",
"@. c #5EAC5EB75C4C",
"#. c #5FB55FAA5CB2",
"$. c #60305FCE5D05",
"%. c #606060605D5D",
"&. c #61F9617D5ED7",
"*. c #620361875EE2",
"=. c #627262275F82",
"-. c #63AC63AD60EF",
";. c #6490649861EC",
":. c #657F6560624E",
">. c #663E660262DC",
",. c #66656662637B",
"<. c #66B366AF641C",
"1. c #67BE673D643B",
"2. c #685F68586558",
"3. c #6A1769186529",
"4. c #6ABC6A3C6637",
"5. c #6A256A0966F1",
"6. c #6B326B256815",
"7. c #6C6C6C6C6969",
"8. c #6E906E8B6B8B",
"9. c #6ED96ED96C9A",
"0. c #7013700F6D17",
"q. c #730C70F66C0A",
"w. c #726872686F66",
"e. c #745F72B470B4",
"r. c #752375237230",
"t. c #768976897393",
"y. c #775377537450",
"u. c #781B781B7518",
"i. c #809E7DC27A33",
"p. c #8967884B8803",
"a. c #89728862880E",
"s. c #931792099041",
"d. c #926B91EF9136",
"f. c #931792AE90E7",
"g. c #94EE936091F3",
"h. c #97F3958E933C",
"j. c #986796E4949A",
"k. c #9AA7988B938E",
"l. c #9E1499E390F9",
"z. c #9DC19A13914C",
"x. c #994C986F9789",
"c. c #9A9F991E9739",
"v. c #9E5D9CC69A29",
"b. c #A2B99FD49922",
"n. c #A6B3A5A2A3F8",
"m. c #AEF4AAFDA288",
"M. c #AD92AC83AA06",
"N. c #B71DB201A607",
"B. c #B31CB0FFAB64",
"V. c #B3B6B0B3ADDF",
"C. c #B601B3AEAECC",
"Z. c #BB4AB961B836",
"A. c #BC01BAD0B8EE",
"S. c #BD8EBD50BA7C",
"D. c #BFFDBDFDBB11",
"F. c #CCF6C662B832",
"G. c #C84BC604C17F",
"H. c #C9FFC759C0F3",
"J. c #C84BC667C1E1",
"K. c #CD27C89AC08D",
"L. c #CDE1CAD6C67D",
"P. c #CDD4CB83C870",
"I. c #D530CEF2C1F4",
"U. c #D2FFD065CDBA",
"Y. c #D850D510CDB9",
"T. c #DC87DA09D6A5",
"R. c #DDFBDD02DAEA",
"E. c #E16BDA87CCD9",
"W. c #E2ACDBBECDE3",
"Q. c #E40EDD08CF09",
"!. c #E2ECDD5BD2B1",
"~. c #E6FEE003D3F7",
"^. c #E0B3DCE8D507",
"/. c #E75BE06AD456",
"(. c #E7E9E0F0D4D6",
"). c #E6FAE3DFE043",
"_. c #EAEAE4E4D9D9",
"`. c #EBC0E5AFDA98",
"'. c #EA99E5ADDBE0",
"]. c #EBB1E6C1DCDD",
"[. c #ECB6E7BBDDC7",
"{. c #EC15E86BDFB5",
"}. c #EDECE8E7DEDE",
"|. c #E7B7E510E313",
" X c #E68FE582E33D",
".X c #EFE1EADFE0B4",
"XX c #EEE0EADAE207",
"oX c #EFAAEBCBE5D6",
"OX c #F0DCECCAE3DE",
"+X c #F18AEDE3E7B9",
"@X c #F236EE75E7FF",
"#X c #F146EDBCE99D",
"$X c #F149EF3FEC3A",
"%X c #F554F14DED80",
"&X c #F5A8F2A4EEB2",
"*X c #F86AF669F38F",
"=X c #F875F67FF39A",
"-X c #F9DBF5E3F1B8",
";X c #F890F59EF2C3",
":X c #F9FAF6EEF2F7",
">X c #F8D2F7BBF4CC",
",X c #FB06F812F4FD",
"<X c #FBFAF8E8F4E9",
"1X c #FB13F906F621",
"2X c #F9E1F905F706",
"3X c #FAA7F9A4F6B2",
"4X c #FBF5F9E5F6F2",
"5X c #FC30FA3DF828",
"6X c #FCFDFAFFF80B",
"7X c #FDCDFAD0F7B5",
"8X c #FCFFFB0BF8EC",
"9X c #FCAEFB9FF8B8",
/* pixels */
" . . . . . . . . . . . . . . . . . . . . . .",
"} } } } } } } } } } } } } } } } } } } } } } ",
"_ _ _ _ _ _ _ _ _ _ _ _ _ _ _ _ _ _ _ _ _ _ ",
"U U U U U U U U E E E E E E W ! ~ ~ ~ ~ ~ ~ ",
"            . X o O = = @ * 4 i G ~ / / / / ",
"@ @ @ @ @ # $ : 5 7 w w 7 5 , - ; y K E Q Q ",
"% % % % & : 8 ] j.S.R.R.S.j.] 8 : + 3 c I I ",
"% % % & > M g. X>X3X9X9X3X>X Xg.M > + 1 V H ",
"3 3 < 2 J M.2X5X8X8X8X8X8X8X5X2XM.J 1 1 e B ",
"0 9 8 p v.$X6X4X4X1X*X=X1X4X4X6X$Xv.u 6 q l ",
"t r t e.U.7X,X,X;X|.Z.A.|.;X,X,X7XU.e.t t s ",
"g a h h.).<X:X&XT.n.p.a.n.T.&X:X<X).h.h f j ",
"b x b V.%X-X#XP.x.d.D.D.d.x.P.#X-X%XV.b z v ",
"F Z S B.@X+XG.s.c.L.oXoXL.c.f.J.+X@XB.S Z C ",
"R Y L k.^.{.H.C.Y.XXOXOXXXY.C.H.{.^.k.P L D ",
"[ ` ) i.K..X].'.[.}.}.}.}.[.'.]..XK.i.) ( A ",
"o.o.X...b.!.`._._._._._._._._.`.!.b...X.{ n ",
"%.%.#.+.4.m.~./.(.(.(.(.(.(./.~.m.4.+.+.T k ",
",.,.,.:.@.3.z.I.E.W.Q.Q.W.E.I.z.3.@.-.| l d ",
"7.7.7.7.6.<.&.q.l.N.F.F.N.l.q.*.,.2.O.N d d ",
"w.w.w.w.w.w.0.6.>.=.$.$.=.:.5.8.1.^ l d d d ",
"u.u.u.u.u.u.u.y.t.t.t.t.r.9.;.' m k d d d d "
};
