/* XPM */
static char *maxpr[] = {
/* columns rows colors chars-per-pixel */
"22 22 198 2",
"   c #186B176A1621",
".  c #1911181616C7",
"X  c #1B641A1718CA",
"o  c #1E471C8F1B15",
"O  c #1FE21EE11CB5",
"+  c #212E202D1E44",
"@  c #21F620FF1F86",
"#  c #21BE20BD1FA5",
"$  c #2340223F204C",
"%  c #23D622D62087",
"&  c #243B233A213C",
"*  c #2591249022F9",
"=  c #25F724F1225E",
"-  c #25C724C122C2",
";  c #268B260C2287",
":  c #264425552405",
">  c #293A2837264A",
",  c #29F028EE2696",
"<  c #2A2329292721",
"1  c #2B412A38271D",
"2  c #2AE329EE27E0",
"3  c #2B962A8B28EF",
"4  c #2BB32ABE28BC",
"5  c #2D282C272A24",
"6  c #2E9F2D9E2B6D",
"7  c #2F082E3C2C05",
"8  c #2F612F232C5E",
"9  c #30272F2E2D24",
"0  c #312B302C2D1B",
"q  c #347E337D3117",
"w  c #355C34673259",
"e  c #3617351B330F",
"r  c #36C23651325D",
"t  c #387A380A336F",
"y  c #3B533B203758",
"u  c #3C4D3B4D3749",
"i  c #3B1439993883",
"p  c #3B6C3A673874",
"a  c #3C693B723972",
"s  c #3D453B763A35",
"d  c #3D323C35383A",
"f  c #3EE63DF139FC",
"g  c #3FCF3F683CD7",
"h  c #417D407C3D4A",
"j  c #409440553E54",
"k  c #414640403E4C",
"l  c #4208413E3F35",
"z  c #431442293E30",
"x  c #446B43693F65",
"c  c #44F543FA4008",
"v  c #462F452E413C",
"b  c #4616451541ED",
"n  c #45F044E84321",
"m  c #4785475B4385",
"M  c #473946444441",
"N  c #4782474C449B",
"B  c #484F46814463",
"V  c #483D473D453B",
"C  c #48C64847434F",
"Z  c #4A1B491A4520",
"A  c #4C284B1F4725",
"S  c #4C894B75496E",
"D  c #4D304C2F4831",
"F  c #4C934C6949B4",
"G  c #4F2E4E2B496A",
"H  c #4D734C814A7C",
"J  c #4DCD4D9B4B28",
"K  c #4E444D514B42",
"L  c #4FBB4EBA4A58",
"P  c #50274F254A4B",
"I  c #50504F4F4B3D",
"U  c #50FB50034B11",
"Y  c #526551644C6D",
"T  c #51FC51024D04",
"R  c #531252114D1A",
"E  c #51A0519C4F6A",
"W  c #535952C84F2F",
"Q  c #547153704F4F",
"!  c #51DD51E84FDC",
"~  c #538553775145",
"^  c #544B543C5150",
"/  c #560555E152D0",
"(  c #583B57495252",
")  c #589C585B55D2",
"_  c #5A3C5A2D5528",
"`  c #58865886564A",
"'  c #598F5991569D",
"]  c #5A545A545757",
"[  c #5C475BF2589F",
"{  c #5D255D2B5A4B",
"}  c #606260625D5F",
"|  c #60D060D25E68",
" . c #615F60585E4D",
".. c #62CA62D15FC6",
"X. c #644E644F6190",
"o. c #650D649261FA",
"O. c #65AA657B62BD",
"+. c #666866686365",
"@. c #675966CF635B",
"#. c #67C3674263CE",
"$. c #6779673E6400",
"%. c #67A2679C6509",
"&. c #686067E3646B",
"*. c #686567E86470",
"=. c #686B6868659D",
"-. c #69BC699965A0",
";. c #6A4A6A27662F",
":. c #6BBF6BC068BF",
">. c #6CA36C91688D",
",. c #6C6C6C6C6969",
"<. c #6DDC6DCA69C5",
"1. c #6D416D416A32",
"2. c #6F686F626C0E",
"3. c #71066F956B01",
"4. c #70F670F06D9D",
"5. c #7321713C6DF8",
"6. c #71F370E56FB2",
"7. c #729B71326FD5",
"8. c #726B726B6F6A",
"9. c #73F173F170F0",
"0. c #7507743B7149",
"q. c #76C976C973C8",
"w. c #773C773C7439",
"e. c #781C781C7518",
"r. c #7C6C7A117771",
"t. c #7A1C79CD7852",
"y. c #7C9C7BA67944",
"u. c #7C607C357A38",
"i. c #7F157E507D2F",
"p. c #837682167DBE",
"a. c #818080EB7E65",
"s. c #859984918214",
"d. c #867285708398",
"f. c #8CDD8A318331",
"g. c #8CFD8AA88526",
"h. c #8EAD8C3584B3",
"j. c #8F278EEA8C23",
"k. c #91A68EA58C74",
"l. c #92B291428C54",
"z. c #933891658F63",
"x. c #976F94738D7F",
"c. c #9338921D901B",
"v. c #969D945290AA",
"b. c #99B1989C95A8",
"n. c #A09F9CA69397",
"m. c #A1729FBF9BEE",
"M. c #A172A0229C51",
"N. c #A3BEA17E9F3E",
"B. c #A445A23D9D64",
"V. c #A571A35C9F34",
"C. c #A8D9A5479EDD",
"Z. c #A5FDA504A2FA",
"A. c #AFE4AB2FA0B3",
"S. c #ABBAA9F6A74E",
"D. c #AEBCABCBA652",
"F. c #ABD1AAD7A8D4",
"G. c #B3F1AF05A4F1",
"H. c #B1E2B00CADFE",
"J. c #B466B1A4AB5C",
"K. c #B386B07AAD85",
"L. c #BA25B59DAD71",
"P. c #BC44B764ACA3",
"I. c #BD2EB835AD5F",
"U. c #BE25B921AE33",
"Y. c #BE8AB985AFEB",
"T. c #B666B548B252",
"R. c #B839B73BB52A",
"E. c #BC2BB98AB2D9",
"W. c #BD6CB972B1AB",
"Q. c #BEB4B9AEB09B",
"!. c #BE2BBA36B25D",
"~. c #BEE8BAE4B300",
"^. c #BFB1BABAB2A4",
"/. c #BFBFBBBAB3C1",
"(. c #B985B891B682",
"). c #BAF2B9F2B7EF",
"_. c #BBA3BA00B801",
"`. c #BB4EBA45B75F",
"'. c #BCC8B9E9B4ED",
"]. c #BE52BB4DB462",
"[. c #BC7AB980B665",
"{. c #BD93BAD9B7E9",
"}. c #BE87BBD9B69E",
"|. c #BFB1BCA0B5A8",
" X c #BC30BB37B926",
".X c #BD24BC16B92F",
"XX c #BDE4BB40B925",
"oX c #BCBEBBBDB9AD",
"OX c #BF72BC02B938",
"+X c #BDC7BCABB9C4",
"@X c #BFBABCD2BAB3",
"#X c #BE8EBD67BA81",
"$X c #C04DBB4CB32A",
"%X c #C119BD19B501",
"&X c #C0C6BDBCBAC7",
"*X c #C225BF21BC2C",
"=X c #C259BF64BC3B",
"-X c #C1AFBEB8BC99",
/* pixels */
"_ _ _ _ _ _ _ _ _ _ _ _ _ _ _ _ _ _ _ _ _ _ ",
"( ( ( ( ( ( ( ( ( ( ( ( ( ( ( ( ( ( ( ( ( ( ",
"Q Q Q Q Q Q Q Q Q Q Q Q Q Q Q Q Q Q Q Q Q Q ",
"G G G G G G G G G G G G G L P U Y Y Y Y Y Y ",
"            . X o O + + + & 1 t C Y R R R R ",
"$ $ $ $ $ $ % = > 2 5 5 4 , - & ; r A L I I ",
"& & & & & - 3 n 0.j.Z.Z.j.0.n 3 * @ , h D D ",
"& & & & : i 7.F.R.(.).).(.R.F.7.i : # > b Z ",
"< < > , g s._. XoXoXoXoXoXoX X_.s.g > > q v ",
"9 8 7 e y.T.#X+X+X.X`.`..X+X+X#XT.y.e 6 0 f ",
"e w e  .N.-X@X@XXXH.z.c.H.XX@X@X-XN. .e e y ",
"a p a r.K.*X&X{.S.d.6.6.d.S.{.&X*XK.r.a p s ",
"l j l k.OX=X[.N.i.t.b.b.t.i.N.[.=XOXk.l j k ",
"V M N l.}.}.m.y.a.V.'.'.V.a.u.M.}.}.l.N M n ",
"K H F p.J.E.B.v.D.].|.|.].D.v.B.E.J.p.F S B ",
"^ ~ E 5.C.%X!.W.~././././.~.W.!.%XC.5.! E m ",
"] ] ' ` g.L.$X^.^.^.^.^.^.^.^.$XL.g.` ' / z ",
"} } } { @.x.Y.Q.Q.Q.Q.Q.Q.Q.Q.Y.x.@.{ { J d ",
"+.+.+.O.| *.f.G.P.I.U.U.I.P.G.f.&.| X.) f u ",
",.,.,.,.:.=.o.3.h.n.A.A.n.h.3.o.%.=.[ c u u ",
"8.8.8.8.8.8.4.<.;.$.O.O.$.-.>.2.#.T f u u u ",
"e.e.e.e.e.e.e.w.q.w.w.q.9.1...W x d u u u u "
};
