/* XPM */
static char *maxufcs[] = {
/* columns rows colors chars-per-pixel */
"22 22 229 2",
"   c #258C1A93204A",
".  c #25971A9B2061",
"X  c #26921B98214C",
"o  c #29071E5623CA",
"O  c #2A3920852557",
"+  c #2A1120F2250C",
"@  c #2B64215A2596",
"#  c #2B29212425EC",
"$  c #2BB2219225E5",
"%  c #2C36221926E8",
"&  c #2D94229A2795",
"*  c #2C6022E826E5",
"=  c #2D00232D2783",
"-  c #2C4D233E27BA",
";  c #2D642358285A",
":  c #2D60235D28BF",
">  c #2E5C2361285A",
",  c #2D3B24102811",
"<  c #2E652471287C",
"1  c #2E47250B284F",
"2  c #2E13243528E2",
"3  c #2E2124FB28B0",
"4  c #2EEA24E22959",
"5  c #2E7925C12977",
"6  c #2E7C26A9297B",
"7  c #2F3023FF29E1",
"8  c #2E3325B129BA",
"9  c #2FDD26C62A59",
"0  c #3125287F2BDB",
"q  c #322228592D04",
"w  c #3245297F2D87",
"e  c #32D72B7A2DA9",
"r  c #323929292E0A",
"t  c #33232B232E33",
"y  c #34C429752DA5",
"u  c #351A2D5F313F",
"i  c #364C2E20316F",
"p  c #37992F9131A0",
"a  c #371F2E2D3237",
"s  c #376A2E953304",
"d  c #39092F7F330C",
"f  c #371430C83366",
"g  c #380730C73360",
"h  c #398F318834D9",
"j  c #39CA303233CC",
"k  c #395A33583593",
"l  c #3ADF31E73562",
"z  c #3A22335B355F",
"x  c #39A9326F363F",
"c  c #3A4C332836A3",
"v  c #3BAF334736B3",
"b  c #3B373338371E",
"n  c #3BAF343436BC",
"m  c #3D5333E436EF",
"M  c #3F1A34B637A5",
"N  c #3C94348A3809",
"B  c #3E88365E38C1",
"V  c #3F3C384039A8",
"C  c #3D4E3A3E383C",
"Z  c #3E533A5B3864",
"A  c #3F363A483871",
"S  c #3E553A49392C",
"D  c #3E083AFC390C",
"F  c #3F5938363A48",
"G  c #3E8238C03A84",
"H  c #3EC938BC3A56",
"J  c #3F5A3A5F3A4A",
"K  c #4026384839C2",
"L  c #403439203B37",
"P  c #40533D0C3B0D",
"I  c #40E63CBF3AF5",
"U  c #414239573C2E",
"Y  c #407E39BA3CC5",
"T  c #40CC39BA3CC5",
"R  c #42F63AEE3C09",
"E  c #439D3B853E9D",
"W  c #42CA3C843E61",
"Q  c #42D63CAA3F55",
"!  c #444F3D423F43",
"~  c #45E53C083FA5",
"^  c #43AF3B823FE2",
"/  c #44AA3B914036",
"(  c #45373E3A4043",
")  c #44D63F2F40CD",
"_  c #46BB3F4C41BD",
"`  c #46C33F5A4245",
"'  c #47A53F794278",
"]  c #48983F87436F",
"[  c #450340074008",
"{  c #454D423A3FC6",
"}  c #46DE42E14124",
"|  c #460940004214",
" . c #46F640004219",
".. c #48453FD64347",
"X. c #4A3241454270",
"o. c #491142144329",
"O. c #492242F64352",
"+. c #483A402E4403",
"@. c #491F403843D6",
"#. c #495E414B4434",
"$. c #4A31414B444B",
"%. c #48B043494494",
"&. c #499F43974599",
"*. c #4A4042314461",
"=. c #4A564374454B",
"-. c #4B6C43674663",
";. c #4BFB41F244F5",
":. c #497C445C4478",
">. c #4A2A44274632",
",. c #4B12442B4626",
"<. c #4A2A45174631",
"1. c #4B0F4551477B",
"2. c #4C444417461E",
"3. c #4C1A4420471D",
"4. c #4C3045124775",
"5. c #4EEB44F747FF",
"6. c #4D5D4659486E",
"7. c #4D68465B494A",
"8. c #4CC4471F4973",
"9. c #4D8847A9494E",
"0. c #4F39462A4847",
"q. c #4E81485E4A4B",
"w. c #4F4448704A54",
"e. c #4F6549724B53",
"r. c #4F4A4A6F4A53",
"t. c #4E7B4B474A46",
"y. c #4F584B214A61",
"u. c #4F604A164B6F",
"i. c #4EF54ACB4B71",
"p. c #519646894939",
"a. c #51D146CB491E",
"s. c #523947204977",
"d. c #5049498F4B3F",
"f. c #512C49A24B21",
"g. c #534048304A5B",
"h. c #521F48204B1C",
"j. c #502A49F44B4F",
"k. c #51614A674B6B",
"l. c #502B4B394B2E",
"z. c #51DA4A6F4B73",
"x. c #545C49594B83",
"c. c #4FF04C104A41",
"v. c #50174C324B3D",
"b. c #508049734C86",
"n. c #50204A314C0D",
"m. c #51034B1E4C49",
"M. c #51C84BBF4D9D",
"N. c #538349D64C67",
"B. c #54314A414D0D",
"V. c #55764A584E51",
"C. c #56504A574E4E",
"Z. c #51124CBE4C10",
"A. c #51124CE44C18",
"S. c #50784C754CE4",
"D. c #52424C864DB5",
"F. c #52A64D9B4DB9",
"G. c #517C4E2E4D5C",
"H. c #52B24E4F4DA3",
"J. c #52694EDD4D72",
"K. c #52634C594E8F",
"L. c #522E4CFD4E74",
"P. c #52364F2D4EB7",
"I. c #52E54F334E34",
"U. c #53C74DE64EE5",
"Y. c #53784F764FA5",
"T. c #541B4DF84F96",
"R. c #550E4DF84F96",
"E. c #541B4F724F87",
"W. c #53B150AE4FB7",
"Q. c #549D51FD4F6F",
"!. c #55834F9A5092",
"~. c #55CD4FC151B5",
"^. c #58484C4C5136",
"/. c #594A4E305247",
"(. c #594A4E305335",
"). c #5A364E305243",
"_. c #5493500F508B",
"`. c #553D50385055",
"'. c #54E951DC518F",
"]. c #56685231523E",
"[. c #576F52A55420",
"{. c #588153625532",
"}. c #59F152AC55B6",
"|. c #59975352569C",
" X c #58625513549D",
".X c #58AD549E5568",
"XX c #58E054D15586",
"oX c #5BA154B656C8",
"OX c #5A535640564F",
"+X c #5B485836576C",
"@X c #5C52554A5860",
"#X c #5C51554A5918",
"$X c #5BA858A2583A",
"%X c #5C74587458B4",
"&X c #5CDB598E5838",
"*X c #5E0157FE5A81",
"=X c #5EF859905B47",
"-X c #5F715B715BB2",
";X c #5F3C5C445B55",
":X c #5EF859D65BE2",
">X c #5F6D5B785C4E",
",X c #632560215FA8",
"<X c #635A60656005",
"1X c #64DC61CA61D2",
"2X c #6443623960AE",
"3X c #654362376143",
"4X c #656C625B621D",
"5X c #674663C962B2",
"6X c #687561F064FE",
"7X c #6840653A643A",
"8X c #68F9660565F6",
"9X c #6AA0679D66A1",
"0X c #6A0C67176703",
"qX c #6B6C6869676F",
"wX c #6DE36AEE6A37",
"eX c #6DF86BE76AC1",
"rX c #6F576C626BB5",
"tX c #72AE6BBF6FA2",
"yX c #73736BC46EF0",
"uX c #71696E746D63",
"iX c #74106DFD7184",
"pX c #75CF6FCB7369",
"aX c #745F724E705E",
"sX c #75A8739771B2",
"dX c #760173F07200",
"fX c #766674557272",
"gX c #771A75097317",
"hX c #7A9773A5773B",
"jX c #7FB679907C8C",
/* pixels */
"(.(./././././././././././.).).).).).).).).).",
"^.^.^.^.^.^.^.^.^.^.^.^.^.^.^.^.^.^.^.^.^.^.",
"V.V.V.V.V.V.V.V.V.C.C.C.C.C.C.C.C.C.C.C.V.V.",
"p.p.p.p.p.p.p.a.a.s.p.s.s.s.s.g.x.x.x.x.x.x.",
". . . . .   X o # & 7 7 > 7 y M ;.N.B.B.B.B.",
"; ; ; ; ; , = % @ O + + O $ = 2 9 m 5.h.h.h.",
"2 4 1 1 3 - O 2 d B E E B j 4 # : , w ~ 0.0.",
"< < < 2 @ * s ^ ' ..+.+...] / s * @ - q @.2.",
"r r 0 , 8 N #.$.$.$.*.*.*.$.$.#.N 8 , 0 l X.",
"a i t 5 v #.-.-.-.-.3.3.-.-.-.-.#.n 6 e p R ",
"b x u h _ 6.6.6.6.b.#X@Xb.7.7.7.7.` h u c F ",
"L V f Y 1.q.q.q.T.6XjXjX6XR.w.q.w.4.T g K U ",
"( Q k | d.k.j.|.tXhXoXoXhXyX}.d.z.f. .z W ! ",
",.%.G &.K.M.*XpXiX~.j.j.~.iXpX*XM.K.&.H O.o.",
"e.q.) <.L.L.{.:XL.u.u.e.e.K.=X{.L.L.>.) 9.=.",
"`.E.9.1.D.!.U.D.m.n.e.e.n.m.D.U.!.D.1.9.F.:.",
"OXOX[.8.u._.E.F.Z.l.y.y.l.Z.F.E._.u.8.[.].[ ",
">X>X-X.XS.S.Y.H.A.l.r.r.l.A.H.Y.S.S.XX%Xi.J ",
"3X3X4X1X+XP.G.I.G.v.t.t.v.G.I.G.P.+X,X XI A ",
"qXqXqXqX9X3X$X'.W.G.c.c.G.W.'.$X3X7X&X} S S ",
"uXuXuXuXuXuXrX0X<X;X$X$X;X,X8XwX5XJ.P Z Z Z ",
"gXgXgXgXgXgXgXfXsXdXsXsXaXeX2XQ.{ D C C C C "
};
