/* XPM */
static char *minfcs[] = {
/* columns rows colors chars-per-pixel */
"22 22 155 2",
"   c #18681769161F",
".  c #19C718D01719",
"X  c #1D3B1C391A05",
"o  c #204E1F4D1D20",
"O  c #22BE21BD1F90",
"+  c #2340223D204E",
"@  c #234522BE1FDE",
"#  c #23F623862071",
"$  c #244523462142",
"%  c #2432233321CE",
"&  c #24FF23FE21D1",
"*  c #26E225DB241D",
"=  c #278A269A2583",
"-  c #28A1285A259D",
";  c #299E28E126A6",
":  c #2A2329292720",
">  c #2C072AFE28F8",
",  c #2EA02DAB2B9D",
"<  c #2F0A2E2C2C33",
"1  c #2F612F232C5E",
"2  c #30272F2E2D24",
"3  c #318530842E82",
"4  c #355D3468324E",
"5  c #364C35513350",
"6  c #38BC37B935BF",
"7  c #3B4B3A563792",
"8  c #3C313B303927",
"9  c #3C933BA03A23",
"0  c #3FD93FA63D8C",
"q  c #423941653F63",
"w  c #452143A74290",
"e  c #46884662439D",
"r  c #4727472E444C",
"t  c #4834473C4533",
"y  c #49B9494346BD",
"u  c #4BB14BB7490D",
"i  c #4F124E11494F",
"p  c #4CA54C814A64",
"a  c #4E3C4D514B40",
"s  c #4FAE4EAD49E1",
"d  c #514750984F1A",
"f  c #547153704F4F",
"g  c #537953765082",
"h  c #550453B35257",
"j  c #544A543C5148",
"k  c #583B57495252",
"l  c #5A3C5A2D5528",
"z  c #582A57D855F1",
"x  c #597058AF5676",
"c  c #5A545A535750",
"v  c #5BDD5BE258FF",
"b  c #5EA35EAD5C46",
"n  c #5FB55FAA5CB2",
"m  c #60315FCE5D06",
"M  c #606060605D5D",
"N  c #61F9617D5ED7",
"B  c #627E62335F8E",
"V  c #653165316227",
"C  c #663E660262DC",
"Z  c #666666666363",
"A  c #66B366AF641C",
"S  c #6A1569176528",
"D  c #6ABB6A3B6636",
"F  c #6B326B256815",
"G  c #6C6C6C6C6969",
"H  c #7013700F6D17",
"J  c #730C70F66C0A",
"K  c #726872686F66",
"L  c #745F72B370B4",
"P  c #768F768F7398",
"I  c #775377537450",
"U  c #781B781B7518",
"Y  c #809E7DC27A33",
"T  c #880087A38634",
"R  c #880C87AE8640",
"E  c #92249195900E",
"W  c #94EE936091F3",
"Q  c #9451939A9323",
"!  c #97F3958E933C",
"~  c #986796E4949A",
"^  c #9AA7988B938E",
"/  c #9E1499E390F9",
"(  c #9DC19A13914C",
")  c #99029837962E",
"_  c #9B569AD29940",
"`  c #9E5D9CC59A29",
"'  c #A2B99FD49922",
"]  c #A3BAA2AC9EF1",
"[  c #AEF4AAFDA288",
"{  c #AD92AC83AA06",
"}  c #B71DB201A607",
"|  c #B31CB0FFAB64",
" . c #B3B6B0B3ADDF",
".. c #B4CFB1BBAC7A",
"X. c #B586B273AD31",
"o. c #BA1AB8CFB744",
"O. c #BABFB8CFB744",
"+. c #BE6DBB9EB8B7",
"@. c #BD8EBD50BA7C",
"#. c #CCF6C662B832",
"$. c #CD1EC892C085",
"%. c #CB96C939C514",
"&. c #CBE5C90AC710",
"*. c #D02BCDEACBC7",
"=. c #D530CEF2C1F4",
"-. c #D066CE2CCB13",
";. c #D08ECDEACBC7",
":. c #D5AFD316CB5C",
">. c #D309D06FCDC3",
",. c #DE21D98BD135",
"<. c #DE45D9ADD158",
"1. c #E016DC55D47C",
"2. c #DF0CDCDDD9B5",
"3. c #DDFBDD02DAEA",
"4. c #E16BDA87CCD9",
"5. c #E2ACDBBECDE3",
"6. c #E40EDD08CF09",
"7. c #E2ECDD5BD2B1",
"8. c #E6FEE003D3F7",
"9. c #E75BE06AD456",
"0. c #E7E9E0F0D4D6",
"q. c #E7C1E1D6D711",
"w. c #EA35E433D93F",
"e. c #EAE8E4E2D9D8",
"r. c #EBC0E5AFDA98",
"t. c #EC2DE737DD63",
"y. c #EDF2E8EEDEE1",
"u. c #ECF7E938E04F",
"i. c #E79DE482E0DD",
"p. c #E68FE582E33D",
"a. c #F048EB3FE10E",
"s. c #EDB2EA0EE462",
"d. c #F0FDECE9E401",
"f. c #F2C5EEA9E5A3",
"g. c #F1C0EE07E791",
"h. c #F149EF3FEC3A",
"j. c #F391EFBBEBCD",
"k. c #F5F8F1E2EBD2",
"l. c #F504F1E4EE4E",
"z. c #F5DBF1D0EE00",
"x. c #F7C1F4C9F0DF",
"c. c #F760F47FF191",
"v. c #F898F5ACF2B6",
"b. c #F9D5F6C5F2D0",
"n. c #F9A2F6B8F3B1",
"m. c #F8D2F7BBF4CC",
"M. c #FAF9F804F4F4",
"N. c #F9E1F905F706",
"B. c #FAA7F9A4F6B2",
"V. c #FBFBF9EBF6F6",
"C. c #FC30FA3DF828",
"Z. c #FD61FA63F74F",
"A. c #FCFDFAFFF80B",
"S. c #FCFFFB0BF8EC",
"D. c #FCAEFB9FF8B8",
/* pixels */
"l l l l l l l l l l l l l l l l l l l l l l ",
"k k k k k k k k k k k k k k k k k k k k k k ",
"f f f f f f f f f f f f f f f f f f f f f f ",
"i i i i i i i i s s s s s s i i i i i i i i ",
"            . X o O & & O o X .             ",
"+ + + + + @ # * > , 3 3 , > * # @ + + + + + ",
"$ $ $ $ % * < h ~ @.3.3.@.~ h < * % $ $ $ $ ",
"$ $ $ % = w W p.m.B.D.D.B.m.p.W w = % $ $ $ ",
": : - ; y { N.C.S.S.S.S.S.S.C.N.{ y ; - : : ",
"2 1 < 6 ` h.A.V.V.V.V.V.V.V.V.A.h.` 6 < 1 2 ",
"5 4 5 L >.Z.v.c.n.M.M.M.M.n.c.v.Z.>.L 5 4 5 ",
"8 7 9 ! i.l.;.O.2.x.b.b.x.2.o.*.l.i.! 9 7 8 ",
"q 0 q  .z.z.&.Q _ -.j.j.-._ Q &.z.z. .q 0 q ",
"t e r | g.k.s.%.) E +.+.E ) %.s.k.g.| r e t ",
"a p u ^ 1.f.d.u.:.] T R ] :.u.d.f.1.^ u p a ",
"j g d Y $.a.y.y.t.,...X.<.t.y.y.a.$.Y d g j ",
"c c x z ' 7.r.e.e.w.q.q.w.e.e.r.7.' z x c c ",
"M M n v D [ 8.9.0.0.0.0.0.0.9.8.[ D v n M M ",
"Z Z Z V b S ( =.4.5.6.6.5.4.=.( S b V Z Z Z ",
"G G G G F A N J / } #.#.} / J N A F G G G G ",
"K K K K K K H F C B m m B C F H K K K K K K ",
"U U U U U U U I P P P P P P I U U U U U U U "
};
