/* XPM */
static char *minpr[] = {
/* columns rows colors chars-per-pixel */
"22 22 141 2",
"   c #186B176A1621",
".  c #1911181616C7",
"X  c #1B641A1718CA",
"o  c #1E471C8F1B15",
"O  c #1FE21EE11CB5",
"+  c #216720661E39",
"@  c #2340223F204C",
"#  c #23D622D62087",
"$  c #244423432141",
"%  c #25F724F1225E",
"&  c #25DF24D622DC",
"*  c #267D258E240C",
"=  c #295828532652",
"-  c #2A2329292721",
";  c #2AE329EE27E0",
":  c #2B9D2A9328FC",
">  c #2D232C232A20",
",  c #2F082E3C2C05",
"<  c #2F612F232C5E",
"1  c #30272F2E2D24",
"2  c #355C34673259",
"3  c #361E351D331E",
"4  c #3B1239973882",
"5  c #3B573A623860",
"6  c #3C5C3B623962",
"7  c #3FCA3F633CD0",
"8  c #40A640683E66",
"9  c #4211413B3F35",
"0  c #45DF44DA432C",
"q  c #4762466E446B",
"w  c #477F47484497",
"e  c #483D473D453B",
"r  c #4C894C5E49A9",
"t  c #4F1E4E1C495C",
"y  c #4D734C814A7C",
"u  c #4E444D514B42",
"i  c #51B251BD4FAE",
"p  c #547153704F4F",
"a  c #538553775145",
"s  c #544B543C5150",
"d  c #583B57495252",
"f  c #5A3C5A2D5528",
"g  c #588458845647",
"h  c #59815982568A",
"j  c #5A545A545757",
"k  c #5D1A5D235A34",
"l  c #606260625D5F",
"z  c #60CB60CD5E66",
"x  c #615F60585E4D",
"c  c #6504648961F1",
"v  c #65B4659162C0",
"b  c #666866686365",
"n  c #675766CE635A",
"m  c #679167566419",
"M  c #686567E86470",
"N  c #686B686E65E2",
"B  c #6A4A6A27662F",
"V  c #6BBF6BC068BF",
"C  c #6C6C6C6C6969",
"Z  c #6DDC6DCA69C5",
"A  c #71066F956B01",
"S  c #70F670F06D9D",
"D  c #7321713C6DF8",
"F  c #72EE71536FE1",
"G  c #726B726B6F6A",
"H  c #750574397148",
"J  c #76B376B373A4",
"K  c #76A7765A7423",
"L  c #773B773B7439",
"P  c #781C781C7518",
"I  c #7C6C7A117771",
"U  c #7BE27AE779CA",
"Y  c #7BF47B677929",
"T  c #7CB97BB1791D",
"R  c #80C67F9E7E0E",
"E  c #8031801C7DF4",
"W  c #837682167DBE",
"Q  c #859984908214",
"!  c #8CDC8A318331",
"~  c #899C88A9859E",
"^  c #8CFD8AA88526",
"/  c #8EAD8C3584B3",
"(  c #8F218EE48C1D",
")  c #91A68EA58C74",
"_  c #92B291428C54",
"`  c #976F94738D7F",
"'  c #9405930190CF",
"]  c #9730951790DF",
"[  c #97E795CF9196",
"{  c #9AF298319543",
"}  c #A09F9CA69397",
"|  c #A280A03E9DE2",
" . c #A3EDA1C69ECB",
".. c #A3A6A1759F5C",
"X. c #A8D3A5409ED7",
"o. c #A5BAA3A0A0AA",
"O. c #A5FDA504A2FA",
"+. c #AFE4AB2FA0B3",
"@. c #AC68AA9DA499",
"#. c #ABD1AAD7A8D4",
"$. c #AD83ABFEA91B",
"%. c #B3F1AF05A4F1",
"&. c #B3F6B13CAAFD",
"*. c #B448B167AAEE",
"=. c #B3F6B0EAADF5",
"-. c #BA25B59DAD71",
";. c #BC44B764ACA3",
":. c #BD2EB835AD5F",
">. c #BE25B921AE33",
",. c #BE8AB985AFEB",
"<. c #B666B548B252",
"1. c #B839B73BB52A",
"2. c #BD73B897B0B9",
"3. c #BEB4B9AEB09B",
"4. c #BCEABA27B332",
"5. c #BECABA74B292",
"6. c #BFAFBAB9B2A4",
"7. c #BFC4BBBEB3C2",
"8. c #BBEEB8E2B437",
"9. c #B985B891B682",
"0. c #BAF2B9F2B7EF",
"q. c #BBA3BA00B801",
"w. c #BD97BA90B790",
"e. c #BE79BBC3B65F",
"r. c #BFD3BCB9B5C5",
"t. c #BC30BB37B926",
"y. c #BD27BA5EB84A",
"u. c #BE08BB2DB914",
"i. c #BCBEBBBDB9AD",
"p. c #BEB9BBE9B9CA",
"a. c #BDCBBCAEB9C7",
"s. c #BF38BC42B94D",
"d. c #BFB4BC76B974",
"f. c #BFB1BCCABAAB",
"g. c #BE8EBD67BA81",
"h. c #C04DBB4CB32A",
"j. c #C164BD5DB53F",
"k. c #C10BBDF1B6E7",
"l. c #C172BE66B95F",
"z. c #C0A3BDA1BAAC",
"x. c #C166BE6EBC4F",
/* pixels */
"f f f f f f f f f f f f f f f f f f f f f f ",
"d d d d d d d d d d d d d d d d d d d d d d ",
"p p p p p p p p p p p p p p p p p p p p p p ",
"t t t t t t t t t t t t t t t t t t t t t t ",
"            . X o O + + O o X .             ",
"@ @ @ @ @ @ # % = ; > > ; = % # @ @ @ @ @ @ ",
"$ $ $ $ $ & : 0 H ( O.O.( H 0 : & $ $ $ $ $ ",
"$ $ $ $ * 4 F #.1.9.0.0.9.1.#.F 4 * $ $ $ $ ",
"- - = = 7 Q q.t.i.i.i.i.i.i.t.q.Q 7 = = - - ",
"1 < , 3 T <.g.a.a.a.a.a.a.a.a.g.<.T 3 , < 1 ",
"3 2 3 x ..x.u.y.p.f.f.f.f.p.y.u.x...x 3 2 3 ",
"6 5 6 I =.w. .' $.s.z.z.s.$.'  .w.=.I 6 5 6 ",
"9 8 9 ) d.d.| U R o.w.w.o.R U | d.d.) 9 8 9 ",
"e q w _ e.l.8. .E Y { { Y E  .8.l.e._ w q e ",
"u y r W &.k.r.4.@.~ K K ~ @.4.r.k.&.W r y u ",
"s a i D X.j.7.7.5.*.] [ *.5.7.7.j.X.D i a s ",
"j j h g ^ -.h.6.6.5.2.2.5.6.6.h.-.^ g h j j ",
"l l l k n ` ,.3.3.3.3.3.3.3.3.,.` n k l l l ",
"b b b v z M ! %.;.:.>.>.:.;.%.! M z v b b b ",
"C C C C V N c A / } +.+.} / A c N V C C C C ",
"G G G G G G S Z B m v v m B Z S G G G G G G ",
"P P P P P P P L J L L L L J L P P P P P P P "
};
