/* XPM */
static char *minufcs[] = {
/* columns rows colors chars-per-pixel */
"22 22 186 2",
"   c #248D1A7C203A",
".  c #24E41A852056",
"X  c #25971A9B206B",
"o  c #25991B89214C",
"O  c #26931B98215A",
"+  c #285B1E4823CA",
"@  c #29071E5623D9",
"#  c #2A6420182552",
"$  c #2A1120E0250C",
"%  c #2B64213D25A5",
"&  c #29CE1FEA2655",
"*  c #2A58214F25CC",
"=  c #2B3B212025DA",
"-  c #2B6122D226EC",
";  c #2C31221D26F6",
":  c #2D96228F279D",
">  c #2BE922CA26E5",
",  c #2CF023702780",
"<  c #2C4222512865",
"1  c #2D742284286F",
"2  c #2D6A23722858",
"3  c #2D83237428FE",
"4  c #2CA924852890",
"5  c #2D72242A2841",
"6  c #2D56244B28FD",
"7  c #2E2A24262856",
"8  c #2E03241B2977",
"9  c #2E25250A291F",
"0  c #2E2F25B3297C",
"q  c #2F04240D29CC",
"w  c #2E3524C129B6",
"e  c #2D3125AE29AF",
"r  c #2E7625C129C6",
"t  c #2FAE277B2B9A",
"y  c #30AA28632C95",
"u  c #3141283E2D12",
"i  c #323329292E0A",
"p  c #32292B152DFE",
"a  c #33232B232EF5",
"s  c #35142D5C314E",
"d  c #357B2E12307E",
"f  c #364C2E203170",
"g  c #37082E1F3144",
"h  c #371F2E2D3237",
"j  c #36A12E813308",
"k  c #39092F4C3402",
"l  c #37142FE33363",
"z  c #371430CC33A4",
"x  c #398B317534D7",
"c  c #395A33473554",
"v  c #39A33268363E",
"b  c #395A33593646",
"n  c #3B18334836B4",
"m  c #3B61333436FD",
"M  c #3C8D339A3809",
"N  c #3B92340D3809",
"B  c #3E823574398B",
"V  c #3F3C375B399C",
"C  c #3E82389B3A30",
"Z  c #3F3C38403A8E",
"A  c #4034383C3B37",
"S  c #403439203C2A",
"D  c #407E38F93CC6",
"F  c #439C3AA03EA5",
"G  c #42D63C8D3E91",
"H  c #42D63CAA3F86",
"J  c #43B03B834036",
"K  c #45373E1E402E",
"L  c #44CC3EC940BA",
"P  c #45373E3A412E",
"I  c #44CC3ECD40C5",
"U  c #46B73F3D424B",
"Y  c #479E3F764372",
"T  c #47DD3FBF43B5",
"R  c #46093FF24202",
"E  c #46093FF642FD",
"W  c #4852403C4415",
"Q  c #498540994436",
"!  c #482B4136443F",
"~  c #494441404451",
"^  c #4A294145445A",
"/  c #48B042644466",
"(  c #48B043494496",
")  c #499A439544A6",
"_  c #499A439045A6",
"`  c #4B1243474549",
"'  c #4A8143514651",
"]  c #4B33435A4659",
"[  c #4B4E436946F3",
"{  c #4A2A442E462A",
"}  c #4B12442B4634",
"|  c #4BA044304794",
" . c #4ACB456A4783",
".. c #4BA0442E481F",
"X. c #4D3E46324851",
"o. c #4D6E4669494F",
"O. c #4CC3471D4971",
"+. c #4D6B47664943",
"@. c #4E49474E4A44",
"#. c #4E6148524A4E",
"$. c #4F6149544B3A",
"%. c #4F4A4A6F4A53",
"&. c #4E7B4B474A46",
"*. c #4F4A49E04B74",
"=. c #50AC45A948E7",
"-. c #514B463E4977",
";. c #521D462D497E",
":. c #51A7469D49D9",
">. c #523446584A5D",
",. c #520B46FB4A34",
"<. c #4FFA49134B56",
"1. c #50334B414B37",
"2. c #4FF04C104A41",
"3. c #50144C0A4B30",
"4. c #501E49574BF7",
"5. c #50C24ABC4CC1",
"6. c #50C24B024CC1",
"7. c #50E24AFC4C20",
"8. c #50CF4A2B4CDD",
"9. c #5563496E4E4E",
"0. c #55704A504E56",
"q. c #56164A4E4E52",
"w. c #510C4CB84C0B",
"e. c #51124CE44C18",
"r. c #50774C744CE3",
"t. c #51E04C1A4D4E",
"y. c #517C4E2C4D5C",
"u. c #52B24E4F4DA3",
"i. c #52654C644E4E",
"p. c #53744D844E7D",
"a. c #535C4D464F43",
"s. c #52354F254EBA",
"d. c #52E54F344E34",
"f. c #53784F764FA5",
"g. c #542B4E244F9D",
"h. c #54314F714F88",
"j. c #53B150AE4FB7",
"k. c #55A34FAB50A3",
"l. c #55B94F155175",
"z. c #55BF4ED551D6",
"x. c #55D84F615206",
"c. c #583D4C4D513F",
"v. c #583B4CDD5143",
"b. c #594A4D515256",
"n. c #594A4E315336",
"m. c #5493500F508B",
"M. c #553D50385055",
"N. c #559C508451CD",
"B. c #54E951DF518F",
"V. c #576052955410",
"C. c #58AD549E5553",
"Z. c #5A9154885792",
"A. c #5BBE55B157CC",
"S. c #5A535640564F",
"D. c #5B3C58265735",
"F. c #5C8655EA593F",
"G. c #5CE95654594B",
"H. c #5D30565B5A48",
"J. c #5BA6587E5837",
"K. c #5DA758875A6D",
"L. c #5E5E58875A6D",
"P. c #5F715B715BA7",
"I. c #5F485C515B61",
"U. c #5F6D5B785C4E",
"Y. c #635A60656005",
"T. c #64DC61CA60E2",
"R. c #654961526145",
"E. c #656362546168",
"W. c #6ABC64C267B4",
"Q. c #6ABA658667A8",
"!. c #6AA06759669C",
"~. c #6A0C67176703",
"^. c #6B6C686A6768",
"/. c #6F576C5E6BB5",
"(. c #71696E726D63",
"). c #73616D717089",
"_. c #73566D12717E",
"`. c #75876F8372E8",
"'. c #74E26EDA7324",
"]. c #75A3739371AD",
"[. c #760173F07200",
"{. c #766674557272",
"}. c #771A75097317",
"|. c #7ABA75747779",
" X c #7ABA7568784A",
".X c #81987B9E7E81",
/* pixels */
"b.b.b.b.b.b.n.n.n.n.n.n.n.n.n.n.n.n.n.n.n.n.",
"c.c.c.c.c.c.c.c.c.c.c.c.c.c.c.c.v.v.c.c.c.c.",
"9.0.0.0.q.q.q.0.0.0.0.0.0.q.0.0.0.0.0.0.0.0.",
"=.=.=.=.=.=.=.=.-.;.>.,.,.,.:.:.-.-.:.:.:.:.",
"            o + = : q q : = @ O X X X X X X ",
"1 1 1 2 2 5 , ; % # $ $ # % ; , 5 2 3 3 2 2 ",
"7 7 7 7 7 < & 8 k B F F B k 8 & < 8 8 9 9 9 ",
"5 2 5 6 = > j J Y T W W T Y J j - * 6 5 5 7 ",
"u u t 2 w M Q ^ ^ ^ ^ ~ ~ ~ ~ W N e 4 y i i ",
"g d p 0 m ~ [ [ ' ] ] ' ' ] ] ] ! n r a f h ",
"m v s x U o.o.@.o.X.X.o.o.o.@.o.o.U x s v m ",
"A V l D ..+.x.H.5.@.#.#.@.8.H.z.o.| D z Z S ",
"K G c R <.<.G.`.).l.<.4.z._.'.F.<.4.E b H P ",
"` / C ) i.a.i.Z.).|.A.A. X).Z.i.a.i._ C ( } ",
"$.#.L { i.g.i.6.N.Q..X.XW.x.5.i.g.i.{ I #.$.",
"M.h.+. .t.k.p.t.7.i.K.L.i.7.t.p.k.t. .+.h.M.",
"S.S.V.O.*.m.h.u.w.1.3.3.1.w.u.h.m.*.O.V.S.S.",
"U.U.P.C.r.r.f.u.e.1.%.%.1.e.u.f.r.r.C.P.U.U.",
"E.E.E.T.D.s.y.d.y.3.&.&.3.y.d.y.s.D.T.E.E.E.",
"^.^.^.^.!.R.J.B.j.y.2.2.y.j.B.J.E.!.^.^.^.^.",
"(.(.(.(.(.(./.~.Y.I.J.J.I.Y.~./.(.(.(.(.(.(.",
"}.}.}.}.}.}.}.{.].[.].].[.].{.}.}.}.}.}.}.}."
};
