/* XPM */
static char * titleufcs_xpm[] = {
"22 22 70 1",
" 	c #67585C",
".	c #68585C",
"+	c #68595C",
"@	c #68585D",
"#	c #68595D",
"$	c #65565A",
"%	c #66565A",
"&	c #665659",
"*	c #66575A",
"=	c #625357",
"-	c #635457",
";	c #635357",
">	c #635456",
",	c #605254",
"'	c #615254",
")	c #615253",
"!	c #615255",
"~	c #5E4F51",
"{	c #5E5052",
"]	c #5E5051",
"^	c #5A4E50",
"/	c #5A4E4F",
"(	c #5B4E4F",
"_	c #5B4E50",
":	c #5B4F50",
"<	c #594C4D",
"[	c #594C4E",
"}	c #5A4C4E",
"|	c #55494B",
"1	c #56494C",
"2	c #564A4C",
"3	c #534849",
"4	c #534848",
"5	c #544849",
"6	c #4F4546",
"7	c #504546",
"8	c #4F4446",
"9	c #504547",
"0	c #4D4343",
"a	c #4E4344",
"b	c #4E4343",
"c	c #4A4040",
"d	c #4A4140",
"e	c #4A4141",
"f	c #4A4041",
"g	c #4B4141",
"h	c #463F3E",
"i	c #473F3F",
"j	c #473F3E",
"k	c #463E3F",
"l	c #463E3E",
"m	c #473E3F",
"n	c #453F3E",
"o	c #453E3E",
"p	c #453E3D",
"q	c #443D3D",
"r	c #443E3D",
"s	c #453D3D",
"t	c #443E3C",
"u	c #423D3C",
"v	c #433D3C",
"w	c #423D3B",
"x	c #433D3B",
"y	c #413C3B",
"z	c #413D3B",
"A	c #413D3C",
"B	c #403C3A",
"C	c #413C3A",
"D	c #413D3A",
"E	c #3F3C3A",
"    .....+++++++.@.+.#",
"$$$$%%&&********%%%%**",
"==--;;>---------------",
",',,,')''''''''''''''!",
"~{{{~{]]]]]]]]{{{{{{{{",
"^^//^^///(((((_____:__",
"<<<<<<<<<<<<<<<<<<<<[}",
"||||||||||||1112222222",
"3333334444443335555555",
"6677777778777797777777",
"0a00000000000baaaaaaaa",
"ccddddeeeceeeefeeeeeeg",
"hhhhhhhhhhiiihjjjjhiii",
"kkllllllkkkkkkmkmlkkmm",
"nopppnnpnonnnnnnnonnnn",
"qqqqqrrqrrrrsspssqppoo",
"ttttttttrtttttttrrrrrr",
"uvvvvvvvuvvvvvvvvvvvvv",
"wwwwwwwwwwwwwwwwwxwwxx",
"yyyyyyzyyyyyyyzzzzzyAA",
"BBBBBBBBBBCCCCDBBBDDCC",
"EEEEEEEEEEBBBBBBBBBBBB"};
