/* XPM */
static char *closefcs[] = {
/* columns rows colors chars-per-pixel */
"22 22 142 2",
"   c #6D9E4C8D398B",
".  c #743E540E4110",
"X  c #7EB35DA44B2E",
"o  c #EF056DAC352D",
"O  c #EBB86DB0389D",
"+  c #F2C96E7033FE",
"@  c #EB0472C73DC6",
"#  c #F4E372CD3750",
"$  c #F5E0757F3AAD",
"%  c #F6B6789E3D2C",
"&  c #9296743E640B",
"*  c #9AAE78C765BF",
"=  c #978679446A2A",
"-  c #E2227627467F",
";  c #ED0E74914293",
":  c #EF30790846B0",
">  c #E57A7A604B7D",
",  c #F4627DD9490B",
"<  c #A21680426EF9",
"1  c #ACD085136F57",
"2  c #A39E8390717A",
"3  c #A9F784E670AA",
"4  c #B3A08F367C7F",
"5  c #B47390D97D79",
"6  c #DC6086535F30",
"7  c #FB1F822A464D",
"8  c #FAC486574DE8",
"9  c #EBF6864C5C11",
"0  c #F023888E5D68",
"q  c #F1CD871755A9",
"w  c #F8598AD455D4",
"e  c #FB0E8E005608",
"r  c #F4418AB55B52",
"t  c #F96D90FF5B49",
"y  c #DCCD86836074",
"u  c #D56B8AB667CD",
"i  c #DCD58AD16559",
"p  c #D5458CFF6BB5",
"a  c #D9778F506CB8",
"s  c #CD4D92277533",
"d  c #DA22938D7237",
"f  c #DE5A9A9A76B7",
"g  c #D46397B87C60",
"h  c #DEC09ABC7A6B",
"j  c #E1A48BAA646A",
"k  c #EDBF8A656021",
"l  c #E1418D7369A5",
"z  c #F1D78EA6649F",
"x  c #E5A894056CCD",
"c  c #E91096AE6D21",
"v  c #E9359A1E6F9E",
"b  c #F678911761A4",
"n  c #F50095DF6B8C",
"m  c #F148989A6F24",
"M  c #ED3D963C7320",
"N  c #E1DC989375BA",
"B  c #E93D9B7D7018",
"V  c #EA8F9B987B3B",
"C  c #F53B99DD71C5",
"Z  c #F89D9D84736A",
"A  c #F9D6A13A770A",
"S  c #F676A2867D08",
"D  c #FBD9A5BE7A36",
"F  c #B7559AC88CA4",
"G  c #BF31A42C8FE4",
"H  c #BDA7A3659111",
"J  c #BABCAD229DA8",
"K  c #BE6AAFEFA04B",
"L  c #BE10B27BA41A",
"P  c #CAAE9AEE8216",
"I  c #D5B29BB58033",
"U  c #E0BD9F438286",
"Y  c #D0D6A0CD869D",
"T  c #DC95A36686E1",
"R  c #D424A6CE8E9B",
"E  c #DAEBA4298B56",
"W  c #C4BDA526925E",
"Q  c #C636AA4A9636",
"!  c #DC7AAE2A96FD",
"~  c #E383A2678642",
"^  c #EECEA2DF8268",
"/  c #E545A5838ABF",
"(  c #E741A9EF8C58",
")  c #F725A6358259",
"_  c #F823A88C82FD",
"`  c #F1CDAD758ACA",
"'  c #E71FAFDE97EE",
"]  c #ECCBB0C3906E",
"[  c #E89BB3499C51",
"{  c #F4B0B0C09408",
"}  c #F975B42194D2",
"|  c #F65FB7189B58",
" . c #FA71B8359A3B",
".. c #F85FBA869CFA",
"X. c #C116B2C4A318",
"o. c #C70FBB33AB9D",
"O. c #C9D8BE2EAE3B",
"+. c #D4B7B27FA131",
"@. c #D585BD01AE5D",
"#. c #DD50BEECAEC7",
"$. c #C477BE41B2A6",
"%. c #F85ABD24A09F",
"&. c #F8BBBFFFA152",
"*. c #F0A8C002AB52",
"=. c #CE16C315B3C8",
"-. c #CAB6C49FBAB4",
";. c #D822C177B42A",
":. c #DF58C781B7D5",
">. c #D2D2C803B9E9",
",. c #D389CA44BC0F",
"<. c #D9B5CFBABEC0",
"1. c #DB5AD1F1BF32",
"2. c #FBEDC24DA511",
"3. c #F4D9C210AC59",
"4. c #FBB5C432AA1F",
"5. c #E0AAC446B31E",
"6. c #E104CA76BC26",
"7. c #F95CC71DB094",
"8. c #FCE1CC31B4E0",
"9. c #FA9CCF49BBDD",
"0. c #E10FD6FCBB32",
"q. c #FAB1D113BF29",
"w. c #D456CD8BC2CF",
"e. c #D8E1CFD8C2CB",
"r. c #DBF1D316C5A1",
"t. c #DD35D5D1CBBA",
"y. c #E094D7BFC772",
"u. c #E23ED97CC2A6",
"i. c #E0C9D80FCE5F",
"p. c #E395DC18CCFC",
"a. c #E4DBDE0AD362",
"s. c #E928E198CD58",
"d. c #EB8FE4CFD539",
"f. c #E741E290D8E8",
"g. c #EB20E538DB71",
"h. c #EDE5E94BDCE4",
"j. c #F192EC1FDCDC",
"k. c #EF23EA1DE107",
"l. c #F225EDD0E501",
"z. c #F4D6F0F3E3AE",
"x. c #F732F3E8EA7A",
"c. c #FCB0FA9FF641",
/* pixels */
"c.c.c.c.c.c.c.c.c.c.c.c.c.c.c.c.c.c.c.c.c.c.",
"x.x.x.x.x.x.x.x.x.x.x.x.x.x.x.x.x.x.x.x.x.x.",
"z.z.z.z.z.z.z.z.z.z.z.z.z.z.z.z.j.z.z.z.x.z.",
"z.j.j.z.z.j.j.j.j.j.j.j.j.j.j.j.j.j.j.j.j.j.",
"j.j.j.j.j.d.t.<.=.=.o.o.=.=.o.=.O.O.O.O.O.O.",
"j.j.j.d.u.;.o.L J J J J J X.o.X.o.o.o.o.O.o.",
"d.j.s.>.=.L J G E [ 3.3.' T W X.o.o.o.o.o.o.",
"s.s.>.o.J G g S | 7.q.q.3.} B g Q o.O.O.O.O.",
"s.1.>.L G a b _  .4.8.8.2.} S 0 u Q =.O.=.O.",
"r.>.$.L u : z _ 2.2.2.2.2...S r ; u o.>.=.>.",
"1.,.L P > # b T F +.&.&.+.F T r + - Y >.>.>.",
"1.,.o.s ; # e f < & H W & < f w # @ d ,.,.w.",
"1.>.-.6 o $ 7 t f * . . * f t 7 $ o j w.e.e.",
"r.<.-.6 o $ 7 e v 1     1 B w 7 $ o j w.t.t.",
"t.r.-.d @ # 8 c 1 X < 2 X 1 c 8 $ ; h t.i.t.",
"r.t.w.R > # q s = 5 ] ] 5 & s r + > ! a.i.i.",
"1.s.r.,.d O , c ( ` D D ` ( C , O N t.a.a.a.",
"1.s.f.t.@.a ; w n Z Z A Z n r : l 6.g.a.g.a.",
"0.0.s.f.t.;.U 9 k C C C n z k U 6.g.h.g.g.g.",
"0.0.s.s.h.a.t.#.U V M M V ( :.a.k.k.k.k.k.l.",
"0.0.0.0.p.h.k.f.a.i.t.t.a.a.l.l.l.l.l.k.l.k.",
"0.0.0.0.0.u.s.h.k.l.x.x.x.x.z.z.l.x.l.x.x.x."
};
