/* XPM */
static char *closepr[] = {
/* columns rows colors chars-per-pixel */
"22 22 107 2",
"   c #8EE275B763DE",
".  c #927C795A6842",
"X  c #9BB88280720F",
"o  c #A5D28DC37E59",
"O  c #E7D08AC75F9C",
"+  c #E92389DA5DD4",
"@  c #DD808EAA69D4",
"#  c #DEC4910A6C28",
"$  c #D4E69BFD7ECF",
"%  c #DC379DCA7ECA",
"&  c #E3C48CC264AB",
"*  c #EAD88DA4621A",
"=  c #EE3B926F65A7",
"-  c #E68290FE690F",
";  c #EAF592E569B9",
":  c #F11399EB6CA7",
">  c #E44096D47271",
",  c #EC8F9622700F",
"<  c #E56C993A7598",
"1  c #EDBF9BE87403",
"2  c #E6DE9E4A7C88",
"3  c #EB4D9F3779CE",
"4  c #F2479EC873EE",
"5  c #EE05A2E27B54",
"6  c #F214A31A77B5",
"7  c #F223A3597801",
"8  c #ACA993968362",
"9  c #ADB096D488E3",
"0  c #B1B796F786D3",
"q  c #B5CD9C7C8C9F",
"w  c #BA4F9D378AD2",
"e  c #BEAFAAC19C57",
"r  c #BEE9B21DA2CB",
"t  c #D5919E63816D",
"y  c #D45DA1608710",
"u  c #DFB3A10781E4",
"i  c #D15EA4378C69",
"p  c #D95EA6AD8BE5",
"a  c #DCB1A9BB8D30",
"s  c #C1D4A6BC95D8",
"d  c #CD12A8DD92E4",
"f  c #C418ACAD9A83",
"g  c #D3CDA7F19126",
"h  c #D38DAAF89448",
"j  c #DB13AE2D9543",
"k  c #CA4AB0FA9F13",
"l  c #DE08B3A79D7B",
"z  c #EDDAA547841D",
"x  c #E2D2A65D8A78",
"c  c #E511AACF8B30",
"v  c #ECA1AC878C45",
"b  c #F0B2A49D810D",
"n  c #F18BAD558CB6",
"m  c #E30FAD9D9238",
"M  c #EC7DAF06931B",
"N  c #EC4BB0BC9208",
"B  c #E581B5099D1D",
"V  c #EB62B4A49ADD",
"C  c #ED8FBC739FBC",
"Z  c #F3FCB3C19317",
"A  c #C263B47CA52A",
"S  c #C36FB6D3A8FB",
"D  c #C74ABB57AB5E",
"F  c #C9DBBE1BAE3A",
"G  c #DB7FB5FDA192",
"H  c #DE09BBF4A7F5",
"J  c #D3E5B8F1A890",
"K  c #C6A3BE31B140",
"L  c #C8CEBEB9B07E",
"P  c #E6C0B976A21C",
"I  c #EADABC41A372",
"U  c #E480BF7EAC39",
"Y  c #C833C127B515",
"T  c #CE57C35BB3EB",
"R  c #CCDAC5E2BB12",
"E  c #DB16C82ABAD0",
"W  c #D40DCA7BBBD5",
"Q  c #DBABCDF4BF5A",
"!  c #DB5BD1F2BF32",
"~  c #ED6DC307AB12",
"^  c #EDE5C796B322",
"/  c #ECD0C97BB5CF",
"(  c #E2EFCC1BBDE3",
")  c #EBB4CAB4B9E4",
"_  c #E10FD6FCBB32",
"`  c #D572CDB3C21B",
"'  c #D93CCFCEC32C",
"]  c #D689D06DC5E8",
"[  c #DC5BD388C5AC",
"{  c #DE52D69DCB68",
"}  c #DEFCD961CFE8",
"|  c #E3A6CFA9C10B",
" . c #E298D4F2C675",
".. c #E23ED978C2A6",
"X. c #E35FDBCECD66",
"o. c #E48BDDCCD35A",
"O. c #E92FE178CD40",
"+. c #E7CBE11AD802",
"@. c #EADBE3F1D5D3",
"#. c #E7FEE278D908",
"$. c #EBFAE626DBE2",
"%. c #F18FEC2ADCFA",
"&. c #EF2BEA19E139",
"*. c #F25DEDE2E59F",
"=. c #F4EAF0F9E37F",
"-. c #F733F3E7EA7B",
";. c #FCB0FA9FF641",
/* pixels */
";.;.;.;.;.;.;.;.;.;.;.;.;.;.;.;.;.;.;.;.;.;.",
"-.-.-.-.-.-.-.-.-.-.-.-.-.-.-.-.-.-.-.-.-.-.",
"=.=.=.=.=.=.=.=.=.=.=.=.=.=.=.=.*.=.=.*.=.=.",
"=.%.%.=.%.=.%.%.%.%.%.%.%.%.%.%.%.%.%.%.%.%.",
"%.%.%.%.%.@.X.W T Y Y r T T Y Y F F F F F F ",
"%.%.%.@._ T D S r r r r f A D k D D D D D D ",
"@.%.O.W T A e f h l ~ ~ l g f k D D D D D D ",
"O.O.W D A f i c B ^ ) / ~ B a i k D F F F F ",
"O.W T S f y 5 m ~ ~ ^ ^ ~ C v < t k L L T L ",
"..W Y S $ & 2 N ~ ~ ~ ~ ~ C v 1 & t L L T E ",
"! W D d # + 5 j e J ~ ~ J e j 5 * @ g E W W ",
"! W Y y & = 6 a o o k k o 0 p 1 * & t ` ` W ",
"! W R % + = : 5 a o . . o a 7 : * * t ` ' ' ",
"[ ] R % + = : 7 c w     w c 7 : ; * u ' [ [ ",
"{ [ W g - = 4 c w X q q X w c 6 ; ; m ] { { ",
"..} ] G > + 5 g 0 f C ~ s 8 g 5 * < H o.X.o.",
"_ +.{ ] a - : v P I Z Z C I v 4 ; m X.o.o.o.",
"_ X.+.} E x ; z n Z Z Z Z n b , x | $.o.o.o.",
"_ _ O.@.o.' B z z n Z Z n n z P  .o.&.$.$.&.",
"_ _ ..@.$.+.o.( P V M M V I | o.&.&.&.&.&.*.",
"_ _ _ _ X.%.&.$.o.o.o.o.o.$.*.*.*.*.*.*.*.*.",
"_ _ _ _ _ _ O.$.*.*.-.*.-.-.*.*.-.*.-.*.*.-."
};
