/* XPM */
static char * maxfcs_xpm[] = {
"22 22 134 2",
"  	c None",
". 	c #FCFAF6",
"+ 	c #F8F5EB",
"@ 	c #F5F0E3",
"# 	c #F0EBDC",
"$ 	c #CABEAE",
"% 	c #C7BBAB",
"& 	c #C8BCAC",
"* 	c #C9BDAE",
"= 	c #C9BEAF",
"- 	c #C9BDAF",
"; 	c #D1C8BC",
"> 	c #E3DDD4",
", 	c #EDEAE3",
"' 	c #F6F3EF",
") 	c #C9BDAD",
"! 	c #CFC4B7",
"~ 	c #E2DCD4",
"{ 	c #F8F5F1",
"] 	c #FCFBF8",
"^ 	c #FDFBF8",
"/ 	c #FDFCF9",
"( 	c #CCC0B1",
"_ 	c #CCC1B1",
": 	c #CBC0B1",
"< 	c #D0C7B9",
"[ 	c #E8E3DC",
"} 	c #FCFAF8",
"| 	c #CFC4B5",
"1 	c #CFC4B6",
"2 	c #CDC3B5",
"3 	c #E4DED6",
"4 	c #F9F6F2",
"5 	c #FCFAF7",
"6 	c #FBF9F6",
"7 	c #F8F6F3",
"8 	c #D2C8BA",
"9 	c #D2C8B9",
"0 	c #D9D1C8",
"a 	c #F0ECE7",
"b 	c #FBF8F5",
"c 	c #FBF8F4",
"d 	c #F8F5F2",
"e 	c #E7E5E3",
"f 	c #BBB9B8",
"g 	c #BCBAB8",
"h 	c #D5CBBE",
"i 	c #D5CCBE",
"j 	c #CEC5B8",
"k 	c #E0DBD2",
"l 	c #F5F2ED",
"m 	c #F3F0ED",
"n 	c #F9F6F3",
"o 	c #F5F2EE",
"p 	c #DCDAD6",
"q 	c #A6A5A3",
"r 	c #898888",
"s 	c #D8CFC2",
"t 	c #CDC5B9",
"u 	c #E6E1DA",
"v 	c #F8F4F0",
"w 	c #F5F1ED",
"x 	c #F1EDE9",
"y 	c #CDCBC8",
"z 	c #999897",
"A 	c #929191",
"B 	c #BFBDBB",
"C 	c #DBD3C6",
"D 	c #DBD2C6",
"E 	c #CDC5BB",
"F 	c #E3DED6",
"G 	c #F3EFE9",
"H 	c #F5F1EB",
"I 	c #C8C6C1",
"J 	c #939290",
"K 	c #9A9997",
"L 	c #CDCAC6",
"M 	c #EFEBE5",
"N 	c #DED6CB",
"O 	c #DED6CA",
"P 	c #D0C8BE",
"Q 	c #DBD6CD",
"R 	c #ECE7DF",
"S 	c #F1EDE4",
"T 	c #C9C7C0",
"U 	c #B6B3AE",
"V 	c #D8D5CD",
"W 	c #EEEAE2",
"X 	c #F0ECE3",
"Y 	c #E1DACF",
"Z 	c #D6D0C5",
"` 	c #D4CEC5",
" .	c #E4DFD5",
"..	c #EEE9DF",
"+.	c #EBE6DC",
"@.	c #EAE5DB",
"#.	c #ECE7DD",
"$.	c #EEE9DE",
"%.	c #E4DED3",
"&.	c #E1DBD0",
"*.	c #CCC6BD",
"=.	c #D6D1C7",
"-.	c #E8E2D7",
";.	c #EAE4D9",
">.	c #E8E1D7",
",.	c #DBD5CC",
"'.	c #D6CFC5",
").	c #E7E0D4",
"!.	c #EBE5DC",
"~.	c #EBE6DB",
"{.	c #D7D1C9",
"].	c #C6C1B9",
"^.	c #CEC9BF",
"/.	c #DFD9CB",
"(.	c #E3DCCF",
"_.	c #E4DDCF",
":.	c #EEE9E0",
"<.	c #EEE8DF",
"[.	c #E1DCD4",
"}.	c #CAC6BE",
"|.	c #BFBAB3",
"1.	c #CCC6BB",
"2.	c #D4CDC0",
"3.	c #DAD4C5",
"4.	c #F1ECE4",
"5.	c #ECE8DF",
"6.	c #DFDBD3",
"7.	c #CECBC3",
"8.	c #C3C0B9",
"9.	c #BAB7B0",
"0.	c #F4F0E8",
"a.	c #F3EFE7",
"b.	c #F1EDE5",
"c.	c #F0ECE4",
". . . . . . . . . . . . . . . . . . . . . . ",
"+ + + + + + + + + + + + + + + + + + + + + + ",
"@ @ @ @ @ @ @ @ @ @ @ @ @ @ @ @ @ @ @ @ @ @ ",
"# # # # # # # # # # # # # # # # # # # # # # ",
"$ $ $ $ $ $ $ $ $ $ $ $ $ $ $ $ $ $ $ $ $ $ ",
"% % % % % % % & * $ = = $ * & % % % % % % % ",
"% % % % % & - ; > , ' ' , > ; - & % % % % % ",
") ) ) ) * ! ~ { ] ^ / / ^ ] { ~ ! * ) ) ) ) ",
"( ( _ : < [ } } } } } } } } } } [ < : _ ( ( ",
"| | 1 2 3 4 5 5 5 6 7 7 6 5 5 5 4 3 2 1 | | ",
"8 9 ! 0 a b c c d e f g e d c c b a 0 ! 9 8 ",
"h i j k l m n o p q r r q p o n m l k j i h ",
"s s t u v w x y z A B B A z y x w v u t s s ",
"C D E F G H I J K L M M L K J I H G F E D C ",
"N O P Q R S T U V W X X W V U T S R Q P O N ",
"Y Y Z `  ...+.@.#.$.$.$.$.#.@.+... .` Z Y Y ",
"%.%.&.*.=.-.;.;.;.;.;.;.;.;.;.;.-.=.*.&.%.%.",
">.>.>.,.*.'.).).).).).).).).).).'.*.,.>.>.>.",
"!.!.~.!.{.].^./.(.(._._.(.(./.^.].{.!.~.!.!.",
":.:.:.:.<.[.}.|.1.2.3.3.2.1.|.}.[.<.:.:.:.:.",
"4.4.4.4.4.4.5.6.7.8.9.9.8.7.6.5.4.4.4.4.4.4.",
"0.0.0.0.0.0.0.a.b.c.c.c.c.b.a.0.0.0.0.0.0.0."};
