/* XPM */
static char * maxpr_xpm[] = {
"22 22 139 2",
"  	c None",
". 	c #FCFAF6",
"+ 	c #F8F5EB",
"@ 	c #F5F0E3",
"# 	c #F0EBDC",
"$ 	c #F0EBDD",
"% 	c #CABEAE",
"& 	c #CAC0B1",
"* 	c #CBC3B5",
"= 	c #CCC6BA",
"- 	c #CDC8BD",
"; 	c #CDC9C1",
"> 	c #C7BBAB",
", 	c #C7BCAC",
"' 	c #C8C0B3",
") 	c #CAC6BC",
"! 	c #CCC9C1",
"~ 	c #CCCAC2",
"{ 	c #CECBC3",
"] 	c #C8BDAF",
"^ 	c #C9C4B9",
"/ 	c #CBC8C0",
"( 	c #CDCBC3",
"_ 	c #D5D4CD",
": 	c #E5E4E0",
"< 	c #EEEEEB",
"[ 	c #F6F5F3",
"} 	c #C9BDAD",
"| 	c #CBC6BB",
"1 	c #D2D1C9",
"2 	c #E4E3DF",
"3 	c #F7F7F5",
"4 	c #FBFBFB",
"5 	c #FCFCFB",
"6 	c #FCFCFC",
"7 	c #CCC0B1",
"8 	c #CEC7BB",
"9 	c #CFCCC3",
"0 	c #D4D3CB",
"a 	c #EAE9E5",
"b 	c #FBFBFA",
"c 	c #CFC4B5",
"d 	c #CFC7B9",
"e 	c #D1CEC5",
"f 	c #D1CFC8",
"g 	c #E6E5E0",
"h 	c #F8F8F7",
"i 	c #FAFAF9",
"j 	c #F8F8F6",
"k 	c #D2C8BA",
"l 	c #D3CDC1",
"m 	c #D2CFC7",
"n 	c #DCDBD5",
"o 	c #F1F0EE",
"p 	c #EBEAE6",
"q 	c #C8C6BE",
"r 	c #C9C7BE",
"s 	c #D5CCBF",
"t 	c #D7D2C8",
"u 	c #D2D1C8",
"v 	c #E3E2DE",
"w 	c #F4F4F3",
"x 	c #F3F3F1",
"y 	c #F5F5F3",
"z 	c #E1E0DB",
"A 	c #B9B6AA",
"B 	c #A19E8F",
"C 	c #D8D0C3",
"D 	c #DAD7CF",
"E 	c #E8E7E3",
"F 	c #F6F6F5",
"G 	c #F4F4F2",
"H 	c #D6D5CE",
"I 	c #AEAC9E",
"J 	c #A9A699",
"K 	c #CBCAC2",
"L 	c #DBD4C7",
"M 	c #DCD9D1",
"N 	c #F3F3F0",
"O 	c #AFAC9F",
"P 	c #D5D5CE",
"Q 	c #EFEFEC",
"R 	c #AAA798",
"S 	c #DED7CC",
"T 	c #DFDBD4",
"U 	c #D5D3CC",
"V 	c #DFDED9",
"W 	c #ECEBE8",
"X 	c #D3D1CA",
"Y 	c #C4C1B8",
"Z 	c #DEDDD7",
"` 	c #EFEEEC",
" .	c #F0F0ED",
"..	c #E1DBD0",
"+.	c #E2DED5",
"@.	c #DAD8D1",
"#.	c #D9D8D1",
"$.	c #EEEDEA",
"%.	c #ECEBE7",
"&.	c #EDECE8",
"*.	c #EDECEA",
"=.	c #E4DED3",
"-.	c #E4DFD6",
";.	c #E2E0DB",
">.	c #D3D1CB",
",.	c #DBDAD4",
"'.	c #E9E8E4",
").	c #E8E1D7",
"!.	c #E8E4DD",
"~.	c #DFDDD7",
"{.	c #DAD9D2",
"].	c #E7E6E2",
"^.	c #EBE5DB",
"/.	c #EBE6DC",
"(.	c #EBE9E3",
"_.	c #DCDBD4",
":.	c #CECDC5",
"<.	c #D4D3CC",
"[.	c #E4E4DF",
"}.	c #EEE9E0",
"|.	c #EEEAE2",
"1.	c #EEEBE6",
"2.	c #E4E3DE",
"3.	c #CAC8BF",
"4.	c #D8D7D1",
"5.	c #DDDCD7",
"6.	c #F1EDE4",
"7.	c #F1EDE7",
"8.	c #EDEBE7",
"9.	c #E3E2DD",
"0.	c #D6D4CE",
"a.	c #CECCC4",
"b.	c #C7C5BC",
"c.	c #F4F0E8",
"d.	c #F4F1E9",
"e.	c #F3F1EA",
"f.	c #F1F0EB",
"g.	c #F0EFEB",
"h.	c #F0EFEC",
". . . . . . . . . . . . . . . . . . . . . . ",
"+ + + + + + + + + + + + + + + + + + + + + + ",
"@ @ @ @ @ @ @ @ @ @ @ @ @ @ @ @ @ @ @ @ @ @ ",
"# # # # # # # $ $ $ $ $ $ $ $ # # # # # # # ",
"% % % % % % & * = - ; ; - = * & % % % % % % ",
"> > > > , ' ) ! ~ { { { { ~ ! ) ' , > > > > ",
"> > > ] ^ / ( _ : < [ [ < : _ ( / ^ ] > > > ",
"} } % | ~ 1 2 3 4 5 6 6 5 4 3 2 1 ~ | % } } ",
"7 7 8 9 0 a b 4 4 4 4 4 4 4 4 b a 0 9 8 7 7 ",
"c d e f g h b i i i j j i i i b h g f e d c ",
"k l m n o i i i j p q r p j i i i o n m l k ",
"s t u v w x h y z A B B A z y h x w v u t s ",
"C D 1 E F G o H I J K K J I H o G F E 1 D C ",
"L M u g N G 1 J O P Q Q P O R 1 G N g u M L ",
"S T U V W o X Y Z `  . .` Z Y X o W V U T S ",
"..+.@.#.g $.%.p &.*.*.*.*.&.p %.$.g #.@.+...",
"=.-.;.>.,.'.p p p p p p p p p p '.,.>.;.-.=.",
").).!.~.X {.].].].].].].].].].].{.X ~.!.).).",
"^.^./.(._.:.<.z 2 2 [.[.2 2 z <.:._.(./.^.^.",
"}.}.}.|.1.2.1 3.1 4.5.5.4.1 3.1 2.1.|.}.}.}.",
"6.6.6.6.6.7.8.9.0.a.b.b.a.0.9.8.7.6.6.6.6.6.",
"c.c.c.c.c.c.d.e.f.g.h.h.g.f.e.d.c.c.c.c.c.c."};
