/* XPM */
static char * maxufcs_xpm[] = {
"22 22 175 2",
"  	c None",
". 	c #D5C7CC",
"+ 	c #D5C8CD",
"@ 	c #D4C7C7",
"# 	c #D4C7C8",
"$ 	c #D4C6C5",
"% 	c #D5C7C5",
"& 	c #D4C7C5",
"* 	c #D2C5C3",
"= 	c #D3C5C3",
"- 	c #D3C5C4",
"; 	c #B2A09B",
"> 	c #B2A09A",
", 	c #B29F9A",
"' 	c #B29F99",
") 	c #B3A09A",
"! 	c #B3A09B",
"~ 	c #B29E98",
"{ 	c #B29F98",
"] 	c #B09D97",
"^ 	c #AC9A93",
"/ 	c #A6948F",
"( 	c #A3908C",
"_ 	c #A08F8B",
": 	c #A3918C",
"< 	c #B3A099",
"[ 	c #AE9B95",
"} 	c #A5938E",
"| 	c #A69592",
"1 	c #B3A4A4",
"2 	c #BAACAD",
"3 	c #BFB3B4",
"4 	c #AE9B96",
"5 	c #B3A19A",
"6 	c #B6A39C",
"7 	c #B6A29B",
"8 	c #A79692",
"9 	c #B3A5A4",
"0 	c #C1B6B7",
"a 	c #C3B7B7",
"b 	c #C2B5B6",
"c 	c #C0B4B5",
"d 	c #A69692",
"e 	c #B7A39C",
"f 	c #B9A7A0",
"g 	c #B19F99",
"h 	c #AC9C97",
"i 	c #BAACAA",
"j 	c #C6BABB",
"k 	c #C4B7B8",
"l 	c #C2B6B6",
"m 	c #B9ACAA",
"n 	c #AB9C97",
"o 	c #B1A099",
"p 	c #BAA8A1",
"q 	c #BEACA5",
"r 	c #BDACA5",
"s 	c #B9A9A3",
"t 	c #C6BBBC",
"u 	c #C5B9BA",
"v 	c #C4B8B8",
"w 	c #C4B8B9",
"x 	c #C4B9B9",
"y 	c #C4B9B8",
"z 	c #C5BABA",
"A 	c #C5BBBC",
"B 	c #B8ACAA",
"C 	c #BAA9A4",
"D 	c #BEACA6",
"E 	c #C1B1AA",
"F 	c #C1B0A9",
"G 	c #B6A7A0",
"H 	c #B6A9A5",
"I 	c #C2B7B6",
"J 	c #C7BCBD",
"K 	c #BDB3B4",
"L 	c #C4B5AE",
"M 	c #C4B6AE",
"N 	c #B4A6A0",
"O 	c #BCB1AF",
"P 	c #C6BCBC",
"Q 	c #C8BEBE",
"R 	c #C5BBBA",
"S 	c #C6BCBB",
"T 	c #C3BABA",
"U 	c #B5ADAF",
"V 	c #A49C9F",
"W 	c #C8BDBE",
"X 	c #B4A7A1",
"Y 	c #C4B7AF",
"Z 	c #C4B6AF",
"` 	c #C8BAB3",
" .	c #B5A8A2",
"..	c #C9C0C0",
"+.	c #C9C0BF",
"@.	c #C7BEBE",
"#.	c #C1B9BA",
"$.	c #AEA7AA",
"%.	c #A9A1A5",
"&.	c #C1B9B9",
"*.	c #AFA7A9",
"=.	c #C2B9B9",
"-.	c #B5A8A3",
";.	c #C8BAB4",
">.	c #CCBEB9",
",.	c #CCBEB8",
"'.	c #BAACA6",
").	c #C4BAB8",
"!.	c #C9C1C1",
"~.	c #C7BEBD",
"{.	c #C0B7B8",
"].	c #ACA6A9",
"^.	c #C5BDBD",
"/.	c #C8BFBE",
"(.	c #ADA6A9",
"_.	c #C0B8B8",
":.	c #C9C2C1",
"<.	c #C4BBB9",
"[.	c #CCBFB9",
"}.	c #D0C4BD",
"|.	c #D1C4BD",
"1.	c #C0B4AE",
"2.	c #C3B9B7",
"3.	c #C4BBBC",
"4.	c #BFB8B9",
"5.	c #C8C0BF",
"6.	c #C7BFBE",
"7.	c #C8BFBF",
"8.	c #D5C9C2",
"9.	c #CABEB8",
"0.	c #C4BAB6",
"a.	c #C9C1C0",
"b.	c #CBC3C3",
"c.	c #D8CEC7",
"d.	c #D5CBC4",
"e.	c #C5BCB5",
"f.	c #C6C0BC",
"g.	c #CCC6C5",
"h.	c #CAC3C2",
"i.	c #C8C1C0",
"j.	c #C8C0C0",
"k.	c #CAC2C2",
"l.	c #D5CBC5",
"m.	c #DDD3CC",
"n.	c #DDD3CD",
"o.	c #D4CAC4",
"p.	c #C8BFBB",
"q.	c #CAC2C0",
"r.	c #CEC8C7",
"s.	c #CAC4C3",
"t.	c #CAC3C3",
"u.	c #E0D8D1",
"v.	c #E0D9D1",
"w.	c #E1D9D2",
"x.	c #D4CCC6",
"y.	c #C9C1BC",
"z.	c #CBC4C1",
"A.	c #D0CAC8",
"B.	c #CEC9C7",
"C.	c #CDC7C5",
"D.	c #E5DDD7",
"E.	c #DFD6D1",
"F.	c #D1C9C5",
"G.	c #CAC4BF",
"H.	c #D1CCCC",
"I.	c #DFD7D1",
"J.	c #EAE2DC",
"K.	c #E8E1DA",
"L.	c #E1DAD5",
"M.	c #D9D2CD",
"N.	c #D3CDC8",
"O.	c #CFC9C4",
"P.	c #EDE7E0",
"Q.	c #ECE7E0",
"R.	c #ECE6DF",
". . . . . . . . . . . . . . . + + + + + + + ",
"@ @ @ @ # # # # # # # # # # # # # # # # # # ",
"$ $ $ $ % % % & $ & & & & % & & & & & & & & ",
"* * * * * * * * * = - - - - - - = = - - - - ",
"; ; ; ; ; ; ; > > , ' ' , > ) ! ! ! ! ! ! ! ",
"~ ~ ~ { { { ] ^ / ( _ _ : / ^ ] { { { ' { { ",
"< < < < < [ } | 1 2 3 3 2 1 | } 4 ) ) 5 5 5 ",
"6 7 6 6 ^ 8 9 0 a b c c b a 0 9 d ^ 6 6 6 e ",
"f f f g h i j k l l l l l l k j m n o p p p ",
"q r s h m t u v v w x x y y y z A B h C D D ",
"E F G H I J x x z x K K x z x x J I H G F E ",
"L M N O P Q R S T U V V U T S R W P O X Y Z ",
"` `  .I ..+.@.#.$.%.&.&.%.*.=.Q +...I -.;.;.",
">.,.'.).!.~.{.].$.^././.^.$.(._.~.:.<.'.,.[.",
"}.|.1.2.....3.4.5.5.6.@.7.5.4.3.....2.1.|.}.",
"8.8.9.0.a.b.5.5.5.5.5.5.5.5.5.5.b.a.0.9.8.8.",
"c.c.d.e.f.g.h.i.i.j.j.j.j.j.j.k.g.f.e.l.c.c.",
"m.m.n.o.p.q.r.s.:.:.:.:.:.:.t.r.q.p.o.n.m.m.",
"u.u.v.w.x.y.z.A.B.C.g.g.C.B.A.z.y.x.w.v.u.u.",
"D.D.D.D.D.E.F.G.C.A.H.H.A.C.G.F.I.D.D.D.D.D.",
"J.J.J.J.J.J.K.L.M.N.O.O.N.M.L.K.J.J.J.J.J.J.",
"P.P.P.P.P.P.P.Q.Q.Q.R.R.Q.Q.Q.P.P.P.P.P.P.P."};
