/* XPM */
static char * minfcs_xpm[] = {
"22 22 184 2",
"  	c None",
". 	c #FCFAF6",
"+ 	c #F8F5EB",
"@ 	c #F5F0E3",
"# 	c #F0EBDC",
"$ 	c #F1EBDC",
"% 	c #F2EDDD",
"& 	c #F3EDDE",
"* 	c #CABEAE",
"= 	c #CABFB0",
"- 	c #CFC3B4",
"; 	c #D6CCBC",
"> 	c #E1D9CA",
", 	c #ECE6D7",
"' 	c #F2ECDD",
") 	c #C7BBAB",
"! 	c #C8BCAC",
"~ 	c #C9BDAE",
"{ 	c #C9BFAF",
"] 	c #C8BDAD",
"^ 	c #CFC4B4",
"/ 	c #E0D7C7",
"( 	c #EEE8D7",
"_ 	c #F0EAD9",
": 	c #C8BDAF",
"< 	c #D1C8BC",
"[ 	c #E3DDD4",
"} 	c #EDEAE3",
"| 	c #F6F3EF",
"1 	c #C9BDAD",
"2 	c #D3CAB9",
"3 	c #E6DFCD",
"4 	c #EDE7D4",
"5 	c #CFC4B7",
"6 	c #E2DCD4",
"7 	c #F8F5F1",
"8 	c #FCFBF8",
"9 	c #FDFBF8",
"0 	c #FDFCF9",
"a 	c #D4C9B9",
"b 	c #E9E2CE",
"c 	c #EBE4D0",
"d 	c #CCC0B1",
"e 	c #CCC1B1",
"f 	c #CBC0B1",
"g 	c #D0C7B9",
"h 	c #E8E3DC",
"i 	c #FCFAF8",
"j 	c #CEC4B4",
"k 	c #DAD1BF",
"l 	c #E8E0CB",
"m 	c #CFC4B5",
"n 	c #CFC4B6",
"o 	c #CDC3B5",
"p 	c #E4DED6",
"q 	c #F9F6F3",
"r 	c #FCF9F7",
"s 	c #D2C8B8",
"t 	c #E1D9C3",
"u 	c #D2C8BA",
"v 	c #D2C8B9",
"w 	c #D9D1C8",
"x 	c #F0ECE7",
"y 	c #FBF8F5",
"z 	c #F8F5F2",
"A 	c #F7F4F1",
"B 	c #FAF8F4",
"C 	c #D4C9BA",
"D 	c #DCD2BE",
"E 	c #D5CBBE",
"F 	c #D5CCBE",
"G 	c #CEC5B8",
"H 	c #E0DBD2",
"I 	c #F4F1EC",
"J 	c #FAF7F3",
"K 	c #D0CDCB",
"L 	c #BAB8B7",
"M 	c #DFDCD9",
"N 	c #F7F4F0",
"O 	c #F9F6F2",
"P 	c #D6CDBE",
"Q 	c #D9CFBE",
"R 	c #D8CFC2",
"S 	c #CDC5B9",
"T 	c #E6E1DA",
"U 	c #F7F3EF",
"V 	c #F9F5F1",
"W 	c #CBC9C7",
"X 	c #949393",
"Y 	c #9B9A99",
"Z 	c #D0CECB",
"` 	c #F3EFEB",
" .	c #D9D0C1",
"..	c #DBD3C6",
"+.	c #DBD2C6",
"@.	c #CDC5BB",
"#.	c #E3DED6",
"$.	c #F4F0EA",
"%.	c #F1EDE7",
"&.	c #EDEAE4",
"*.	c #CBC9C5",
"=.	c #999896",
"-.	c #929190",
";.	c #BEBBB8",
">.	c #DCD2C5",
",.	c #DED6CB",
"'.	c #DED6CA",
").	c #D0C8BE",
"!.	c #DBD6CD",
"~.	c #ECE8DF",
"{.	c #EAE7DE",
"].	c #F0ECE4",
"^.	c #ECE9E0",
"/.	c #D5D3CB",
"(.	c #A3A29E",
"_.	c #888786",
":.	c #DFD7C6",
"<.	c #E1DACF",
"[.	c #D6D0C5",
"}.	c #D4CEC5",
"|.	c #E4DFD5",
"1.	c #EEE9DE",
"2.	c #EDE8DE",
"3.	c #ECE7DD",
"4.	c #DED9D1",
"5.	c #B4B1AC",
"6.	c #B5B2AD",
"7.	c #E1DACE",
"8.	c #E0D8C5",
"9.	c #E4DED3",
"0.	c #E1DBD1",
"a.	c #CCC6BD",
"b.	c #D6D1C7",
"c.	c #E8E2D7",
"d.	c #EAE4D9",
"e.	c #E7E1D7",
"f.	c #E4DDD0",
"g.	c #E1D8C0",
"h.	c #E8E1D7",
"i.	c #DBD5CC",
"j.	c #D6CFC5",
"k.	c #E7E0D4",
"l.	c #E7E0D5",
"m.	c #E4DBC9",
"n.	c #E1D7BB",
"o.	c #EBE5DC",
"p.	c #EBE6DB",
"q.	c #D7D1C9",
"r.	c #C6C1B9",
"s.	c #CEC9BF",
"t.	c #DFD9CB",
"u.	c #E3DCCF",
"v.	c #E4DDCF",
"w.	c #EBE5DB",
"x.	c #E8E1D1",
"y.	c #E1D7BD",
"z.	c #E0D6BA",
"A.	c #EEE9E0",
"B.	c #EEE8DF",
"C.	c #E1DCD4",
"D.	c #CAC6BE",
"E.	c #BFBAB3",
"F.	c #CCC6BB",
"G.	c #D4CDC0",
"H.	c #DAD4C5",
"I.	c #EAE3D4",
"J.	c #E3DAC1",
"K.	c #F1ECE4",
"L.	c #DFDBD3",
"M.	c #CECBC3",
"N.	c #C3C0B9",
"O.	c #BAB7B0",
"P.	c #CECBC2",
"Q.	c #DFDBD2",
"R.	c #EBE7DE",
"S.	c #EDE8DC",
"T.	c #E7E0CB",
"U.	c #E1D7BC",
"V.	c #F4F0E8",
"W.	c #F3EFE7",
"X.	c #F1EDE5",
"Y.	c #EFEBE0",
"Z.	c #EDE8D9",
"`.	c #E9E1CD",
". . . . . . . . . . . . . . . . . . . . . . ",
"+ + + + + + + + + + + + + + + + + + + + + + ",
"@ @ @ @ @ @ @ @ @ @ @ @ @ @ @ @ @ @ @ @ @ @ ",
"# # # # # # # # # # # # # $ $ % & & & & & & ",
"* * * * * * * * * * * * = - ; > , ' ' ' ' ' ",
") ) ) ) ) ) ) ! ~ * { { * ~ ] ! ^ / ( _ _ _ ",
") ) ) ) ) ! : < [ } | | } [ < : ! 1 2 3 4 4 ",
"1 1 1 1 ~ 5 6 7 8 9 0 0 9 8 7 6 5 ~ * a b c ",
"d d e f g h i i i i i i i i i i h g f j k l ",
"m m n o p q r r r r r r r r r r q p o n s t ",
"u v 5 w x y z A q B B B B q A z y x w 5 C D ",
"E F G H I J K L M N O O N M L K J I H G P Q ",
"R R S T U V W X Y Z ` ` Z Y X W V U T S R  .",
"..+.@.#.$.%.&.*.=.-.;.;.-.=.*.&.%.$.#.@.+.>.",
",.'.).!.~.{.].^./.(._._.(./.^.].{.~.!.).'.:.",
"<.<.[.}.|.1.2.2.3.4.5.6.4.3.2.2.1.|.}.[.7.8.",
"9.9.0.a.b.c.d.d.d.d.e.e.d.d.d.d.c.b.a.0.f.g.",
"h.h.h.i.a.j.k.k.k.k.k.k.k.k.k.k.j.a.i.l.m.n.",
"o.o.p.o.q.r.s.t.u.u.v.v.u.u.t.s.r.q.w.x.y.z.",
"A.A.A.A.B.C.D.E.F.G.H.H.G.F.E.D.C.3.I.J.z.z.",
"K.K.K.K.K.K.~.L.M.N.O.O.N.P.Q.R.S.T.U.z.z.z.",
"V.V.V.V.V.V.V.W.X.].].].].Y.Z.`.J.n.z.z.z.z."};
