/* XPM */
static char * minpr_xpm[] = {
"22 22 187 2",
"  	c None",
". 	c #FCFAF6",
"+ 	c #F8F5EB",
"@ 	c #F5F0E3",
"# 	c #F0EBDC",
"$ 	c #F0EBDD",
"% 	c #F1ECDD",
"& 	c #F2EDDE",
"* 	c #F3EDDE",
"= 	c #CABEAE",
"- 	c #CAC0B1",
"; 	c #CBC3B5",
"> 	c #CCC6BA",
", 	c #CDC8BD",
"' 	c #CDC9C1",
") 	c #CDC9BF",
"! 	c #D0CBBF",
"~ 	c #D7D0C3",
"{ 	c #E2DBCD",
"] 	c #ECE6D7",
"^ 	c #F2ECDD",
"/ 	c #C7BBAB",
"( 	c #C7BCAC",
"_ 	c #C8C0B3",
": 	c #CAC6BC",
"< 	c #CCC9C1",
"[ 	c #CCCAC2",
"} 	c #CECBC3",
"| 	c #CDCBC3",
"1 	c #CBC7BD",
"2 	c #D0CABC",
"3 	c #E0D8C8",
"4 	c #EEE8D7",
"5 	c #F0EAD9",
"6 	c #C8BDAF",
"7 	c #C9C4B9",
"8 	c #CBC9C0",
"9 	c #D5D3CC",
"0 	c #E5E4E0",
"a 	c #EEEEEB",
"b 	c #F6F5F3",
"c 	c #CBC6BB",
"d 	c #D4CCBC",
"e 	c #E6DFCD",
"f 	c #EDE7D4",
"g 	c #C9BDAD",
"h 	c #D2D1C9",
"i 	c #E4E3DF",
"j 	c #F7F7F6",
"k 	c #FBFBFB",
"l 	c #FCFCFB",
"m 	c #FCFCFC",
"n 	c #CDC7BC",
"o 	c #D4CABA",
"p 	c #E9E2CE",
"q 	c #EBE4D0",
"r 	c #CCC0B1",
"s 	c #CEC7BB",
"t 	c #CFCCC3",
"u 	c #D4D3CB",
"v 	c #E9E9E5",
"w 	c #FBFBFA",
"x 	c #D0CABE",
"y 	c #DAD1BF",
"z 	c #E8E0CB",
"A 	c #CFC4B5",
"B 	c #CFC7B9",
"C 	c #D1CEC5",
"D 	c #D1CFC8",
"E 	c #E6E5E0",
"F 	c #F8F8F7",
"G 	c #D3CBBB",
"H 	c #E1D9C3",
"I 	c #D2C8BA",
"J 	c #D3CDC1",
"K 	c #D2CFC7",
"L 	c #DCDBD5",
"M 	c #F0F0ED",
"N 	c #FAFAF9",
"O 	c #F8F8F6",
"P 	c #F7F7F5",
"Q 	c #D5CEC2",
"R 	c #DCD2BF",
"S 	c #D5CCBF",
"T 	c #D7D2C8",
"U 	c #D2D1C8",
"V 	c #E3E2DE",
"W 	c #F4F4F2",
"X 	c #F9F9F8",
"Y 	c #D8D7D1",
"Z 	c #C8C6BD",
"` 	c #E4E3DE",
" .	c #D9D0BF",
"..	c #D8D0C3",
"+.	c #DAD7CF",
"@.	c #E8E7E3",
"#.	c #F6F6F4",
"$.	c #D4D3CC",
"%.	c #AAA79A",
"&.	c #B0ADA0",
"*.	c #F3F2F0",
"=.	c #DAD1C2",
"-.	c #DBD4C7",
";.	c #DCD9D1",
">.	c #F3F3F1",
",.	c #F1F0EE",
"'.	c #AEAB9E",
").	c #A8A697",
"!.	c #CAC8BF",
"~.	c #DCD3C6",
"{.	c #DED7CC",
"].	c #DFDBD3",
"^.	c #DFDED9",
"/.	c #EDECEA",
"(.	c #ECEBE8",
"_.	c #B6B4A8",
":.	c #A19E8F",
"<.	c #DFD7C7",
"[.	c #E1DBD0",
"}.	c #E2DED5",
"|.	c #DAD8D1",
"1.	c #D9D8D1",
"2.	c #E1E0DB",
"3.	c #C2C0B6",
"4.	c #C3C1B7",
"5.	c #E2DDD4",
"6.	c #E0D9C6",
"7.	c #E4DED3",
"8.	c #E4DFD6",
"9.	c #E2E0DB",
"0.	c #D3D1CB",
"a.	c #DBDAD4",
"b.	c #E9E8E4",
"c.	c #EAE9E6",
"d.	c #EAE9E5",
"e.	c #E8E7E4",
"f.	c #E4DED2",
"g.	c #E1D8C0",
"h.	c #E8E1D7",
"i.	c #E8E4DD",
"j.	c #DFDDD7",
"k.	c #D3D1CA",
"l.	c #DAD9D2",
"m.	c #E7E6E2",
"n.	c #E7E3DA",
"o.	c #E4DBC9",
"p.	c #E1D7BB",
"q.	c #EBE5DB",
"r.	c #EBE6DC",
"s.	c #EBE9E3",
"t.	c #DCDBD4",
"u.	c #CECDC5",
"v.	c #E4E4DF",
"w.	c #EBE8E2",
"x.	c #E8E1D2",
"y.	c #E1D7BD",
"z.	c #E0D6BA",
"A.	c #EEE9E0",
"B.	c #EEEAE2",
"C.	c #EEEBE6",
"D.	c #DDDCD7",
"E.	c #EDEAE4",
"F.	c #EAE4D6",
"G.	c #E3D9C1",
"H.	c #F1EDE4",
"I.	c #F1EDE7",
"J.	c #EDEBE7",
"K.	c #E3E2DD",
"L.	c #D6D4CE",
"M.	c #CECCC4",
"N.	c #C7C5BC",
"O.	c #E3E1DD",
"P.	c #ECEBE6",
"Q.	c #EDE9DE",
"R.	c #E7E0CB",
"S.	c #E1D7BC",
"T.	c #F4F0E8",
"U.	c #F4F1E9",
"V.	c #F3F1EA",
"W.	c #F1F0EB",
"X.	c #F0EFEB",
"Y.	c #EFEFEC",
"Z.	c #F0EFEA",
"`.	c #EFEDE6",
" +	c #EDE9DD",
".+	c #E9E2CF",
"++	c #E3DAC1",
". . . . . . . . . . . . . . . . . . . . . . ",
"+ + + + + + + + + + + + + + + + + + + + + + ",
"@ @ @ @ @ @ @ @ @ @ @ @ @ @ @ @ @ @ @ @ @ @ ",
"# # # # # # # $ $ $ $ $ $ $ % & * * * * * * ",
"= = = = = = - ; > , ' ' ) ! ~ { ] ^ ^ ^ ^ ^ ",
"/ / / / ( _ : < [ } } } } | [ 1 2 3 4 5 5 5 ",
"/ / / 6 7 8 | 9 0 a b b a 0 9 | 8 c d e f f ",
"g g = c [ h i j k l m m l k j i h [ n o p q ",
"r r s t u v w k k k k k k k k w v u t x y z ",
"A B C D E F w w w w w w w w w w F E D C G H ",
"I J K L M N O P F N N N N F P O N M L K Q R ",
"S T U V W X Y Z ` P F F P ` Z Y X W V U T  .",
"..+.h @.#.j $.%.&.Y *.*.Y &.%.$.j #.@.h +.=.",
"-.;.U E >.,.a $.'.).!.!.).'.$.a ,.>.E U ;.~.",
"{.].9 ^./.(.,./.L _.:.:._.L /.,.(./.^.$.].<.",
"[.}.|.1.E /././.(.2.3.4.2.(./././.E 1.|.5.6.",
"7.8.9.0.a.b.c.c.c.d.e.e.d.c.c.c.b.a.0.9.f.g.",
"h.h.i.j.k.l.m.m.m.m.m.m.m.m.m.m.l.k.j.n.o.p.",
"q.q.r.s.t.u.$.2.i i v.v.i i 2.$.u.t.w.x.y.z.",
"A.A.A.B.C.` h !.h Y D.D.Y h !.h ` E.F.G.z.z.",
"H.H.H.H.H.I.J.K.L.M.N.N.M.L.O.P.Q.R.S.z.z.z.",
"T.T.T.T.T.T.U.V.W.X.Y.Y.Z.`. +.+++p.z.z.z.z."};
