/* XPM */
static char * minufcs_xpm[] = {
"22 22 226 2",
"  	c None",
". 	c #D5C8CD",
"+ 	c #D5C8CC",
"@ 	c #D6C8CC",
"# 	c #D4C7C8",
"$ 	c #D4C7C7",
"% 	c #D4C7C5",
"& 	c #D5C7C5",
"* 	c #D3C5C3",
"= 	c #D4C6C3",
"- 	c #D5C6C4",
"; 	c #D5C8C5",
"> 	c #B3A09B",
", 	c #B3A09A",
"' 	c #B29F9A",
") 	c #B29F99",
"! 	c #B6A39E",
"~ 	c #BCAAA6",
"{ 	c #C6B6B2",
"] 	c #D1C2C0",
"^ 	c #D7CAC7",
"/ 	c #D7CAC8",
"( 	c #B29F98",
"_ 	c #B09D97",
": 	c #AC9A93",
"< 	c #A6948F",
"[ 	c #A3918C",
"} 	c #A08F8B",
"| 	c #A7958F",
"1 	c #AC9A94",
"2 	c #B19E98",
"3 	c #B8A69F",
"4 	c #C6B6B1",
"5 	c #D4C7C3",
"6 	c #D7CBC7",
"7 	c #B4A19A",
"8 	c #B3A199",
"9 	c #AE9C95",
"0 	c #A5948E",
"a 	c #A69591",
"b 	c #B3A4A3",
"c 	c #BAADAC",
"d 	c #BFB3B3",
"e 	c #B3A5A4",
"f 	c #A79692",
"g 	c #A6948E",
"h 	c #AF9C96",
"i 	c #B5A29B",
"j 	c #BEADA6",
"k 	c #D0C2BC",
"l 	c #D8CDC7",
"m 	c #B7A39C",
"n 	c #AD9A93",
"o 	c #C1B6B7",
"p 	c #C3B7B7",
"q 	c #C2B6B5",
"r 	c #C0B4B4",
"s 	c #C4B7B7",
"t 	c #C2B6B6",
"u 	c #B7A49D",
"v 	c #BFAFA8",
"w 	c #D5C8C2",
"x 	c #D9CCC7",
"y 	c #BAA8A1",
"z 	c #BAA8A0",
"A 	c #B2A099",
"B 	c #AC9C97",
"C 	c #BAACAA",
"D 	c #C6BABB",
"E 	c #C4B7B8",
"F 	c #C2B6B7",
"G 	c #C1B6B6",
"H 	c #C3B7B8",
"I 	c #C5BABB",
"J 	c #BBAAA3",
"K 	c #C6B7B0",
"L 	c #D8CCC5",
"M 	c #BEACA6",
"N 	c #BAA9A3",
"O 	c #B9ACAA",
"P 	c #C6BBBC",
"Q 	c #C4B8B9",
"R 	c #C3B8B8",
"S 	c #C4B8B8",
"T 	c #C4BABA",
"U 	c #B9ADAA",
"V 	c #AD9D97",
"W 	c #BAAAA3",
"X 	c #C1B1A9",
"Y 	c #D1C3BB",
"Z 	c #C1B1AA",
"` 	c #C1B0A9",
" .	c #B6A7A0",
"..	c #B6A9A5",
"+.	c #C2B7B6",
"@.	c #C7BCBC",
"#.	c #C4B9B9",
"$.	c #C3B2AB",
"%.	c #CCBDB5",
"&.	c #C4B6AE",
"*.	c #C4B7AE",
"=.	c #B4A7A0",
"-.	c #BCB2AF",
";.	c #C6BDBC",
">.	c #C7BDBC",
",.	c #C2B8B8",
"'.	c #BDB4B5",
").	c #C5BDBC",
"!.	c #C5BBBB",
"~.	c #C5BBBA",
"{.	c #C5BCBC",
"].	c #B5A7A0",
"^.	c #C5B8AF",
"/.	c #C8BBB3",
"(.	c #C8BAB4",
"_.	c #B5A8A2",
":.	c #C9C0C0",
"<.	c #BFB7B7",
"[.	c #ACA4A7",
"}.	c #ADA6A8",
"|.	c #C7BEBD",
"1.	c #C7BEBE",
"2.	c #C5BCBD",
"3.	c #ADA6A9",
"4.	c #ACA5A8",
"5.	c #BFB7B8",
"6.	c #B6A8A2",
"7.	c #C8BAB3",
"8.	c #C9BBB4",
"9.	c #CCBFB9",
"0.	c #CCBFB8",
"a.	c #BAACA7",
"b.	c #C4BBB8",
"c.	c #CAC2C0",
"d.	c #C8BFBE",
"e.	c #C2B9BA",
"f.	c #B0A8AA",
"g.	c #AAA2A6",
"h.	c #C1BABA",
"i.	c #C2BABB",
"j.	c #C8BFBF",
"k.	c #CAC0C0",
"l.	c #CAC2C1",
"m.	c #CDC0BA",
"n.	c #D0C4BD",
"o.	c #D1C4BD",
"p.	c #C0B4AE",
"q.	c #C3BAB7",
"r.	c #C9C1C0",
"s.	c #CAC1C2",
"t.	c #C6BDBE",
"u.	c #B7B0B2",
"v.	c #A59FA2",
"w.	c #C3B9B7",
"x.	c #D2C6BE",
"y.	c #D5C9C2",
"z.	c #CABEB8",
"A.	c #C4BAB6",
"B.	c #CAC3C3",
"C.	c #C8C0BF",
"D.	c #C7C0C0",
"E.	c #C1BABB",
"F.	c #D8CCC2",
"G.	c #D8CEC7",
"H.	c #D5CBC5",
"I.	c #C5BCB5",
"J.	c #C6C0BC",
"K.	c #CCC6C5",
"L.	c #CAC2C2",
"M.	c #C8C0C0",
"N.	c #C9C1C1",
"O.	c #CCC6C4",
"P.	c #D5CBC4",
"Q.	c #D9CFC6",
"R.	c #DBD1C3",
"S.	c #DDD3CC",
"T.	c #DDD3CD",
"U.	c #D4CAC5",
"V.	c #C8BFBB",
"W.	c #CEC8C7",
"X.	c #CAC4C3",
"Y.	c #C9C2C1",
"Z.	c #DDD2C7",
"`.	c #DDD2C2",
" +	c #E0D8D1",
".+	c #E0D9D2",
"++	c #E1D9D3",
"@+	c #D4CCC6",
"#+	c #C9C1BC",
"$+	c #CBC4C1",
"%+	c #D0CAC8",
"&+	c #CEC9C7",
"*+	c #CDC7C5",
"=+	c #E1D9D2",
"-+	c #E0D7CC",
";+	c #DED3C1",
">+	c #DED2C0",
",+	c #E5DDD7",
"'+	c #DFD7D1",
")+	c #D1CAC5",
"!+	c #CAC4BF",
"~+	c #D1CCCC",
"{+	c #E3DAD0",
"]+	c #DFD6C4",
"^+	c #DED3C0",
"/+	c #EAE2DC",
"(+	c #E8E1DA",
"_+	c #E1DAD5",
":+	c #D9D2CC",
"<+	c #D3CDC8",
"[+	c #CFC9C4",
"}+	c #E1DAD4",
"|+	c #E7E0DA",
"1+	c #E7DFD6",
"2+	c #E3D9CA",
"3+	c #DFD4BF",
"4+	c #DED3BE",
"5+	c #EDE7E0",
"6+	c #ECE7E0",
"7+	c #ECE6DF",
"8+	c #ECE7DF",
"9+	c #ECE5DB",
"0+	c #E9E2D5",
"a+	c #E5DCCB",
"b+	c #E1D7C2",
"c+	c #DED4BD",
". . + + + + + + + + + + + @ @ @ @ @ @ @ @ @ ",
"# # $ $ $ $ $ $ $ $ $ $ $ $ $ $ $ $ $ $ $ $ ",
"% % % % % % % % % & & & & & & & & & & & % % ",
"* * * * * * * * * * * * * * = - & ; ; & & ; ",
"> > > > > > > , , ' ) ) ' ! ~ { ] ^ / / / / ",
"( ( ( ( ( ( _ : < [ } } [ | 1 2 3 4 5 6 6 6 ",
", 7 8 8 8 9 0 a b c d d c e f g h i j k l l ",
"m m m m n f e o p q r r q s t e f n u v w x ",
"y y z A B C D E t t F G G G H I C B A J K L ",
"M M N B O P I Q R Q S R R S S T P U V W X Y ",
"Z `  ...+.@.#.#.#.#.#.#.#.#.#.#.@.+... .$.%.",
"&.*.=.-.;.>.,.'.).!.~.~.!.{.'.,.>.;.-.].^./.",
"(.(._.+.:.>.<.[.}.{.|.1.2.3.4.5.>.:.+.6.7.8.",
"9.0.a.b.c.:.d.e.f.g.h.h.g.f.i.j.k.l.b.a.0.m.",
"n.o.p.q.r.s.1.j.t.u.v.v.u.t.j.1.s.:.w.p.o.x.",
"y.y.z.A.r.B.C.C.r.D.E.E.D.r.C.C.B.r.A.z.y.F.",
"G.G.H.I.J.K.L.M.M.M.N.N.M.M.M.L.O.J.I.P.Q.R.",
"S.S.T.U.V.c.W.X.Y.Y.Y.Y.Y.Y.X.W.c.V.U.S.Z.`.",
" + +.+++@+#+$+%+&+*+K.K.*+&+%+$+#+@+=+-+;+>+",
",+,+,+,+,+'+)+!+*+%+~+~+%+*+!+)+'+,+{+]+^+^+",
"/+/+/+/+/+/+(+_+:+<+[+[+<+:+}+|+1+2+3+4+4+4+",
"5+5+5+5+5+5+5+6+6+6+7+7+8+9+0+a+b+c+c+c+c+c+"};
