/* XPM */
static char *stickufcs[] = {
/* columns rows colors chars-per-pixel */
"22 22 165 2",
"   c #9DB88F5E8C9A",
".  c #9F79903B8DED",
"X  c #9FDE917E8E88",
"o  c #A0F293A79062",
"O  c #A3A7950C9120",
"+  c #A51E95589322",
"@  c #A5A7978D9473",
"#  c #A9809BD295C5",
"$  c #AB639DDD9884",
"%  c #AD66A05399C8",
"&  c #AE61A0F39A19",
"*  c #B09DA15E9FE6",
"=  c #B26DA57A9E15",
"-  c #B291A5859E8A",
";  c #B380A468A16E",
":  c #B694A7A4A32E",
">  c #B463A848A031",
",  c #B5BCA9A7A141",
"<  c #B646AA15A1F4",
"1  c #B75DA830A3BE",
"2  c #B78FAA2CA2A0",
"3  c #B7D4A8DBA431",
"4  c #B792A980A48B",
"5  c #B88DAA6EA47E",
"6  c #BAD5AB49A65C",
"7  c #BB82AD9AA80F",
"8  c #BC50AF6DA74C",
"9  c #BE68AF88AA0B",
"0  c #BC9DAFC3AA90",
"q  c #BF3CB22CA94E",
"w  c #BF3CB1A9AB1C",
"e  c #C014B4B4AB31",
"r  c #BFC7B356AD61",
"t  c #BFAAB2A9B059",
"y  c #C0C6B237AB41",
"u  c #C155B4E1AB55",
"i  c #C18BB590ABF4",
"p  c #C0B1B142ACED",
"a  c #C1B0B44CADC7",
"s  c #C14FB66CAC44",
"d  c #C107B4E2AEB0",
"f  c #C1BEB448AEBC",
"g  c #C294B5EEAF9D",
"h  c #C453B627AFD5",
"j  c #C385B8EBAEAD",
"k  c #C078B27AB085",
"l  c #C0C1B3C8B176",
"z  c #C077B490B193",
"x  c #C0ACB48BB276",
"c  c #C52AB539B1A9",
"v  c #C50EB6BFB224",
"b  c #C316B730B45D",
"n  c #C2BBB7B1B44D",
"m  c #C3C5B77EB4A6",
"M  c #C48DB6ADB49A",
"N  c #C410B8F3B05A",
"B  c #C298B861B3F8",
"V  c #C29AB934B4C8",
"C  c #C475B943B579",
"Z  c #C4FBBAA8B5CF",
"A  c #C731B92FB7D6",
"S  c #C87BBB9DB06D",
"D  c #CBEEBECBB39E",
"F  c #C9F4BDCBB482",
"G  c #CBD1BF4AB501",
"H  c #C72FBBA1BA2D",
"J  c #C82EBBE6B9F7",
"K  c #C769BD32B9C8",
"L  c #C859BABBB955",
"P  c #C8E4BCBEBAB2",
"I  c #CC47C067B39C",
"U  c #CC47C14DB46B",
"Y  c #CCFBC074B5C7",
"T  c #CFB9C2FCB704",
"R  c #D1D7C50EB9AF",
"E  c #D306C58BBBA1",
"W  c #D3D8C81CBAA4",
"Q  c #D321C5A4BC48",
"!  c #D6FFCA7FBCFD",
"~  c #D6F7C6CDC206",
"^  c #DAC5CEA6C0BA",
"/  c #DB3BCF01C194",
"(  c #DBEBCF93C1D0",
")  c #DC56CC5CC534",
"_  c #DD22CD9FC602",
"`  c #DE14CDF3C7CC",
"'  c #DED4D019C82D",
"]  c #DDF9D223C3F1",
"[  c #DEA0D2D5C395",
"{  c #DE78D288C4D0",
"}  c #DF5CD07AC7E7",
"|  c #E18ED4DAC503",
" . c #E15AD56FC584",
".. c #E3DBD7F0C4C7",
"X. c #E3F3D7E7C5BA",
"o. c #E0DCD4C1C6DA",
"O. c #E175D55BC6EC",
"+. c #E1AFD5A4C799",
"@. c #E4D9D7ECC6CF",
"#. c #E2E2D8D8C1D0",
"$. c #E2F0D8CAC2D0",
"%. c #E454D897C5DC",
"&. c #E449D89CC6FB",
"*. c #E4D8D8C8C6D5",
"=. c #E504D8B5C7FB",
"-. c #E52BD982C80C",
";. c #E24AD349CA21",
":. c #E232D5B3C886",
">. c #E254D844CBAA",
",. c #E3C0D831CBF6",
"<. c #E4F2D7E5C9D7",
"1. c #E5D7D7E5CAD1",
"2. c #E32BD2F5CCFE",
"3. c #E4BFD3D1CFE5",
"4. c #E5EED7E3CCD3",
"5. c #E5F3D7C9CDCD",
"6. c #E6FFD732CE0D",
"7. c #E6D8D7D7CDCC",
"8. c #E600D4F3D03E",
"9. c #E6C7D6D9CED9",
"0. c #E707D7FBCEE1",
"q. c #E6F4D6E6CFCB",
"w. c #E6EBD7D3CFD4",
"e. c #E3B4D8DACBEC",
"r. c #E4E1D8D3C8AD",
"t. c #E4F1D8D7C9C3",
"y. c #E571D85CCA45",
"u. c #E60DD95AC9D3",
"i. c #E553DAB0CA1D",
"p. c #E578D863CA4C",
"a. c #E508D9D9CADD",
"s. c #E60ED971CA5C",
"d. c #E5E5D8BBCBCB",
"f. c #E6E8D8E7CBBB",
"g. c #E5E5D8BBCCAF",
"h. c #E4C5D9A5CCB9",
"j. c #E73BDA09CCFA",
"k. c #E703D8E6CDCC",
"l. c #E74ADA17CDF3",
"z. c #E4C4DA85CCBD",
"x. c #E784DDE1CF07",
"c. c #E5FAD514D105",
"v. c #E71CD60BD123",
"b. c #E70DD610D202",
"n. c #E6F3D6E0D0D0",
"m. c #E7C3D6CFD0CA",
"M. c #E6F1D7C9D0CE",
"N. c #E7D8D6D2D1D1",
"B. c #E7E7D5E6D2D2",
"V. c #E7E9D5DBD3E6",
"C. c #E719D6C8D2E2",
"Z. c #E7D8D6D1D2D7",
"A. c #E7E6D6C9D3D3",
"S. c #E7EED5E2D4DF",
"D. c #E7E7D6BBD4C6",
"F. c #E80DD6D6D70A",
"G. c #E831D6D6D7FA",
"H. c #E8B1D69FD4C7",
"J. c #E8E6D6D8D7F6",
"K. c #E9FCD7C8DCA3",
"L. c #EAC8D7CFDCA0",
"P. c #EAC9D7C8DD84",
"I. c #EACCD8BADC90",
"U. c #EAF0E1BCD618",
"Y. c #ECBDE457DAE0",
/* pixels */
"K.L.L.L.K.K.K.P.P.P.P.P.P.P.P.P.L.L.L.L.I.I.",
"F.J.J.J.G.G.J.J.G.J.J.G.J.J.J.J.J.J.J.J.J.J.",
"V.V.V.V.S.S.S.S.S.S.S.S.S.S.S.S.S.S.S.S.S.S.",
"S.S.S.S.S.S.S.S.S.S.H.S.S.S.S.D.D.D.D.D.D.D.",
"V.V.V.V.V.V.V.V.V.V.V.S.S.V.V.A.A.A.A.A.A.A.",
"B.B.B.B.B.B.B.B.B.B.Z.C.Z.C.C.Z.Z.Z.Z.Z.Z.Z.",
"N.N.N.N.N.N.N.N.v.8.3.3.c.b.N.N.N.N.N.N.N.N.",
"n.n.n.m.m.m.m.2.~ c * ; v ~ 2.M.M.M.M.M.M.M.",
"w.w.q.q.q.q.` p X . + @ o @ h ' w.w.w.w.w.w.",
"9.9.q.q.9.) 1   : 9 3 4 7 4 O 6 _ 0.0.0.0.0.",
"5.5.6.6.} w $ 5 f m A A m f 2 # y ;.0.7.7.7.",
"4.4.4.k.E = & a m M k k M b r % - Q k.4.4.4.",
"d.d.d.j.Y , < d J t l l t L 0 > , G l.g.g.g.",
"1.1.1.f.R u q g P t x x l H 0 8 i R f.1.1.1.",
"<.<.<.p./ T D F Z C z z C n N S T ( y.<.<.<.",
"t.t.t.t.o./ ( ! j V K K B s W ^ ( O.t.t.t.t.",
"r.=.r.r.u.+.] | [ U e e I [  .{ :.s.r.r.r.r.",
"*.@.@.@.@.=.a.h.h.,.>.>.e.z.z.a.-.*.*.*.*.*.",
"X.X.X.X.X.X.&.i.x.U.Y.Y.U.x.i.&.X.X.X.X.X.X.",
"................X.%.%.%.%.X.................",
"$.$.$.$.$.$.$.$.$.$.$.$.$.$.$.$.$.$.$.$.$.$.",
"#.#.#.#.#.#.#.#.#.#.#.#.#.#.#.#.#.#.#.#.#.#."
};
